<?xml version="1.0" encoding="UTF-8" standalone="no"?>
<svg
   xmlns:dc="http://purl.org/dc/elements/1.1/"
   xmlns:cc="http://creativecommons.org/ns#"
   xmlns:rdf="http://www.w3.org/1999/02/22-rdf-syntax-ns#"
   xmlns:svg="http://www.w3.org/2000/svg"
   xmlns="http://www.w3.org/2000/svg"
   xmlns:sodipodi="http://sodipodi.sourceforge.net/DTD/sodipodi-0.dtd"
   xmlns:inkscape="http://www.inkscape.org/namespaces/inkscape"
   width="16"
   height="16"
   version="1.1"
   id="svg3733"
   sodipodi:docname="vcard.svg"
   inkscape:version="0.92.4 (5da689c313, 2019-01-14)">
  <metadata
     id="metadata3739">
    <rdf:RDF>
      <cc:Work
         rdf:about="">
        <dc:format>image/svg+xml</dc:format>
        <dc:type
           rdf:resource="http://purl.org/dc/dcmitype/StillImage" />
        <dc:title></dc:title>
      </cc:Work>
    </rdf:RDF>
  </metadata>
  <defs
     id="defs3737">
    <marker
       inkscape:stockid="Arrow1Lstart"
       orient="auto"
       refY="0.0"
       refX="0.0"
       id="Arrow1Lstart"
       style="overflow:visible"
       inkscape:isstock="true">
      <path
         id="path4587"
         d="M 0.0,0.0 L 5.0,-5.0 L -12.5,0.0 L 5.0,5.0 L 0.0,0.0 z "
         style="fill-rule:evenodd;stroke:#000000;stroke-width:1.0pt"
         transform="scale(0.8) translate(12.5,0)" />
    </marker>
  </defs>
  <sodipodi:namedview
     pagecolor="#ffffff"
     bordercolor="#666666"
     borderopacity="1"
     objecttolerance="10"
     gridtolerance="10"
     guidetolerance="10"
     inkscape:pageopacity="0"
     inkscape:pageshadow="2"
     inkscape:window-width="1680"
     inkscape:window-height="987"
     id="namedview3735"
     showgrid="false"
     inkscape:zoom="45.254834"
     inkscape:cx="4.8242986"
     inkscape:cy="8.2600218"
     inkscape:window-x="1912"
     inkscape:window-y="18"
     inkscape:window-maximized="1"
     inkscape:current-layer="svg3733" />
  <path
     d="m 1.6822166,11.191024 c -0.1142841,0 -0.2069581,-0.0935 -0.2061269,-0.207789 0,0 0.00291,-0.310022 0.4450843,-0.628354 C 2.394102,10.014938 2.8965361,9.9521855 3.2959067,9.7323446 3.6952773,9.5125037 3.6923683,9.1925085 3.6803165,8.8533967 3.6724205,8.6277378 3.6337718,8.5803618 3.4770988,8.2749119 3.2460373,7.8244251 3.1824538,7.4350283 3.1483764,7.1017346 3.095598,6.5814307 3.1529478,5.8404548 3.5057737,5.4390063 3.8577684,5.0383889 4.384306,4.980208 4.384306,4.980208 L 4.5920951,4.957351 4.799053,4.980208 c 0,0 0.526122,0.058181 0.8781167,0.4587983 0.3532415,0.4014485 0.4105913,1.14284 0.3569817,1.6627283 -0.033246,0.3332937 -0.097245,0.7226905 -0.3287223,1.1731773 -0.156673,0.3050344 -0.1978153,0.3528259 -0.2028022,0.5784848 -0.012052,0.3391118 -0.014545,0.659107 0.3848254,0.8789479 0.3993706,0.2198409 0.9018042,0.2825934 1.3743172,0.6225364 0.442175,0.318332 0.4455,0.628354 0.4455,0.628354 8.31e-4,0.114284 -0.09184,0.207789 -0.206127,0.207789 z"
     id="path3731"
     inkscape:connector-curvature="0"
     style="stroke-width:0.41557819" />
  <path
     style="color:#000000;font-style:normal;font-variant:normal;font-weight:normal;font-stretch:normal;font-size:medium;line-height:normal;font-family:sans-serif;font-variant-ligatures:normal;font-variant-position:normal;font-variant-caps:normal;font-variant-numeric:normal;font-variant-alternates:normal;font-feature-settings:normal;text-indent:0;text-align:start;text-decoration:none;text-decoration-line:none;text-decoration-style:solid;text-decoration-color:#000000;letter-spacing:normal;word-spacing:normal;text-transform:none;writing-mode:lr-tb;direction:ltr;text-orientation:mixed;dominant-baseline:auto;baseline-shift:baseline;text-anchor:start;white-space:normal;shape-padding:0;clip-rule:nonzero;display:inline;overflow:visible;visibility:visible;opacity:1;isolation:auto;mix-blend-mode:normal;color-interpolation:sRGB;color-interpolation-filters:linearRGB;solid-color:#000000;solid-opacity:1;vector-effect:none;fill:#000000;fill-opacity:1;fill-rule:nonzero;stroke:none;stroke-width:0.39300001;stroke-linecap:round;stroke-linejoin:round;stroke-miterlimit:4;stroke-dasharray:none;stroke-dashoffset:0;stroke-opacity:1;paint-order:normal;color-rendering:auto;image-rendering:auto;shape-rendering:auto;text-rendering:auto;enable-background:accumulate"
     d="m 0.96289062,3.5742188 c -0.12587235,-1e-7 -0.23242187,0.1065495 -0.23242187,0.2324218 V 12.03125 c 0,0.125872 0.10654952,0.232422 0.23242187,0.232422 H 15.033203 c 0.125872,0 0.234375,-0.10655 0.234375,-0.232422 V 3.8066406 c 0,-0.1258723 -0.108503,-0.2324219 -0.234375,-0.2324218 z M 1.1230469,3.9667969 H 14.873047 V 11.871094 H 1.1230469 Z"
     mask="none"
     id="rect4548"
     inkscape:connector-curvature="0" />
  <rect
     style="fill:#000000;fill-opacity:1;stroke:none;stroke-width:1.32382643;stroke-miterlimit:4;stroke-dasharray:none;stroke-opacity:1"
     id="rect4564"
     width="5.5999999"
     height="0.7499963"
     x="8.6069422"
     y="5.7335591" />
  <rect
     style="fill:#000000;fill-opacity:1;stroke:none;stroke-width:1.32382631;stroke-miterlimit:4;stroke-dasharray:none;stroke-opacity:1"
     id="rect4564-3"
     width="5.5999999"
     height="0.7499963"
     x="8.6069422"
     y="7.6169319" />
  <rect
     style="fill:#000000;fill-opacity:1;stroke:none;stroke-width:1.32382631;stroke-miterlimit:4;stroke-dasharray:none;stroke-opacity:1"
     id="rect4564-1"
     width="5.5999999"
     height="0.7499963"
     x="8.6069422"
     y="9.489563" />
</svg>
