<?xml version="1.0" encoding="utf-8"?>
<!-- Generator: Adobe Illustrator 22.0.0, SVG Export Plug-In . SVG Version: 6.00 Build 0)  -->
<svg version="1.1" id="Layer_1" xmlns="http://www.w3.org/2000/svg" xmlns:xlink="http://www.w3.org/1999/xlink" x="0px" y="0px"
	 viewBox="0 0 46.5 49.6" style="enable-background:new 0 0 46.5 49.6;" xml:space="preserve">
<style type="text/css">
	.st0{fill:#B3284F;stroke:#FFFFFF;stroke-miterlimit:10;}
</style>
<g>
	<path class="st0" d="M45,3.9h-5.6V1.6c0-0.4-0.4-0.8-0.8-0.8H33c-0.4,0-0.8,0.4-0.8,0.8v2.4H14.6V1.6c0-0.4-0.4-0.8-0.8-0.8H8.2
		c-0.4,0-0.8,0.4-0.8,0.8v2.4H1.8C1.4,3.9,1,4.3,1,4.8v43.2c0,0.4,0.4,0.8,0.8,0.8H45c0.4,0,0.8-0.4,0.8-0.8V4.8
		C45.8,4.3,45.4,3.9,45,3.9L45,3.9z M33.8,2.4h4v4.8h-4V2.4z M9,2.4h4v4.8H9V2.4z M2.6,5.6h4.8v2.4c0,0.4,0.4,0.8,0.8,0.8h5.6
		c0.4,0,0.8-0.4,0.8-0.8V5.6h17.6v2.4c0,0.4,0.4,0.8,0.8,0.8h5.6c0.4,0,0.8-0.4,0.8-0.8V5.6h4.8v7.2H2.6V5.6z M2.6,47.1V14.4h41.6
		v32.8H2.6z M2.6,47.1"/>
	<path class="st0" d="M29.8,19.1H8.2v23.2h30.4V19.1H29.8z M24.2,20.8h5.6v5.6h-5.6V20.8z M29.8,33.6h-5.6v-5.6h5.6V33.6z M17,27.9
		h5.6v5.6H17V27.9z M17,20.8h5.6v5.6H17V20.8z M9.8,20.8h5.6v5.6H9.8V20.8z M9.8,27.9h5.6v5.6H9.8V27.9z M15.4,40.8H9.8v-5.6h5.6
		V40.8z M22.6,40.8H17v-5.6h5.6V40.8z M29.8,40.8h-5.6v-5.6h5.6V40.8z M37,40.8h-5.6v-5.6H37V40.8z M37,33.6h-5.6v-5.6H37V33.6z
		 M37,20.8v5.6h-5.6v-5.6H37z M37,20.8"/>
</g>
</svg>
