<?xml version="1.0" encoding="utf-8"?>
<!-- Generator: Adobe Illustrator 22.0.0, SVG Export Plug-In . SVG Version: 6.00 Build 0)  -->
<svg version="1.1" id="Capa_1" xmlns="http://www.w3.org/2000/svg" xmlns:xlink="http://www.w3.org/1999/xlink" x="0px" y="0px"
	 viewBox="0 0 1024 1024" style="enable-background:new 0 0 1024 1024;" xml:space="preserve">
<style type="text/css">
	.st0{fill:#BF1F50;}
</style>
<title></title>
<g id="icomoon-ignore">
</g>
<path class="st0" d="M62.7,547.4c-7.1-7.1-10.6-17.7-10.6-24.8s3.5-17.7,10.6-24.8l49.5-49.5c14.2-14.2,35.4-14.2,49.5,0l3.6,3.5
	l194.6,208.8c7.1,7.1,17.7,7.1,24.8,0l474.1-491.8h3.5c14.1-14.2,35.4-14.2,49.5,0l49.5,49.5c14.1,14.1,14.1,35.4,0,49.5l0,0
	L395.2,855.2c-7.1,7.1-14.1,10.6-24.8,10.6s-17.7-3.5-24.8-10.6L69.7,558L62.7,547.4L62.7,547.4z"/>
</svg>
