<?xml version="1.0" encoding="utf-8"?>
<!-- Generator: Adobe Illustrator 22.0.1, SVG Export Plug-In . SVG Version: 6.00 Build 0)  -->
<svg version="1.1" id="Capa_1" xmlns="http://www.w3.org/2000/svg" xmlns:xlink="http://www.w3.org/1999/xlink" x="0px" y="0px"
	 viewBox="0 0 398 280" style="enable-background:new 0 0 398 280;" xml:space="preserve">
<style type="text/css">
	.st0{fill:#FFFFFF;}
	.st1{fill:#70B73B;}
</style>
<g>
	<g>
		<g>
			<path class="st0" d="M304.6,107.9c-1.4,0.6-2.5,1.7-3.8,2.5c-1.9,1.2-3.6,2.6-5.6,3.7c-1.9,1.2-3.8,2.4-5.8,3.3
				c-0.8,0.6-1.9,0.7-2.8,1c-1.8,0.6-3.6,1.4-5.4,2c-1.7,0.7-3.5,1.3-5.3,1.5c-1.1,0.4-2.2-0.2-3.4,0.2c-0.7,0.3-1.5-0.1-2.3-0.1
				c-0.2-0.1-0.5-0.4-0.5,0c-0.9,0.1-1.8,0-2.7,0c0.2-0.6-0.1-0.7-0.3-1c-1.4-0.4-2.8-0.2-4.2-0.5c-2.3-0.2-4.6-0.6-6.8-1.6
				c-1.8-0.9-3.6-2-4.6-3.7c0.4-0.3,0.9,0,1.3-0.1c0.8-0.3,1.5-0.7,2.3-1c0.4-0.5,1.1-0.1,1.7-0.2c0.9-0.6,2.1-0.4,3-1
				c0.3-0.4,0.6,0,0.9-0.2c0.5-0.3,1.2-0.3,1.5-0.9c0.5-0.1,1.2,0,1.5-0.6c0.6,0.2,1.1-0.4,1.7-0.5c1.8-0.7,3.5-1.6,5.2-2.6
				c0.2-0.4,0.6-0.4,1-0.4c0-0.5,0.5,0,0.7-0.2c0.3-0.1,0.4-0.4,0.6-0.6c0.3-0.1,0.4-0.2,0.6-0.4c0.6-0.3,1.3-0.3,1.7-0.9
				c0.9,0.1,1.4-1.2,2.3-1.2c0.7,0.4,0.8-0.7,1.3-0.9c0.3-0.1,0.2,0.4,0.5,0.3c0-0.3,0.1-0.5,0.4-0.7c0.4,0.1,0.9,0,1.3-0.3
				c0.1-0.3,0.1-0.5,0.2-0.8c0.2-0.1,0.5-0.2,0.6-0.5c0.2-0.2,0.1-0.7,0.5-0.6c-0.1,0.4,0,0.7,0,1.1c0.4-0.4,0.9-0.8,1-1.3
				c-0.3,0.3-1.3,0.6-0.7-0.4c0.4-0.2,0.8-0.3,1.3-0.2c0-0.6,0.7-0.7,1-1.1c0.3-0.4,0.7-0.6,0.8-1.1c0.1,0.1,0.2,0.2,0.4,0.2
				c0.1-0.4,0.6-0.7,0.4-1.2c0.2,0,0.3,0.1,0.5,0.1c0.2-0.2,0.1-0.6,0.3-0.9c0.8,0.4,0.7-1.1,1.3-1.3c0.5-0.2,0.3-0.7,0.2-1.1
				c0.6-0.6,0.7-1.5,1.5-1.9c1-0.2,0-0.9,0.4-1.3c0.5-0.5,0.9-2.2-0.4-1.6c-0.1-0.5-0.2-1,0-1.4c0.3,0,0.9,0,0.7-0.4
				c-0.1-0.3,0.2-0.6,0.2-0.9c-0.2,0.1-0.3,0.2-0.5,0.3c0.1-0.6,0.1-1.2,0-1.7c-0.3-0.2-0.7-0.3-0.5-0.7c-0.4-0.3-0.2-1.1-0.8-0.9
				c0,0.3,0,0.6-0.3,0.3c0.1-0.3,0.2-1-0.3-1c0.4,0.6-1,0.4-0.2,1.1c0.1,0.3-0.3,0.2-0.5,0.2c0-0.4-0.3-0.7-0.5-1
				c-1.2,0.4-0.3-0.8-0.5-1.1c0.2,0.2,0.3,0.4,0.4,0.6c0.2-0.1,0.6-0.1,0.7-0.3c-0.2-0.1-0.7,0.1-0.6-0.2c0.3-0.5-0.4-0.5-0.7-0.6
				c-0.2,0.4-0.4,0.7-0.6,1.1c-0.1-0.5-0.1-1.1,0-1.6c-0.2-0.3-0.5,0.1-0.8,0.1c-0.6-0.9-1.8-0.8-2.8-0.9c-0.7-0.1-1.4,0.3-2-0.2
				c-1.2,0.1-2.4-0.1-3.6,0.1c-0.7,0.1-1.4,0-2.1,0.2c-0.6,0.1-1.3-0.3-1.9,0c-0.8,0.5-1.8,0.3-2.7,0.5c-0.8-0.3-0.9,0.8-1.5,0.8
				c-0.2-0.1-0.4-0.3-0.6-0.3c0.2,0.4-0.3,0.6-0.6,0.4c-0.1-0.3-0.6-0.3-0.9-0.4c-0.2,0.3-0.4,0.6-0.9,0.5c-0.4,0.5-1.1,0.4-1.6,0.5
				c-0.2,0.3,0.6,0,0.4,0.2c-0.1,0.2-0.3,0.2-0.4,0.3c-0.7,0-1.3,0.4-2,0.6c-0.6-0.3-1,0.5-1.7,0.2c-0.4,0.1-0.8,0.3-1.2,0.5
				c-0.4,0-1-0.4-1.2,0.1c-0.3,0.3-0.9,0-1,0.4c-0.2,0.3-0.3,0.6-0.5,0.8c-0.5,0.2-1,0.8-1.6,0.7c-0.6,0.6-1.5,0.7-2.1,1.3
				c-0.9,0.4-1.5,1.4-2.5,1.6c-1,0.2-1.5,1.3-2.4,1.8c-0.9,0.5-1.6,1.3-2.5,2c-1.5,1.1-2.6,2.6-3.9,3.9c-0.5,0.8-1.3,1.4-1.6,2.3
				c-0.5,0.2-0.2,0.9-0.7,1.2c-0.4,0.2-0.7,0.7-0.8,1.1c0,0.2,0.3,0.6-0.1,0.6c-0.5,0.1,0.3,0.9-0.3,0.6c-0.6,1-0.4,2.3-0.7,3.5
				c-0.3,2.4-0.2,4.9,0.3,7.3c0,1,0.6,1.7,0.8,2.6c0,0.5,0.3,0.8,0.7,1.1c0.2,0.9,0.7,1.7,1.3,2.3c0.1,0.7,0.6,1.1,0.8,1.7
				c0.8-0.1,0.8,1,1.3,1.4c0.6,0.3,1.2,0.8,1.4,1.4c0.4,0.2,0.9,0.3,0.9,0.8c0.3,0.1,0.8-0.3,0.8,0.2c0,0.5,0.7,0.4,0.8,0.8
				c0.1,0.4,0.6,0.5,0.9,0.4c0.2,0.5,0.8,0.7,1.2,1c1.1,0.1,1.9,1.1,3,1.3c0.3,0.2,0.3-0.2,0.5-0.4c0.1,0.2-0.1,0.6,0.2,0.7
				c1.4,0.3,2.8,0.7,4.2,0.8c0.1,0.3-0.4,0.9,0.1,0.7c0.5-0.4,1.2-0.6,1.8-0.2c0.8,0.1,1.6-0.1,2.4-0.1c0.1,0.6,0.6,0,0.9,0
				c0,0.2,0,0.4,0.2,0.6c0.3,0.1,0.3-0.2,0.5-0.4c0.3-0.2,0.7,0.1,1,0.2c0.6-0.4,1.3-0.4,2-0.6c0,0.1,0,0.3,0,0.4
				c0.4-0.1,0.8-0.2,1.3-0.4c0.5,0,1,0.1,1.5,0.3c0.3,0.4,0.5-0.5,0.8-0.2c0.3,0,0.2,0.3,0.3,0.5c0.3,0,0.3-0.3,0.4-0.4
				c0.4-0.2,0.9-0.1,1.4-0.1c0.5-0.1,1-0.2,1.6-0.3c0-0.2,0.1-0.3,0.3-0.2c0.4,0.1,0.7-0.2,0.8-0.5c0.5-0.1,1,0.3,1.5,0
				c0.3-0.3,0.9-0.5,1,0c0.6,0.1,1.5-0.8,1.8-0.1c0.5-0.1,1.1-0.1,1.6-0.4c0.5,0.2,0.7-0.1,0.9-0.4c0.3,0,0.5,0.1,0.8,0.1
				c0.2-0.2,0.3-0.6,0.6-0.6c0.4,0,0.5-0.5,0.9-0.4c0.4,0,0.7-0.5,1.1-0.5c0.6,0.3,1-0.5,1.6-0.6c0.5,0.2,0.3-0.6,0.7-0.7
				c-0.2,0.6-0.4,1.1-0.6,1.6c0.6-0.1,0.8-0.9,1.3-1.2c0.7-0.4,1.6-0.3,2.1-1c0.4,0.2,0.5-0.2,0.9-0.3c0.7,0.3,0.8-0.6,1.5-0.5
				c0.7,0.7,1.5-1.2,0.1-0.4c0.1-0.3,0.7-0.1,0.9-0.4c0.5-0.2,0.6-0.9,1.3-0.8c0.4-0.5,1-0.9,1.3-1.5c0.8-0.4,1.6-0.9,2.3-1.5
				c0.4-0.1,1.2-0.2,0.9-0.8c0.2-0.7,1.2-1,1.3-1.8c0.2-0.2,0.5-0.4,0.7-0.6c0.1-0.2,0.7-0.1,0.5-0.5c0-0.2-0.2-0.5,0-0.7
				c0.3-0.3,0.3,0.5,0.6,0.3c0.5-0.7,0.7-1.6,0.8-2.4c0.4-0.5,0.3,0.5,0.7,0.6c-0.3-1.1,0.8-1.5,1-2.3c0.4-0.4,0.5-0.9,0.8-1.4
				C304.1,108.7,304.6,108.4,304.6,107.9z M288.7,84.7c-0.4-0.1-0.1-0.8,0.1-1c0.2-0.2,0.1,0.3,0.2,0.4c0.1,0.5-0.2,1.1-0.4,1.6
				c-0.1,0-0.3-0.1-0.4-0.1C288,85.1,288.8,85.1,288.7,84.7z M287.7,90.5c0.2-0.1,0.1,0.9-0.4,0.7C287.3,90.9,287.5,90.7,287.7,90.5
				z M285.6,82.8c0.3-0.2,0.3,0.3,0.2,0.5C285.6,83.4,285.4,82.9,285.6,82.8z M285.4,81.4c-0.4-0.1-1.2,0-1.2-0.6
				C284.7,80.9,285.3,80.8,285.4,81.4z M248.4,107.8c0.1-0.5-0.5-1.3,0-1.7c0.4-0.3,0.3-0.9,0.4-1.4c0.5-1,0.8-2,1.2-3.1
				c0.1-0.3-0.1-0.5,0-0.8c0.3-0.2,0.7-0.4,0.7-0.8c0.2-1.1,1.2-1.6,1.8-2.5c0.4-0.3,0.7-0.6,0.7-1.2c0.8-0.5,1.2-1.3,2-1.8
				c0.3-0.5,0.7-1,1.2-1.2c0.2-0.5,0.9-0.4,0.9-1c0.5-0.1,0.7-0.6,1-0.9c1.4-0.9,2.7-1.9,4.1-2.8c1.4-0.8,2.9-1.4,4.3-2
				c1.1-0.3,2.2-0.5,3.1-1.1c0.7,0.2,1.2-0.5,2-0.2c0.3-0.4,0.8-0.6,1.3-0.7c-0.1,0.7,0.7,0.4,1.2,0.4c0.6-0.3,1.2-0.5,1.8-0.7
				c0.9-0.2,1.7,0.3,2.4,0.9c0.3,0.7,1,1.3,0.8,2.1c0.3,0.2,0.7,0.9,0.1,1c-0.2,0.9,0.5,1.9-0.2,2.6c-1.8,3.4-5.2,5.2-8.3,7.3
				c-0.9,0.5-1.8,1-2.7,1.4c-1.8,1.1-3.8,1.7-5.6,2.9C258.1,104.5,253.3,106.5,248.4,107.8z"/>
			<path class="st0" d="M265,80.6c-0.2,0.1-0.3,0.3-0.3,0.5c0.2-0.1,0.4-0.1,0.6-0.2C265.2,80.8,265.1,80.5,265,80.6z"/>
			<path class="st0" d="M287.4,82.2c0,0.2,0,0.4,0.2,0.6c0.2-0.1,0.3-0.2,0.4-0.4C287.9,82.1,287.6,82.2,287.4,82.2z"/>
			<path class="st0" d="M279.2,87c0.1-0.2-0.2-0.5-0.4-0.5C278.8,86.7,279,87.1,279.2,87z"/>
			<path class="st0" d="M282.8,101.1c0.3-0.1,0.5-0.3,0.9-0.4c0.1-0.4-0.5-0.3-0.7-0.4C282.9,100.6,282.8,100.8,282.8,101.1z"/>
			<path class="st0" d="M292.4,122.4c0,0.1,0,0.3,0,0.5c0.3,0,0.5-0.2,0.4-0.4C292.8,122.4,292.5,122.4,292.4,122.4z"/>
		</g>
		<path class="st0" d="M181.5,32.5c0.9-0.3,1.8,0.3,2.7,0.1c1.7-0.3,3.4-0.6,5.1-0.1c0.6,0.4,1-0.1,1.6-0.1c0.3,0.1,0.6,0.2,0.8,0.4
			c0.1,0.6,0.7,0.5,1.2,0.8c0.4,0.4,0.8-0.1,1.2,0c0.9,0.8,1.8,1.6,3,2.1c1.3,0.6,2.4,1.5,3.5,2.4c0.6,1.1,1.6,2.1,1.6,3.4
			c-0.2,0.6,0.2,1.1,0.4,1.6c0.4,0.6,0,1.3-0.2,1.9c-0.8,1.4-1.9,2.5-2.9,3.7c-0.4,0.6-1.3,0.7-1.6,1.4c-0.3,1-1.2,1.5-1.7,2.3
			c-0.5,0.2-0.8-0.3-1-0.7c-0.4-1.8-1.8-3.3-2.4-5.1c-0.7-1.3-1.2-2.7-2.3-3.7c-2.1-0.7-4.3,0.1-6.5-0.3c-0.7,0-1.4,0.4-2,0.7
			c-2.4,0.4-4.5,1.8-6.3,3.4c-0.4,0.3-0.9,0.5-1.3,0.7c-0.7,1.1-2.1,1.6-2.7,2.7c-1.9,1.2-3.2,3.1-4.7,4.8c-0.1,0.3-0.7,0.1-0.7,0.4
			c-0.1,0.9-1.2,0.9-1.5,1.7c-0.3,0.9-0.9,1.5-1.6,2.1c-0.4,1.4-1.2,2.6-2.3,3.6c-1.3,2.2-3.2,3.9-4.5,6.1c-0.4,0.6-0.6,1.5-1.3,1.9
			c-0.5,1-1.1,2-1.8,2.9c-1.5,2.4-2.8,4.9-4.2,7.4c-0.7,1.6-1.6,3-2.4,4.5c-0.4,0.7-0.2,1.7-0.7,2.4c-0.9,1.1-1,2.5-1.7,3.6
			c-0.8,1.4-1.1,2.9-1.9,4.3c-0.3,1.9-1.3,3.6-1.9,5.4c0.2,0.6-0.5,1-0.5,1.6c-0.2,0.7-0.6,1.4-0.8,2.1c0.1,0.7-0.2,1.4-0.4,2.1
			c0.3,0.4,0.1,0.8-0.2,1.1c0.2,1.3-0.3,2.5-0.7,3.8c0,2.2,0.1,4.5-0.6,6.6c0,1.1,0.2,2.2,0.3,3.3c0.3,0.9,0.6,1.8,0.6,2.8
			c0.5,0.8,0.8,1.7,1.2,2.6c0.3,0.7,0.9,1.1,1,1.9c0.9,0.6,1.4,1.5,2.2,2.1c1.4,0.9,2.9,1.3,4.5,1.9c2.2,0.7,4.5,0.6,6.7,0.7
			c3.1-0.3,6.3-0.6,9.3-1.7c0.5-0.2,0.9,0.1,1.3,0.3c1,0.2,1.6-0.7,2.5-0.8c0.8-0.2,1.6-0.4,2.3-0.9c0.8,0.2,0.8-0.5,1.2-0.8
			c4.6-3.2,8.5-7.4,12.4-11.4c1.5-1.6,3-3.1,4.3-4.8c0.1-0.1,0.3-0.2,0.5-0.3c0.4,1.2-1,1.9-1.1,3c-0.1,0.5-0.7,0.6-0.8,1.2
			c-0.7,1.2-1.3,2.5-2.3,3.6c0,0.2-0.1,0.4-0.1,0.6c-0.8,0.5-1,1.5-1.6,2c-0.1,0.5-0.3,1.6-1,1.3c0,0.5,0,1.1-0.4,1.4
			c-1.2,0.8-1.2,2.9-2.7,3.4c0.5,0.8-0.5,1.1-0.8,1.6c-0.5,0.2-0.8,0.7-0.9,1.2c-0.6,0.3-0.4,1.2-1.2,1.3c-0.3,0.7-1.4,0.5-1.5,1.3
			c-0.6,0.5-1.3,0.9-1.8,1.5c-0.2,0.5-0.7,0.8-1.2,1c-0.2,0.3-0.3,0.6-0.6,0.8c-1.2-0.5-0.5,0.7-1.1,0.8c-1.1,0.5-2,1.3-3.2,1.7
			c-0.7,0.2-1.1,0.9-1.9,0.8c-0.5,0-0.7,0.7-1.3,0.5c-0.5,0.1-1.2,0.1-1.5,0.7c-0.5,0.2-1.1-0.3-1.6,0.1c-0.4,0.3-0.7,0.7-1.3,0.5
			c-1.2,0-2.4,0.7-3.6,0.4c-1.4-0.1-3.1,0.8-4.2-0.3c-1.2,1-2.8,0.3-4.2,0.2c-1.2-0.3-2.6-0.4-3.8-0.9c-0.3-0.1-0.7-0.1-1-0.2
			c-0.8-0.9-2.5-0.4-3.2-1.6c-0.6,0.2-0.9-0.3-1.4-0.5c-0.6-0.1-0.8-0.9-1.4-1c-0.7-0.4-1.3-0.9-1.8-1.5c-0.5-0.6-0.8-1.5-1.5-1.8
			c-1.1-0.5-1.1-1.9-2-2.6c-0.3-0.7-0.7-1.3-1.2-1.9c-1.4-3-1.9-6.3-2.4-9.5c-0.1-0.4,0.5-0.6,0.2-1c-0.8-1.2-0.8-2.7-0.3-4
			c0.2-2.3,0.1-4.6,0.8-6.8c0.3-2.4,0.9-4.8,1.3-7.2c0.4-1.4,0.9-2.7,1.1-4.1c0.2-0.9,0.4-1.8,1-2.6c0.6-0.7,0.5-1.6,0.9-2.3
			c0.5-1.5,0.8-3.2,2-4.4c0.4-0.3,0.3-0.8,0.3-1.2c0.5-0.9,0.7-2,1.3-2.8c0.3-0.7,0.7-1.3,0.8-2.1c0-1.2,0.8-2.1,1.3-3
			c0.1-0.5,0.6-0.7,0.9-1c1.4-2.1,2.5-4.3,3.9-6.3c0.3-0.9,0.8-1.6,1.3-2.3c0.3-1.1,1.1-1.9,1.6-2.9c0.1-0.3,0.5-0.1,0.5-0.4
			c0.4-1.3,1.6-2.2,2.1-3.4c0.8-1.1,1.6-2.2,2.2-3.3c0.5-0.4,0.9-0.9,1.5-1c0.4-0.1,0.3-0.7,0.6-0.9c0.4-0.3,0.2-1,0.7-1.2
			c1-1,2-1.9,2.7-3c0.3-0.5,0.5-1,0.9-1.4c0.8-0.7,1.3-1.7,2.3-2.1c1.2-1.5,2.6-2.8,3.9-4.2c0.8-1.1,2-1.7,2.8-2.7
			c0.9-1.1,2.5-1.6,3.2-3c0.8-0.7,1.7-1.2,2.4-2c1.3-0.7,2.3-1.8,3.6-2.5c0.3-0.3,0.6-0.6,1-0.4c0.6-1.1,2.2-0.8,2.8-2
			C178.7,33.4,180.2,33,181.5,32.5z"/>
		<g>
			<path class="st0" d="M203,114c0-0.1,0-0.1,0-0.2C203,113.9,203,113.9,203,114z"/>
			<path class="st0" d="M202.8,114.8c0.3,0.1,0.3-0.3,0.3-0.5c-0.1-0.2-0.2-0.3-0.2-0.4C202.9,114.3,202.8,114.5,202.8,114.8z"/>
			<path class="st0" d="M240.3,138.5c0,0.1,0,0.3-0.2,0.5c-0.2-0.1-0.4-0.1-0.5-0.2c0.1-0.2,0-0.5-0.1-0.7c-0.3,0.1-0.1,0.4-0.1,0.6
				c-0.3,0-0.5-0.3-0.4-0.6c-0.2,0-0.3,0.1-0.3,0.2c-0.2,0-0.3-0.1-0.4-0.2c0.1,0,0.3,0,0.4,0c-0.4-0.4-0.4-1.2-1.1-1.3
				c-0.1,0.3,0.3,0.2,0.2,0.5c0.1,0.2-0.3,0.1-0.4,0.1c-0.1-0.5-0.3-1-0.6-1.3c-0.4-0.1,0.1,0.2,0,0.4c-0.2,0.1-0.3,0.1-0.5,0.1
				c0-0.2,0-0.4,0.1-0.6c-0.1-0.2-0.3-0.4-0.5-0.4c0,0.1,0.1,0.2,0.1,0.4c-0.3,0-0.4-0.2-0.6-0.4c0-0.3,0.6-0.5,0.9-0.3
				c0.2,0.1,0.4,0.3,0.5,0.1c0,0.3,0.5,0.3,0.8,0.4c-0.1,0.5,1,0.7,0.5-0.2c0.3,0.1,0.5,0.3,0.8,0.4c0-0.2-0.1-0.6-0.4-0.6
				c-1-0.2-1.4-1.4-2.3-1.5c-0.4,0-0.4-0.7-0.8-0.6c-0.9,0.6-0.4-0.8-1-0.5c-0.2,0-0.2-0.4-0.4-0.4c0,0.2,0,0.3,0,0.5
				c0.2,0.2,0.6,0.1,0.4,0.5c-0.4,0.3-0.8-0.1-1.2-0.2c-0.3-0.1,0.4,0.4,0,0.3c-0.7,0.4-0.4-0.3-0.8-0.3c0.1,0.2,0.2,0.4,0.2,0.6
				c-0.3-0.1-0.6-0.2-0.9-0.2c0-0.1,0-0.2,0-0.3c1,0.3,0.5-0.1,0.3-0.3c-0.2-0.1-0.3,0.2-0.4,0.2c-0.2-0.1-0.3-0.3-0.4-0.4
				c0.1-0.3,0-0.8,0.4-0.7c0.1-0.3-0.2-0.4-0.3-0.6c-0.2-0.3,0.5-0.2,0.2-0.5c-0.2-0.2-0.2-0.6-0.5-0.6c-0.1,0.5,0,1.1-0.4,1.4
				c-0.1,0.1,0,0.3,0,0.4c-0.2-0.1-0.5-0.1-0.6-0.3c0.1,0,0.3,0,0.4,0c-0.2-0.2-0.3-0.4-0.5-0.7c-0.2-0.1-0.5-0.1-0.7-0.2
				c-0.1,0.3,0.3,0.2,0.2,0.5c-0.4,0-0.6-0.6-0.8-0.8c-0.3,0.1-0.5,0.1-0.8,0c0,0.1,0,0.3,0,0.4c-0.2-0.2-0.5-0.5-0.4-0.8
				c-0.2-0.1-0.4-0.2-0.6-0.3c0,0.3,0.3,0.3,0.4,0.5c-0.5-0.1-1.1-0.4-1.3-0.9c0.3,0.2,0.2-0.1,0.2-0.3c0.1,0,0.4,0,0.4-0.2
				c-0.2-0.1-0.5-0.1-0.5-0.3c-0.1-0.4-0.5-0.5-0.7-0.8c-0.5-0.3-1.1-0.4-1.3-0.9c-0.3-0.1-0.5-0.3-0.7-0.6c-0.2,0-0.5,0.1-0.4,0.3
				c0.4,0.3,0.7,0.7,1.1,0.9c0.2,0.1,0.4,0.2,0.5,0.3c-0.1,0.4-0.4,0-0.6-0.1c-0.4-0.1-0.5-0.5-0.9-0.7c-1-0.6-1.9-1.3-2.7-2
				c-0.1-0.1-0.2-0.2-0.1-0.3c0.4,0,0.5,0.4,0.8,0.4c-0.2-0.2-0.3-0.4-0.2-0.7c-0.4,0-0.6-0.5-1-0.5c-0.2,0.1-0.2,0.5-0.5,0.5
				c0.1-0.4,0.2-0.9-0.2-1.1c-0.3-0.3-0.7-0.5-0.8-0.9c0.5,0.1,0.8,0.8,1.4,0.9c0,0.1,0,0.3,0.1,0.3c0.2-0.1,0.2-0.4,0.3-0.6
				c-0.2-0.3-0.4-0.7-0.8-0.9c-0.3-0.1-0.2-0.4-0.2-0.7c-0.8-0.6-1.5-1.2-2.3-1.8c0-0.3,0.3-0.3,0.5-0.5c0.3,0.2,0.7,0.5,1,0.7
				c-0.2,0.6,0.5,0.8,0.9,1c0.3,0,0.3-0.3,0.5-0.5c-1-0.6-1.7-1.6-2.8-2c-0.5,0-0.9,0-1.3-0.3c0,0.6,1.1,0.6,1.1,1.2
				c-0.2,0-0.3,0-0.4-0.2c-0.3-0.4-0.9-0.4-1.2-0.8c-0.4-0.6-1.1-0.7-1.5-1.3c-1.1-0.7-1.9-1.6-3-2.3c-0.2-0.3-0.6-0.6-0.3-0.9
				c0.4,0.2,0.9,0.4,1.3,0.7c0,0.2-0.2,0.5,0,0.7c0.2,0,0.7-0.3,0.5,0.1c-0.2,0.4,0.4,0.6,0.7,0.5c0.3-0.2,0.7,0.5,0.2,0.5
				c0.3,0.5,0.9,0.6,1.4,0.8c0.2,0.5,0.7,0.6,1,0.9c0.2-0.1,0.4-0.3,0.6-0.3c-0.2-0.2-0.4-0.4-0.7-0.5c-0.1-0.3-0.3-0.5-0.5-0.7
				c-0.8-0.6-1.7-1.2-2.5-1.8c-0.2-0.4,0.2-0.3,0.4-0.2c0.4,0.7,1.2,0.9,1.8,1.5c0.7-0.5,0.4,0.7,0.9,0.4c0.3-0.1,0.4,0.2,0.3,0.4
				c0.7,0.7,1.6,1,2.3,1.7c0.8,0.4,1.4,1.2,2.2,1.7c0.7,0.8,1.7,1.1,2.6,1.8c0.4,0.4,0.9,0.3,1.3,0.6c0.6,0.3,1.1,0.9,1.7,1.1
				c0.3-0.5-0.2-0.8-0.5-1c-0.2-0.5,0.3-0.1,0.6-0.2c-0.2-0.3-0.6-0.6-0.9-0.4c-0.1-0.5-0.5-0.7-0.9-1c-0.3,0-0.5,0-0.8,0.1
				c-0.2-0.1-0.1-0.4-0.2-0.6c-0.2,0.3-0.5,0.1-0.8,0.1c0.1-0.3,0.1-0.6,0-0.9c-0.3,0.1-0.5,0.3-0.8,0.2c0-0.4,0-0.8,0.1-1.2
				c0.4,0.3,0.9,0.7,1.4,1c1.4,1.2,3,2.1,4.5,3.3c0.3,0.2,0.5-0.5,0.2-0.5c-0.4,0.1-0.5-0.5-0.9-0.5c-0.1-0.3-0.4-0.3-0.6-0.3
				c-0.4-0.7-1.3-0.9-1.7-1.6c-0.8-0.5-1.7-1-2.4-1.7c-0.8-0.4-1.6-0.9-2.1-1.6c-0.5-0.3-1.1-0.7-1.7-0.8c0-0.1,0-0.2,0-0.2
				c-0.4-0.3-0.7-0.6-1.1-0.8c-0.2-0.4-0.6-0.6-1.1-0.7c-0.9-0.9-1.9-1.5-2.8-2.4c-0.5,0-0.5-0.6-0.9-0.7c-0.4-0.4-1-0.4-1.3-0.8
				c-0.3-0.4-0.9-0.6-0.6-1.2c-0.5-0.3-1-0.7-1.3-1.1c-0.5-0.4-1-0.6-1.4-1.1c-0.2-0.1-0.2-0.6,0.1-0.5c0.5,0.2,1,0,1.5,0
				c1.2,0.1,2.3-0.4,3.5-0.3c0.4,0,0.3-0.6,0.6-0.6c0.4,0,0.3-0.6,0.6-0.8c0.4-0.2,0.7-0.7,1.3-0.5c-0.1-0.4,0.2-0.4,0.5-0.3
				c0.2-0.4,0.7-0.5,1.1-0.6c0.1-0.4-0.2-0.5-0.3-0.8c-0.2-0.1-0.2,0.2-0.2,0.3c-0.2,0.1-0.3,0.2-0.5,0.3c-0.1,0.1-0.2,0.4-0.4,0.3
				c0-0.5,0.4-0.8,0.6-1.2c0.6-0.1,0.7,0.6,1.2,0.6c0.1-0.2,0.1-0.3,0.2-0.4c0.2-0.1,0.4,0.1,0.5,0.2c0.1-0.1,0.1-0.3,0.2-0.5
				c0.4,0.5,0.9-0.1,1.3-0.3c0-0.3,0.2-0.5,0.5-0.5c0.2-0.2,0.4-0.5,0.6-0.8c0.6,0.1,0.8-0.4,1.2-0.7c0.1-0.2-0.1-0.5-0.1-0.8
				c0.2,0,0.5-0.1,0.5,0.2c0.1-0.1,0.2-0.2,0.2-0.3c-0.3-0.1-0.7,0-0.9-0.3c0-0.2,0-0.3,0-0.5c-0.2,0.1-0.1,0.3-0.2,0.5
				c-0.3,0.3-0.1,0.9-0.7,1c-0.3,0.2-0.6-0.1-0.9-0.2c-0.1-0.3,0.2-0.2,0.4-0.3c0.3-0.2,0.6-0.4,0.7-0.7c0.3-0.8,1.3-1.2,1.4-2.1
				c-0.4-0.1-0.3,0.7-0.7,0.6c0-0.3,0.1-0.7,0.1-1c0.2,0,0.3,0.2,0.4,0.2c0.2-0.2-0.1-0.5,0-0.7c0.1-0.2,0.4-0.1,0.5-0.2
				c0-0.4,0.2-0.6,0.6-0.7c0.2-0.5-0.2-0.3-0.5-0.1c0-0.3,0.1-0.6,0.4-0.7c0.3-0.1,0,0.4,0.2,0.4c-0.4-1.3,1.4-0.4,0.9,0.3
				c-0.2,0.2-0.4,0-0.6,0c0.1,0.2,0.1,0.4,0.3,0.6c0.3-0.3,0.7-0.4,0.8-0.9c0.4-0.5-0.4-0.6-0.3-1c0.2-0.6-0.2-1.3,0.3-1.7
				c0.4-0.3-0.2-0.8,0.3-1c0.5-0.2,0.3-0.9,0.6-1.3c0.3-0.5,0-1.2,0.1-1.7c0.1-0.1,0.2-0.2,0.3-0.1c0.3,0.3-0.3,0.6,0,1
				c0.2-0.1,0.3-0.6,0.4-0.2c0,0.3,0.3,0.1,0.5,0c-0.4-0.6,0.8-0.6,0.2-1c-0.3,0-0.3,0.7-0.7,0.6c0-0.4,0.3-0.6,0.3-0.9
				c0.1,0.1,0.3,0.1,0.4,0.2c0.1-0.2,0.2-0.5,0.1-0.7c-0.2,0.1-0.1,0.4-0.4,0.5c0-0.3,0-0.7,0-1c0.3-0.1,0.3,0.3,0.5,0.4
				c0.2-0.3,0.3-0.6,0.2-0.9c-0.3,0-0.4-0.1-0.4-0.4c-0.2,0.2-0.2,0.5-0.2,0.7c-0.3-0.3-0.3-0.8-0.5-1.2c-0.2-0.5,0-1.6-0.8-1.7
				c-0.2-0.3-0.1-0.6-0.4-0.8c-0.3-0.2-0.7-0.9-1.1-0.4c-0.4,0-0.4-0.9-0.8-0.9c0,0.3-0.1,0.8-0.5,0.9c-0.3,0-0.3,0.4,0,0.4
				c-0.1,0.3-0.4,0.7-0.8,0.4c-0.3-0.5,0.2-0.6,0.3-0.9c-0.4,0-0.1-0.4-0.1-0.6c0.1-0.4-0.4-0.5-0.5-0.8c-0.1-0.2,0-0.3,0-0.5
				c-0.2,0-0.3,0.1-0.3,0.2c-0.2,0-0.3-0.2-0.5-0.2c0.1,0.2,0.2,0.3,0.2,0.5c-0.2,0.1-0.5,0.1-0.7,0c-0.1-0.2,0-0.5,0.2-0.6
				c-0.2-0.7-0.8-0.5-1.3-0.5c-0.1-0.1-0.2-0.3-0.3-0.4c-0.6,0-1.3,0.6-1.8,0.1c-0.3-0.2-0.7,0.2-0.9-0.1c-0.2-0.2-0.5-0.4-0.8-0.2
				c-0.5,0.2-0.9,0.5-1.5,0.3c-0.3-0.1-0.4,0.1-0.6,0.3c-0.2,0-0.4,0-0.6,0.1c-0.7,0.6-1.6,0.9-2.3,1.5c-0.9,0.8-2,1.5-2.8,2.4
				c-0.1,0.3-0.3,0.1-0.5,0.1c-0.2-0.1-0.3,0.3-0.5,0.1c-0.6-0.2-1.2-0.8-1.8-0.3c-0.3,0.1-0.6,0.2-0.9,0c-0.1-0.3-0.3-0.6-0.6-0.7
				c-0.3,0.2-0.6,0.4-1,0.4c-0.2,0-0.4,0.1-0.5,0.2c-0.2,0-0.8-0.3-0.8,0.1c0.1,0.4-0.1,0.7-0.3,1c-0.3,0.3-0.8,0-1,0.3
				c-0.9,0.9-1.2,2.2-1.7,3.3c-0.3,1.3-0.9,2.5-1.2,3.8c0,0.7-0.4,1.2-0.5,1.9c-0.7,3.3-1.4,6.6-1.9,10c-0.4,1.8-0.6,3.6-0.9,5.3
				c0.1,0,0.2-0.1,0.3-0.1c0,0.3,0,0.5-0.3,0.5c-0.4,1.5-0.4,3-0.7,4.6c-0.1,0.3,0,0.7,0,1.1c-0.2,0-0.2,0.1-0.2,0.3
				c-0.1,0.9-0.2,1.9-0.3,2.8c0.4,0.1,0.5,0.5,0,0.4c0,0.4,0,0.9-0.2,1.3c0.1,0.4-0.3,0.7-0.1,1c0.1,0.6-0.3,1-0.1,1.6
				c0,0.2,0.1,0.5-0.2,0.6c-0.1,0.4-0.1,0.9,0,1.4c0.1,0.5-0.3,0.9-0.2,1.3c0,0.4-0.2,0.7-0.2,1.1c0,0.2,0.1,0.4-0.1,0.5
				c-0.1,0.2,0.2,0.1,0.2,0.3c-0.1,0.6,0,1.1-0.2,1.7c-0.3,0.8-0.1,1.8-0.2,2.7c-0.2,1.3,0,2.6-0.2,3.9c0,0.4,0.5,0.6,0.4,1
				c-0.2,0.5-0.1,1.3,0.4,1.6c0.3,0.1,0.8,0.3,1-0.2c0.2,0.1,0.5,0,0.4-0.3c-0.1-0.4,0.4-0.3,0.5-0.5c0.3-0.2,0.3,0.3,0.6,0.4
				c0.3,0.2,0.3-0.3,0.4-0.4c0.3-0.4,0-0.8-0.1-1.2c0.3,0,0.3,0.4,0.5,0.6c0.3,0.1,0.3-0.3,0.4-0.3c0.3,0.3,0,1.2,0.6,1.1
				c-0.1-0.5,0.2-0.9,0.4-1.4c0-0.3,0.4,0.2,0.3-0.1c-0.1-0.3-0.1-0.6,0-0.9c0.7,0-0.1,1.5,0.7,1.5c0.2-0.7-0.1-1.5,0-2.2
				c0-0.2,0-0.5,0.3-0.4c-0.1,0.2,0.1,0.9,0.5,0.8c0.3-0.2-0.2-0.6,0-0.9c0.1-0.2,0.2-0.5,0.3-0.8c0.1-0.6-0.3-1.2-0.1-1.8
				c0.1-0.5-0.1-1.1-0.2-1.6c0.3-0.2,0.4-0.5,0.1-0.7c0.2-0.2,0.3,0.1,0.4,0.2c0.3-0.3,0.4-0.7,0.5-1.1c0.1,0,0.3,0.1,0.4,0.1
				c0.2-0.4,0-0.9,0.1-1.3c0.1-0.2-0.1-0.5-0.3-0.3c-0.4,0.2,0,0.9-0.4,0.7c0.1-0.5,0.2-0.9,0.3-1.4c-0.1,0-0.4,0.2-0.4,0
				c-0.1-0.3,0.1-0.4,0.3-0.4c0-0.8,0-1.6-0.1-2.4c0.1-0.2,0.5-0.3,0.4-0.6c0-0.2-0.2-0.3-0.3-0.2c-0.1,0.2,0.1,0.6-0.2,0.5
				c-0.1-0.7-0.2-1.3-0.2-2c0.4-0.1,0.7,0.3,0.5,0.6c0.6,0-0.1-1.2,0.4-1.5c0.1-0.3,0.3-0.6,0.6-0.8c-0.1-0.4,0.1-0.9-0.1-1.3
				c-0.5,0.2-0.1,0.7-0.4,1c-0.2,0.2,0,0.8-0.3,0.9c0-0.6-0.1-1.3,0.2-1.8c0.1-0.1,0.1-0.4,0-0.5c-0.3-0.3-0.5-0.8-0.1-1.1
				c0.4,0.1,0.4-0.5,0.4-0.8c-0.3,0.2-0.6,0.4-0.9,0.3c0-0.9,0.5-1.6,0.5-2.4c0.1-0.3-0.3-0.5-0.2-0.8c0.5,0.1,0.4-0.5,0.6-0.9
				c0.5,0,0.8,0.6,0.8,1.1c0.1-0.1,0.3-0.3,0.4-0.2c0.5,0.5,1.1,0.8,1.5,1.3c0,0.1,0,0.2,0,0.3c0.1-0.1,0.4-0.1,0.6,0.1
				c0.6,0.5,1.2,1,1.8,1.4c1,0.5,1.7,1.4,2.6,2c1.2,1.1,2.6,1.9,3.8,3c0.7,0.3,1.1,0.9,1.7,1.2c0.3,0.1,0.4,0.5,0.7,0.4
				c-0.1-0.2,0.3-0.4,0.2-0.1c-0.2,0.3,0.2,0.6,0.5,0.3c0.1,0.3,0.2,0.7,0.6,0.8c0.4,0.2,0.5,0.7,1,0.7c-0.1-0.2-0.8-0.6-0.2-0.6
				c-0.6-0.7-1.6-1.1-2.1-1.9c0.3,0,0.5,0.2,0.6,0.4c0.7,0.5,1.5,0.9,2.2,1.4c0.5,0.5,1,0.9,1.6,1.3c0.1,0,0.3-0.2,0.3,0
				c-0.1,0.2,0.1,0.2,0.2,0.3c1.4,1.2,2.9,2.2,4.3,3.3c1.3,0.8,2.3,1.9,3.6,2.6c1.1,0.8,2.2,1.6,3.3,2.4c1.2,1,2.6,1.8,3.8,2.8
				c1.8,1.2,3.7,2.4,5.7,3.4c0.1,0.1,0.2,0.1,0.4,0.1c0.1-0.6,1.1,0.1,0.8,0.6c0.5,0.2,0.2-0.4,0.3-0.7
				C240.8,139.2,240.7,138.6,240.3,138.5z M237.5,135.3c0.2,0.5-0.4,0.1-0.7,0.2c0-0.1,0-0.2-0.1-0.5
				C237,135,237.3,135.1,237.5,135.3z M219.5,117.5c0.4,0.1,0.7,0.5,1.2,0.7c0.2,0.1,0.4,0.2,0.5,0.4c-0.1,0.2-0.1,0.4,0,0.7
				c-0.1,0-0.3-0.1-0.4-0.1C220.7,118.4,219.4,118.4,219.5,117.5z M218.8,117.7c-0.2,0-0.4-0.1-0.3-0.3c0.1-0.3-0.1-0.5-0.2-0.7
				C218.9,116.6,218.8,117.3,218.8,117.7z M216.4,115.4c0.3-0.1,0.4,0.2,0.6,0.3c0.4,0.1,0.7,0.3,1,0.7c0.2,0.4-0.5,0.2-0.8,0.3
				c-0.2-0.2-0.1-0.5-0.3-0.8C216.7,115.8,216.3,115.8,216.4,115.4z M216.3,115.4c-0.2,0-0.4,0-0.4-0.2c-0.3,0.2-0.4-0.1-0.4-0.4
				C215.9,114.9,216.1,115.1,216.3,115.4z M212.1,114.5c-0.4,0.1-0.6-0.2-0.7-0.6C211.6,114,211.9,114.3,212.1,114.5z M226,85.4
				c-0.1-0.3,0-0.6,0-0.8c0.1,0,0.2,0,0.3,0.1c-0.1,0.5,0.1,0.9,0,1.4c-0.1,0.2-0.2,0.5-0.5,0.5c0-0.2,0.1-0.4,0.1-0.6
				c-0.6,0.1-0.2,0.8-0.2,1.2c-0.5-0.1-0.5-0.8-0.5-1.2C225.6,85.9,226.2,85.8,226,85.4z M225.4,83.1c0.2-0.1,0,0.5,0.1,0.7
				C225.1,83.7,225.2,83.3,225.4,83.1z M222.5,89.2h-0.1c0-0.4,0-1.3,0-1.8h0.1C222.5,87.9,222.5,88.8,222.5,89.2z M223.3,92.9
				c-0.2,0.2-0.3,0-0.5-0.2c0.2-0.2,0.2-0.6,0.4-0.8c0.5,0,0.6,0.6,0.8,0.9C223.7,92.8,223.5,92.7,223.3,92.9z M224.3,81.8
				c0.5-0.1,0.2,0.7,0.5,1c0,0.3,0,0.6,0.1,0.9c-0.3,0-0.7-0.4-0.5-0.8c0.2-0.4,0.1-0.6-0.3-0.6C224.2,82.1,224.2,81.9,224.3,81.8z
				 M223.7,85.7c0.5-0.2-0.2,0.7,0.3,0.7c0,0.4-0.2,0.8,0,1.3c-0.1,0.3,0,0.8-0.4,0.7c0-0.6-0.2-1.2,0.2-1.7
				C223.7,86.4,223.4,85.9,223.7,85.7z M223.4,81.5c0.4-0.1,0.3,0.4,0,0.4C223.2,81.8,223.2,81.6,223.4,81.5z M222.7,83.2
				c0.3-0.2,0.5,0.4,0.5,0.6c-0.4,0.4,0.3,0.8-0.1,1.2c-0.6-0.3-0.5-1-0.6-1.5C222.5,83.3,222.6,83.3,222.7,83.2z M222.2,84.4
				c0.3,0.2,0.5,1,0,1.2C222.1,85.2,222,84.7,222.2,84.4z M222.4,86.7c-0.4,0-0.3-0.6-0.4-0.8C222.3,86,222.3,86.4,222.4,86.7z
				 M221.6,83.4c0.4,0.1,0.2,0.8-0.1,0.7C221.5,83.9,221.5,83.6,221.6,83.4z M221.5,84.3c0.3-0.1,0.3,0.3,0.3,0.5
				c0,0.4-0.1,0.8-0.1,1.2C221.1,85.7,221.7,84.9,221.5,84.3z M220.8,84.3c0.2-0.1,0.1,0.8-0.3,0.7
				C220.6,84.7,220.8,84.5,220.8,84.3z M220,97.8c0.3-0.1,0.4,0.4,0.2,0.5C219.2,98.7,219.7,98,220,97.8z M219.4,98.7
				c0.3,0.1,0.6-0.1,0.8-0.2c0.4-0.2,0.4,0.2,0.2,0.4c-0.4,0.2-0.7,0.5-1.2,0.5C219.3,99.2,219.3,99,219.4,98.7z M212.4,104
				c-0.1,0.1-0.5,0.1-0.4-0.2C212.1,103.7,212.5,103.8,212.4,104z M207.6,87.9c0.2-0.1,0,0.2,0,0.3c-0.2,0.3-0.2,0.7-0.5,0.8
				C207,88.7,207.4,88.3,207.6,87.9z M204.6,92.7c0.2,0,0.1,0.6-0.1,0.4C204.4,93,204.5,92.7,204.6,92.7z M203.3,103.9
				c0-0.2,0.1-0.3,0.1-0.5C203.9,103.3,203.7,104.1,203.3,103.9z M203.4,102.5c0.2,0,0.5,0,0.5,0.2
				C203.7,103,203.4,102.8,203.4,102.5z M205.3,104c0.3,0.1,0.6-0.1,0.8,0.1c-0.1,0.1-0.2,0.5-0.4,0.4
				C205.5,104.4,205.3,104.3,205.3,104z M205.7,110.8c0.3,0.1,0.5,0.4,0.7,0.6C206,111.4,205.8,111,205.7,110.8z M205.1,101.5
				c-0.1-0.1,0-0.3,0-0.4c-0.1-0.1-0.2-0.1-0.3-0.2c0.1-0.5,0.2-0.9,0.2-1.4c-0.3,0.4-0.4,0.9-0.4,1.4c-0.2,0.2-0.1,0.4-0.1,0.6
				c-0.1,0.1-0.3,0.3-0.4,0.4c-0.4,0.4-0.9-0.1-1.4-0.2c-0.1-0.3-0.8-0.7-0.4,0.3c0,0.2-0.3,0.1-0.5,0.1c0.1-0.3-0.3-1.1,0.3-1
				c0-0.5,0.2-1,0.1-1.5c0-0.2,0.1-0.5,0.2-0.6c0.1,0.1-0.1,0.5,0.1,0.5c0-0.2,0-0.5,0.2-0.6c0,0.1,0,0.3,0,0.4
				c0.3-0.2,0.3-0.5,0.2-0.8c0.1-0.2,0.2-0.5,0.4-0.6c-0.3-0.3-0.1-0.7-0.2-1.1c0.4-0.5,0.4-1.3,0.5-1.9c0.2-0.2,0.8-0.1,0.5-0.7
				c0.1-0.2,0.2-0.4,0.2-0.6c0.1,0,0.3,0,0.4-0.2c0.1-0.5,0.3-0.9,0.5-1.4c0.4,0,0.8-0.3,0.7-0.8c0.2-0.4,0.3-0.8,0.5-1.3
				c0.1-0.2,0.1-0.5,0.4-0.4c0,0.7-0.4,1.2-0.5,1.9c0.2,1-0.8,1.8-0.6,2.9c0,0.4-0.3,0.8-0.5,1.2c0,0.4,0.4,0.9,0.1,1.3
				c-0.2,0.3-0.1,0.6-0.1,1c0.2-0.1,0.2-0.4,0.3-0.5c-0.1,0.8,0.1,1.7-0.4,2.3c0.1,0.5-0.6,0.9-0.1,1.4c0.5,0,0.7-0.7,0.5-1.2
				c0.4-0.4,0-1,0.3-1.4c0.4-0.7-0.4-1.7,0.2-2.3c0.3-0.3,0.4-0.9,0.9-0.9c0-0.4,0.3-0.7,0.2-1.1c0.4-0.2,0.7-0.6,0.6-1.1
				c0.6-0.4,0.7-1.2,1.2-1.7c0.4-0.3,0.5-0.7,0.7-1.1c0.1-0.6,0.5-1.1,0.7-1.6c0.3-0.8,0.9-1.4,1.6-1.8c0.1-0.3,0.2-0.6,0.5-0.8
				c-0.2-0.3-0.3-0.7-0.3-1c0.3-0.3,0.7-0.5,0.9-0.9c-0.4,0.1-0.8,0.2-1,0.5c-0.3,0.3-0.9,0.4-1.2,0c-0.1-0.3,0.1-0.7,0.1-1
				c0.5-0.2,1-0.4,1.4-0.7c0.9-0.1,2-0.2,2.8,0.4c1.2,1,1.9,2.5,2.4,3.9c0.4,2.1,1.1,4.3,0.2,6.4c-0.3,0.8-1.1,1.2-1.8,1.6
				c-0.1,0.2-0.1,0.6-0.4,0.7c-0.4,0.2-0.7,0.7-1.2,0.8c-0.4,0.4-0.9,0.3-1.4,0.3c-0.2,0.2-0.4,0.5-0.6,0.6
				c-0.5-0.2-0.7,0.4-0.9,0.6c-0.3,0.4-0.6,0.7-0.7,1.2c-0.1,0.2-0.2,0.2-0.4,0.2c-0.7,0.1-1.3,0.7-2,0.8c-0.2,0.5-0.8,0.8-1.4,0.8
				C206.2,100.9,205.7,101.3,205.1,101.5z M209,113.5c-0.7-0.4-1.3-0.9-2-1.4c0-0.1,0-0.2,0-0.2c0.6,0.1,0.9,0.9,1.5,0.9
				c0.2,0.5,1,0.6,1.1,1.2C209.2,113.9,209.2,113.6,209,113.5z M209.7,113.2c-0.2-0.2-0.2-0.4-0.3-0.7c-0.4-0.3-0.8-0.5-1.2-0.8
				c-0.3-0.3-0.8-0.4-1-0.9c0.3,0,0.6,0.3,0.8,0.5c0.9,0.7,1.8,1.5,2.8,2c0.2,0.1,0.3,0.4,0.4,0.6c-0.4-0.2-0.9-0.4-1.1-0.8
				C209.9,113.1,209.8,113.1,209.7,113.2z M212.6,120.1c0.3,0.2,0.9,0.3,1,0.8C213.1,120.8,212.7,120.4,212.6,120.1z M218.8,123.6
				c-0.3-0.1-0.5-0.4-0.8-0.5c0,0,0-0.2,0-0.2C218.2,123.1,218.9,123.2,218.8,123.6z M224.6,128c0.3,0,0.6,0.1,0.7,0.4
				C225.1,128.4,224.6,128.4,224.6,128z M234.4,133.6c0.7-0.2,0.9,0.5,1.5,0.6c0.2,0,0.5,0.4,0.2,0.5c-0.3-0.1-0.8,0.1-0.9-0.3
				c-0.1-0.3-0.4,0.3-0.4,0C235,133.9,234.2,134.1,234.4,133.6z M234.7,135.2c0.3-0.1,0.5,0.1,0.6,0.3
				C235.1,135.8,234.6,135.6,234.7,135.2z"/>
			<path class="st0" d="M227,89.4c0-0.2,0.1-0.4,0.3-0.6c-0.1-0.1-0.1-0.5-0.3-0.4c-0.1,0.2-0.2,0.3-0.4,0.2c-0.3,0.2-0.3,0.7-0.4,1
				c0.2-0.2,0.3-0.4,0.4-0.7C226.9,88.9,226.7,89.4,227,89.4z"/>
			<path class="st0" d="M227.4,91c0-0.4,0-1.1-0.4-1.3c0,0.2,0,0.4,0.1,0.6c-0.1,0.7,0.3,1.5-0.2,2c-0.1-0.4-0.1-0.7-0.2-1.1
				c-0.4,0.1-0.1,1.1-0.4,1c-0.5-0.3,0.2-1,0-1.4c-0.4,0.6-0.5,1.4-0.5,2.1c0.2,0,0.7,0,0.5,0.3c-0.3,0.2-0.4,0.6-0.4,1
				c0.3-0.2,0.5-0.4,0.7-0.6c0.2-0.2,0-0.6,0.2-0.8c0.3,0,0.3,0.3,0.5,0.5c-0.1,0.3-0.4,0.6-0.4,0.9c-0.4,0.2-0.5,0.6-0.4,1
				c0.2-0.2,0.3-0.5,0.5-0.7c0.1,0.1,0.3,0.2,0.4,0.2c0-0.8,0.1-1.5,0-2.3C227.8,92.2,227.8,91.4,227.4,91z"/>
			<path class="st0" d="M225,94.2c0.3,0.1,0.6,0,0.7-0.4c-0.1-0.2-0.1-0.4-0.3-0.4c0,0.1,0.1,0.2,0.1,0.3
				C225.2,93.8,224.9,93.9,225,94.2z"/>
			<path class="st0" d="M225.5,97.9c0.4,0.2,0.6-0.4,1-0.3c0.3-0.5,0.5-1.1,0.7-1.6c-0.1,0-0.2,0-0.2,0c-0.2,0.2-0.1,0.7-0.5,0.8
				c-0.4,0-0.1,0.4-0.1,0.6c-0.1-0.1-0.2-0.2-0.3-0.2c-0.2,0.5-0.7,0.6-1.2,0.6c0,0.5-1,0.5-0.8,1.1c0.3,0.5-0.2,0.6-0.4,0.9
				c-0.3-0.1-0.6,0.2-0.6,0.5c0.4-0.2,0.8-0.5,1.1-0.8c0-0.3,0.1-1.1,0.6-0.8C225,98.3,225.4,98.3,225.5,97.9z"/>
			<path class="st0" d="M205.4,98.4c0-0.2,0.3-0.7-0.1-0.6C205.1,98,205.1,98.6,205.4,98.4z"/>
			<path class="st0" d="M205.1,98.8c-0.1,0.1-0.3,0.5,0,0.4C205.2,99.1,205.4,98.7,205.1,98.8z"/>
			<path class="st0" d="M225.2,99.2c-0.1,0-0.3,0-0.4,0c0,0.2-0.5,0.6-0.1,0.7C224.8,99.5,225.2,99.5,225.2,99.2z"/>
			<path class="st0" d="M223.6,101.4c0.2,0,0.1-0.4,0.3-0.3c0.3,0.1,0.6-0.1,0.8-0.2c-0.2,0-0.4-0.2-0.6-0.2
				C223.9,100.8,223.3,101,223.6,101.4z"/>
			<path class="st0" d="M222.3,102.6c0.3-0.3,0.7-0.4,1-0.6c0.2-0.2,0.2-0.9-0.2-0.9c-0.3,0.4-0.8,0.9-1.3,0.7
				c0,0.4-0.3,0.6-0.7,0.6c-0.3,0.2-0.5,0.6-0.9,0.6c-0.5,0-0.7,0.5-1,0.8c-0.1,0-0.3-0.1-0.4,0c0,0.2,0.2,0.5,0.4,0.3
				c0.5-0.4,1-0.7,1.6-0.9c0.7,0.1,0-0.6,0.4-0.5c0.2,0.1,0.2-0.4,0.5-0.3c-0.1,0.2-0.2,0.3-0.2,0.5
				C221.9,102.9,222.1,102.8,222.3,102.6z"/>
			<path class="st0" d="M217.4,104.4c-0.1,0-0.2,0.1-0.3,0.1c-0.6,0.6,0.3,0.8,0.3,0.4c0.1,0,0.3,0.1,0.4,0
				C217.8,104.6,217.7,104.2,217.4,104.4z"/>
			<path class="st0" d="M216.4,104.8c-0.3,0.1-0.6,0.4-0.2,0.7c0.3,0,0.5-0.2,0.7-0.4C216.7,104.9,216.6,104.6,216.4,104.8z"/>
			<path class="st0" d="M211.3,109.8c0.1-0.3-0.3-0.4-0.5-0.5C210.8,109.6,211,109.9,211.3,109.8z"/>
			<path class="st0" d="M211.4,109.8c0.3,0.4,0.6,0.7,1.1,0.8C212.2,110.3,211.8,110,211.4,109.8z"/>
			<path class="st0" d="M200.4,113c0.3-0.2,0.1-0.5-0.2-0.5C200.1,112.7,200.1,113,200.4,113z"/>
			<path class="st0" d="M200.7,114.3c-0.1-0.2,0.1-1.1-0.2-0.8c0,0-0.1,0.1-0.1,0.1c0,0.5,0.2,1,0,1.5
				C200.6,115,200.6,114.6,200.7,114.3z"/>
			<path class="st0" d="M200.1,114.6c-0.1,0.1-0.1,0.2-0.2,0.3C199.9,115.5,200.5,114.6,200.1,114.6z"/>
			<path class="st0" d="M203,115c0,0.4-0.3,0.6-0.3,0.9C203,115.8,203.3,114.9,203,115z"/>
			<path class="st0" d="M202.4,119.6c0,0.8-0.5,1.5-0.4,2.3c0,0.3-0.3,1,0.2,1c-0.2,0.4-0.3,1-0.6,1.4c0.1,0.3,0.1,0.6-0.1,0.8
				c-0.2,0.2,0.2,0.5,0,0.7c-0.2,0.2,0,0.6,0,0.9c0.4,0,0.5-0.4,0.5-0.7c-0.2-0.5,0.2-0.8,0.3-1.3c0.2-0.8,0.3-1.7-0.2-2.4
				c-0.1-0.9,0.3-1.7,0.4-2.6C202.5,119.7,202.4,119.6,202.4,119.6z"/>
			<path class="st0" d="M200.7,121.4c-0.1-0.4,0.2-1-0.2-1.2C200.6,120.5,200.3,121.2,200.7,121.4z"/>
			<path class="st0" d="M219.9,120.6c-0.3,0.4,0,0.9,0.5,0.9c0-0.2-0.2-0.3-0.2-0.5c0.3,0,0.6,0.3,0.8,0.5
				C221.1,121,220.3,120.7,219.9,120.6z"/>
			<path class="st0" d="M200.7,121.5c-0.2,0.3-0.5,0.5-0.3,0.9c0.3,0,0-0.5,0.3-0.5C200.7,121.8,200.8,121.3,200.7,121.5z"/>
			<path class="st0" d="M221.4,123.8c0.1,0.3,0.3,0.7,0.6,0.8c0.2-0.2,0.5-0.3,0.6-0.6c-0.1-0.2-0.4-0.1-0.6-0.2
				c0.2-0.4-0.1-0.7-0.5-0.7c0,0.1,0,0.3,0,0.4c-0.3,0-0.1-0.6-0.3-0.5c-0.1,0.2-0.3,0.1-0.4,0.1c-0.1,0.3,0.4,0.5,0.1,0.8
				C221.1,123.9,221.2,123.9,221.4,123.8z"/>
			<path class="st0" d="M228.2,123c-0.1,0.1-0.2,0.2-0.1,0.3c0.2,0,0.3,0,0.5,0C228.5,123.1,228.4,122.9,228.2,123z"/>
			<path class="st0" d="M199.9,123.1c0,0.4,0,0.8,0.1,1.2c0,0.2-0.3,0.3-0.2,0.5c0.2,0.4-0.2,0.9,0,1.3c0.4-0.3,0.5-0.8,0.4-1.3
				c0.3-0.5,0-1,0.1-1.5C200.4,123.1,200.1,123.1,199.9,123.1z"/>
			<path class="st0" d="M227,124.1c-0.3-0.2-0.5-0.5-0.8-0.6c0.1,0.2,0,0.5,0,0.7c0.2,0,0.4,0,0.6-0.1c0.3,0.2,0.6,0.5,1,0.5
				C227.8,124.2,227.2,124.3,227,124.1z"/>
			<path class="st0" d="M217.6,124.1c-0.2-0.1-0.4-0.2-0.6-0.3C216.6,124.8,217.4,124.4,217.6,124.1z"/>
			<path class="st0" d="M224.3,124.2c0-0.2-0.3-0.2-0.4-0.1C223.8,124.3,224.3,124.4,224.3,124.2z"/>
			<path class="st0" d="M222.2,126c0.1,0.3,0.4,0.3,0.7,0.4c0-0.2-0.1-0.4-0.2-0.5c0.2-0.5-0.8-1.2-0.9-0.4c-0.6-0.1,0.2-1-0.5-0.8
				c0,0.3,0,0.6,0.1,0.9C221.6,125.7,222,125.6,222.2,126z"/>
			<path class="st0" d="M223.7,124.7c-0.4,0.2-0.8-0.1-1.2-0.1c0,0.3,0.4,0.3,0.5,0.6c0.1,0.2,0,0.4,0,0.6
				C223.4,125.6,223.5,125,223.7,124.7z"/>
			<path class="st0" d="M231.7,125.6c0.3,0,0-0.5-0.2-0.4C231.4,125.5,231.4,125.7,231.7,125.6z"/>
			<path class="st0" d="M229.3,126.1c0.3-0.1,0.5,0.2,0.8,0.2c0.1-0.4-0.4-0.2-0.6-0.5c-0.2-0.1,0.2-0.4-0.1-0.4
				c-0.1,0-0.4,0.1-0.6,0.1C228.5,126,228.9,126.3,229.3,126.1z"/>
			<path class="st0" d="M224.3,126.7c0.1-0.3,0.4-1-0.1-0.8C224.1,126.1,223.7,126.7,224.3,126.7z"/>
			<path class="st0" d="M220,126c0.2,0.2,0.4,0.6,0.7,0.6C220.7,126.2,220.2,126.1,220,126z"/>
			<path class="st0" d="M225.8,127.2c0.1-0.4-0.4-0.6-0.7-0.7c-0.2,0.6,0.2,1.3,0.8,1.3c0-0.2-0.1-0.3-0.1-0.5
				c-0.2,0-0.6,0.1-0.4-0.3C225.3,126.7,225.7,127.1,225.8,127.2z"/>
			<path class="st0" d="M202,126.6c0,0.1-0.2,0.3-0.1,0.4C202.3,127.2,202.4,126.3,202,126.6z"/>
			<path class="st0" d="M230.9,127c-0.1-0.2-0.4-0.3-0.6-0.5C230.3,126.9,230.6,127.1,230.9,127z"/>
			<path class="st0" d="M220.8,126.7c0.3,0.4,0.8,0.8,1.3,1C221.8,127.2,221.3,126.8,220.8,126.7z"/>
			<path class="st0" d="M234.4,127.3c-0.1-0.2-0.2-0.4-0.5-0.4C233.8,127.3,234.1,127.3,234.4,127.3z"/>
			<path class="st0" d="M226.5,128.2c0.1-0.4,0.2-1.2-0.4-1.1c0.1,0.3,0.1,0.5,0,0.8C226.2,128,226.3,128.2,226.5,128.2z"/>
			<path class="st0" d="M227.5,128.3c0-0.3-0.3-0.6-0.6-0.6C226.9,128,227.1,128.4,227.5,128.3z"/>
			<path class="st0" d="M202.1,129.3c-0.5,0-0.2,0.9-0.6,0.8c-0.3-0.8,0.6-1.2,0.5-2c-0.1,0-0.2,0-0.2,0c0,0.6-0.3,1.1-0.6,1.6
				c-0.4,0.4,0.4,0.6,0.1,1c-0.2,0.1-0.3,0.3-0.3,0.5c0.3,0.7-0.2,1.3-0.4,1.9c-0.1,0.6-0.2,1.3,0.2,1.8c0.2,0.5,1.3,0.5,1.1-0.2
				c-0.1-0.3,0.1-0.5,0-0.7c-0.2-0.5,0.3-1,0-1.4c-0.6,0.2-0.1,1.1-0.7,1.3c-0.2-0.8,0.1-1.6,0.4-2.3c-0.1-0.6-0.1-1.3,0.3-1.9
				C202.2,129.6,202.4,129.2,202.1,129.3z M201.8,133.9c0,0.1,0,0.3,0,0.4c-0.1-0.1-0.2-0.2-0.3-0.2c0,0.2-0.1,0.6-0.4,0.3
				c0.1-0.2,0.2-0.3,0.3-0.5C201.5,134,201.6,134,201.8,133.9z"/>
			<path class="st0" d="M223.4,128.6c-0.3-0.1-0.3-0.5-0.6-0.5c0.2,0.2,0.3,0.5,0.1,0.7c0.5-0.3,1,0.4,1.4,0.6
				C224.4,128.9,223.7,128.8,223.4,128.6z"/>
			<path class="st0" d="M231.6,129.8c0.2,0,0.1-0.5-0.1-0.4C231.4,129.4,231.4,129.7,231.6,129.8z"/>
			<path class="st0" d="M229,130c0.1,0.2,0.2,0.6,0.5,0.5c0.4,0.1,0.3-0.8,0.7-0.5c0.1-0.5-0.5-0.3-0.8-0.5
				C229.2,129.6,228.9,129.7,229,130z"/>
			<path class="st0" d="M225,130.4c0-0.1,0-0.3,0-0.4c0.3,0.1,0.5,0.3,0.8,0.5c0.2,0.3-0.2,0.1-0.3,0.1c0,0.2,0.3,0.3,0.4,0.3
				c0-0.2,0.2-0.2,0.4-0.3c-0.5-0.4-1.1-0.9-1.7-1.2C224.7,129.8,224.7,130.2,225,130.4z"/>
			<path class="st0" d="M239,130.7c0-0.3-0.1-0.8-0.5-0.7C238.5,130.3,238.5,130.9,239,130.7z"/>
			<path class="st0" d="M236.6,131.1c0.2,0.1,0.2,0.4,0.5,0.4c0.1-0.3-0.2-0.6-0.5-0.7c-0.4-0.1-0.7-0.5-1.2-0.6
				C235.8,130.5,236.1,130.9,236.6,131.1z"/>
			<path class="st0" d="M230.6,130.5c-0.1,0.1-0.3,0.2-0.4,0.2c0.1,0.2,0.4,0.5,0.6,0.2C231,130.8,230.8,130.4,230.6,130.5z"/>
			<path class="st0" d="M240.6,131.5c-0.2-0.4-0.7-0.6-1.1-0.8c-0.2,0.6,0.5,0.7,0.9,1c0.3,0.1,0.4,0.6,0.8,0.5
				C241.5,131.6,240.8,131.8,240.6,131.5z"/>
			<path class="st0" d="M226.4,130.8c0.1,0.3,0.3,0.4,0.1,0.7c0.2,0,0.3-0.1,0.3-0.2c0.2,0.1,0.1,0.3,0.1,0.4c0.1,0.3,0.3-0.2,0.5,0
				c0.1,0,0.2,0,0.3,0.1C227.4,131.3,226.9,131,226.4,130.8z"/>
			<path class="st0" d="M234.2,131.2c-0.3,0.1,0,0.4,0.2,0.4C234.5,131.5,234.4,131.2,234.2,131.2z"/>
			<path class="st0" d="M232.2,131.8c0-0.2-0.2-0.4-0.3-0.5C231.5,131.6,231.9,131.9,232.2,131.8z"/>
			<path class="st0" d="M228.9,132.6c-0.4-0.2-0.5-0.8-1.1-0.7c0.1,0.2,0.3,0.4,0.6,0.4c0,0.2-0.1,0.3-0.2,0.4
				c0.1,0.1,0.3,0.2,0.5,0.2c0.2,0,0.5-0.2,0.6,0.1c-0.5,0,0.2,0.5,0.3,0.6C229.5,133.3,229.4,132.7,228.9,132.6z"/>
			<path class="st0" d="M238.4,132c-0.1,0-0.2,0-0.3,0c-0.1,0.1-0.2,0.2-0.2,0.3C238.1,132.3,238.4,132.3,238.4,132z"/>
			<path class="st0" d="M236.4,132.6c-0.4,0.3,0.2,0.6,0.4,0.7c0.2,0.3,0.5-0.3,0.2-0.3C236.7,133,236.7,132.5,236.4,132.6z"/>
			<path class="st0" d="M229.9,133.2c0.1,0.9,1.5,0.8,1.4,1.8c0.3-0.1,0.5-0.1,0.8,0C231.6,134.2,230.6,133.9,229.9,133.2z"/>
			<path class="st0" d="M199.1,133.7c-0.1,0-0.2,0-0.2,0c0.1,0.4,0,1,0.5,1.2C199.3,134.5,198.9,134.1,199.1,133.7z"/>
			<path class="st0" d="M267,133.8c0.1,0.3,0,0.9,0.3,0.9C267.5,134.4,267.9,133.4,267,133.8z"/>
			<path class="st0" d="M266.2,134.8c0.1,0.1,0.2,0.3,0.4,0.3c0-0.3,0.1-0.6,0.1-1l-0.1,0C266.4,134.3,266.3,134.6,266.2,134.8z"/>
			<path class="st0" d="M265.1,135.5c-0.1,0.2-0.1,0.4-0.3,0.6c-0.4,0-0.9,0.1-0.6,0.8c0.2-0.2,0.2-0.5,0.4-0.6
				c0.1,0.1,0.3,0.2,0.4,0.2C265.3,136.2,265.5,135.6,265.1,135.5z"/>
			<path class="st0" d="M233.6,136.5c0.1-0.2,0.2-0.3,0.3-0.4c-0.1-0.1-0.2-0.3-0.4-0.3C233.6,136,233.3,136.4,233.6,136.5z"/>
			<path class="st0" d="M240.1,136.8c-0.2-0.3-0.5-0.7-1-0.6C239.2,136.6,239.8,136.7,240.1,136.8z"/>
			<path class="st0" d="M236.1,137.5c-0.6-0.4-1.2-0.8-1.8-1.2c0.1,0.4,0.6,0.5,0.8,0.9c0.6,0.1,0.9,0.8,1.5,0.8
				C236.6,137.7,236.3,137.6,236.1,137.5z"/>
			<path class="st0" d="M263.4,136.4c-0.6,0.8-1.6,1-2.4,1.5c-0.4,0.1-0.8,0.3-1,0.6c-0.1,0.5-0.4,0.2-0.6,0.3
				c-0.2,0.1-0.2,0.3-0.4,0.5c-0.2,0.1-0.4,0.2-0.7,0.3c-0.6,0.1-0.9,0.8-1.5,0.8c-0.4-0.1-0.8,0.1-1.2,0.1c-0.3,0.3-0.8,0-1.1,0.2
				c-0.3,0.1-0.5,0.2-0.7,0.5c-0.4,0-0.7-0.5-1-0.1c0-0.5-0.5-0.1-0.4,0.3c-0.2-0.3-0.4-0.5-0.7-0.6c-0.5,0.1-0.9,0.3-1.4,0.3
				c0.1,0.1,0.3,0.1,0.3,0.3c-0.4,0-0.9,0.3-1.3,0c-0.1-0.2-0.1-0.5-0.3-0.7c-0.3-0.1-0.6-0.1-0.9-0.1c0,0.2,0.2,0.3,0.2,0.5
				c-0.2,0.2-0.1,0.5-0.2,0.8c0.2,0.1,0.5,0.2,0.8,0c0.2-0.2,0.3,0.2,0.2,0.4c-0.2,0.3-0.5,0.1-0.8,0c0,0.2,0,0.3,0,0.5
				c-0.2,0-0.6,0-0.6-0.3c0.1,0,0.3,0,0.4,0c0-0.4-0.5-0.7-0.3-1.1c-0.4-0.2-1.1-0.4-1.3,0.2c-0.4-0.1-0.9,0-1.2-0.2
				c0.2-0.4-0.2-0.7-0.6-0.5c-0.7-0.5-1.5-0.6-2.3-0.8c0,0.1,0.1,0.2,0.1,0.4c-0.2-0.1-0.2-0.3-0.3-0.5c-0.3-0.1-0.9-0.7-0.5,0.3
				c1.2,0.6,2.4,1,3.7,1.3c0.3,0.1,0.4,0.3,0.4,0.5c0.1,0,0.3-0.1,0.4-0.1c0.1,0.4,0.7,0.2,1,0.3c0-0.3-0.3-0.3-0.4-0.5
				c0.1,0,0.3,0,0.4,0c0-0.3-0.3-0.2-0.4-0.5c0.2,0,0.7,0,0.6,0.4c0,0.4,0.1,0.8-0.2,1.1c0.4,0,0.9,0.2,1.3,0.2
				c0.1-0.1,0.1-0.2,0.2-0.3c0.1,0.3,0.4,0.4,0.7,0.3c-0.1-0.2-0.4-0.2-0.4-0.5c0.2,0,0.6-0.1,0.6,0.2c0,0.4,0.5,0.2,0.6,0
				c0.3,0.1,0.9,0.4,0.8-0.2c0.4,0-0.3,1,0.7,0.4c-0.1-0.1-0.2-0.2-0.2-0.4c0.4,0.1,0.8,0.4,1.3,0.2c0.1-0.2,0.3-0.5,0.6-0.5
				c0,0.1,0,0.3,0,0.4c1.3-0.2,2.5-0.6,3.8-1c0.7-0.3,1.4-0.7,2.1-1c0.8-0.6,1.6-1.1,2.4-1.6c0.1-0.2-0.2-0.3-0.2-0.4
				c0.2,0,0.4,0.1,0.6,0.1c0.1-0.2,0.1-0.4,0.3-0.6c0.2,0,0.4,0.1,0.7,0.1c0.2-0.5,0.6-0.8,1.1-1.1c-0.1-0.1-0.2-0.2-0.2-0.3
				C263.7,136.5,264.5,136.1,263.4,136.4z M252.4,141.5c-0.2-0.1,0.1-0.2,0.2-0.2c0.2,0,0.5,0,0.7,0
				C253.3,141.7,252.7,141.8,252.4,141.5z M254.9,141.5c-0.1-0.1-0.2-0.3,0-0.4C255.2,141,255.2,141.5,254.9,141.5z"/>
			<path class="st0" d="M241.2,137.1c-0.2-0.1-0.3-0.3-0.4-0.3C240.3,137,241.1,137.6,241.2,137.1z"/>
			<path class="st0" d="M239.4,137.4c0.2,0,0.1-0.3,0.1-0.5c-0.2,0-0.3,0-0.5,0C239.1,137.1,239.1,137.4,239.4,137.4z"/>
			<path class="st0" d="M242.6,138c-0.1-0.4-0.6-0.5-0.9-0.4C241.5,138.2,242.2,137.9,242.6,138z"/>
			<path class="st0" d="M236.6,137.9c0.2,0.3,0.6,0.5,0.8,0.7C237.6,138.2,236.9,138.1,236.6,137.9z"/>
			<path class="st0" d="M237.5,138.5c0.4,0.4,0.9,0.6,1.4,0.8C238.6,138.9,238.1,138.6,237.5,138.5z"/>
			<path class="st0" d="M263.5,138.6c-0.3,0.2-0.6,0.4-1,0.3c0,0.1,0,0.2,0,0.2c0.5,0.1,0.9-0.2,1.3-0.4
				C263.9,138.5,263.7,138.5,263.5,138.6z"/>
			<path class="st0" d="M244.3,139.8c0.1-0.5-0.4-0.6-0.8-0.7c0,0.2,0.1,0.4,0.1,0.6C243.9,139.7,244.1,139.8,244.3,139.8z"/>
			<path class="st0" d="M245.5,139.8c0-0.2-0.2-0.3-0.3-0.3C244.8,139.7,245.3,140.1,245.5,139.8z"/>
			<path class="st0" d="M256,139.7c-0.3,0-0.4,0.3-0.4,0.6C255.9,140.3,256.2,139.6,256,139.7z"/>
			<path class="st0" d="M246.4,140.1c-0.1-0.2-0.4-0.2-0.6-0.2C245.6,140.2,246.1,140,246.4,140.1z"/>
			<path class="st0" d="M247.7,140.5c-0.3-0.2-0.6-0.2-0.9-0.2c-0.1,0.1-0.2,0.2-0.1,0.3C246.9,140.4,247.6,141,247.7,140.5z"/>
			<path class="st0" d="M243.8,141.6c0.1,0.3,0.5,0.3,0.7,0.4C244.4,141.7,244,141.7,243.8,141.6z"/>
			<path class="st0" d="M245.5,142c-0.1,0-0.3,0.4,0,0.3C245.8,142.5,245.9,141.8,245.5,142z"/>
			<path class="st0" d="M246.1,142.2c-0.1,0.3,0.3,0.2,0.5,0.2C246.7,142.1,246.3,142.2,246.1,142.2z"/>
		</g>
		<g>
			<path class="st0" d="M342.1,71.8c1.2,0.3,2.4,0.5,3.6,0.8c1.3,0.5,2.7,0.5,4,1c1,0.5,2.1,1.1,2.7,2c0.5,0.1,0.6-0.8,1.3-0.4
				c0.8,0.1,1.7,0.2,2.4,0.6c0.1,0.3,0.3,0.7,0.4,1c0.5,0.5,1,0.9,1.7,1.3c0.5,1.4,0.7,2.8,0.5,4.3c-0.1,0.2,0.1,0.4,0.1,0.7
				c0,0.2-0.4,0.3-0.4,0.6c0,0.4,0.2,0.8,0.1,1.2c-0.1,0.6-0.6,1.1-0.9,1.6c-0.4,0.2-0.8,0.5-1.2,0.8c-0.2,0.4-0.1,1-0.6,1.2
				c-0.6,1-1.2,2.1-2,3c-0.2,0.9-0.8,1.7-1.1,2.6c-0.7,0.8-1,1.8-1.7,2.7c-0.3,0.7-0.4,1.5-0.9,2.1c-0.2,1-0.8,2-1.1,3
				c-0.3,1.1-0.7,2.1-0.9,3.2c-0.5,0.6-0.6,1.4-0.7,2.2c0,0.5-0.6,0.9-0.4,1.5c0,1.4-0.9,2.6-0.7,4c-0.3,1.5-0.7,3-0.9,4.6
				c-0.1,1-0.6,2.1-0.3,3.1c0,1.3,0,2.7-0.3,4c0.1,3.4-0.6,6.9,0.5,10.2c0.3,0.9,0.5,1.9,1.2,2.7c0.3-0.1,0.5-0.6,0.7-0.3
				c0.5,0.5-0.4,1.2,0.1,1.6c0.3,0.3-0.2,0.6-0.1,0.9c0.1,0.4-0.3,1,0.2,1.2c-0.9,0-1,0.9-1.4,1.5c-0.3,0.3-0.7,0.6-0.8,1
				c-0.7,0.3-0.7,1.3-1.7,1.3c0.1,0.2,0.1,0.4-0.1,0.6c-0.5,0.3-0.9,0.6-1.3,1c-0.7,0.3-1.6-0.1-2.1-0.5c-2-1.2-3.5-3.2-4-5.3
				c-0.7-1.3-1.2-2.7-1.4-4c-0.1-1.3-0.7-2.6-0.6-3.9c0-0.3-0.1-0.6-0.1-0.9c0.3-1.6-0.1-3.2,0.3-4.7c0.2-0.9,0.4-1.8,0.4-2.7
				c-0.3,0.6-1,1.1-0.8,1.7c0.2,0.3-0.2,0.6-0.3,0.9c-0.1,0.4-0.5,0.4-0.8,0.6c-0.3,0.5-0.1,1.1-0.4,1.7c-0.4,0.6-0.7,1.2-1.2,1.7
				c-0.2,1.8-1.6,3.1-2.5,4.6c-0.1,0.5-0.6,0.8-0.8,1.2c-0.3,0.8-1.1,1.3-1.3,2.1c-0.4,0.6-0.8,1.2-1.2,1.8
				c-0.2,0.3-0.8,0.4-0.6,0.9c-1,1.1-1.9,2.3-3,3.3c-0.3,0.3-0.5,0.6-0.7,0.9c-1,0.8-2.1,1.5-3.3,2.2c-0.5,0.4-1.4,0.1-1.7,0.7
				c-0.7,0.1-1.1,0.7-1.8,0.8c-1.2,0-2.4,0.5-3.7,0.3c-2.4-0.2-4.7-1.4-6.4-2.9c-0.4-0.6-0.9-1.2-1.1-1.9c-0.9-1.1-0.8-2.6-1.3-3.9
				c-0.2-1.1-0.3-2.3-0.2-3.4c0.5-2.6,0.7-5.2,1.5-7.8c0.7-2.7,1.7-5.3,2.6-7.9c1.1-2.6,2.1-5.3,3.4-7.8c1.8-3.9,3.9-7.7,6.2-11.3
				c3-4.9,6.2-9.6,9.9-14.1c1.2-1.5,2.3-3,3.7-4.4c1.2-1.4,2.3-2.9,3.7-4.1c0.6-0.5,0.9-1.1,1.5-1.5c1.7-1.8,3.5-3.5,5.5-5.1
				c0.6-0.4,1.3-0.7,1.9-1.2C341.7,71.9,341.9,71.8,342.1,71.8z M345.4,83.1c-1,0.2-1.9,0.6-2.9,0.8c-0.5,0.4-1,0.7-1.5,1
				c-1,0.4-1.8,1.4-2.9,1.7c-1,0.5-1.9,1.1-2.5,1.9c-0.6,0.3-1.1,0.7-1.5,1.2c-0.8,0.2-1.2,0.9-1.6,1.5c-0.1,0.3-0.4,0.4-0.7,0.5
				c-0.8,0.8-1.3,1.8-2.2,2.5c-0.4,0.8-1.5,1.2-1.7,2.1c-1,0.9-1.6,2.1-2.4,3.1c-0.5,1-1.5,1.6-1.9,2.6c-0.1,0.6-0.7,1-0.9,1.6
				c-0.5,0.8-1.2,1.6-1.7,2.4c-0.1,0.8-0.7,1.5-1,2.3c-0.2,0.5-0.7,1-0.8,1.5c-0.5,0.4-0.2,1.1-0.9,1.3c-0.2,0.6-0.4,1.2-0.9,1.7
				c0.1,0.8-0.8,1.2-0.7,1.9c-0.9,0.4-0.5,1.5-1,2.2c-0.7,0.6-0.5,1.6-1,2.3c-0.2,0.9-0.8,1.6-1,2.5c-0.2,0.6-0.4,1.3-0.7,1.8
				c-0.4,1.3-0.7,2.6-1.1,3.8c-0.3,0.6-0.4,1.4-0.5,2.1c-0.1,0.3-0.5,0.5-0.5,0.8c0,0.7-0.2,1.4-0.4,2c-0.2,1.7-0.3,3.4-0.6,5.1
				c0,0.9,0.1,1.8,0.3,2.6c0.5,0.5,0.8,1.5,1.8,1.1c1.8-0.4,2.9-1.8,4.3-2.7c1.5-1.9,3.2-3.8,4.3-6c0.7-0.7,0.9-1.7,1.6-2.4
				c0.4-1.3,1.7-2.2,2.2-3.5c1.1-1.8,2.1-3.7,3.1-5.6c0.6-1,1.3-2,1.7-3c3.5-6.8,6.5-13.9,10.5-20.5c1.3-2,2.2-4.2,3.6-6.2
				c0.2-0.9,1-1.6,1.3-2.5c0.8-1.8,1.8-3.6,2.7-5.4C346.7,83,346.1,83.3,345.4,83.1z"/>
		</g>
		<g>
			<path class="st0" d="M141.5,225.7c-0.4,0.1-0.8,0.4-0.7,0.9c0,0.3-0.4-0.1-0.5,0c-1.3,0.8-2.5,1.7-3.7,2.6
				c-1.7,1.3-3.6,2.4-5.4,3.8c-2.6,1.6-5.2,3.1-7.9,4.5c-1.6,0.9-3.1,1.9-4.9,2.3c0.1-0.3,0.1-0.6,0.3-0.7c0.2-0.3,0.7-0.3,1-0.5
				c0.5-0.5,1.5-0.2,2-0.7c0.7-0.7,1.7-0.9,2.3-1.6c1-0.3,1.6-1.1,2.6-1.4c0-0.1,0-0.3,0-0.4c-1.3,0.5-2.4,1.4-3.6,1.9
				c-0.9,0.3-1.8,0.7-2.6,1.1c-0.4,0.2-1,0.2-1.2,0.7c-0.6,0.3-1.2,0.5-1.8,0.3c-0.6-0.1-1,0.5-1.5,0.5c-0.3,0.3-0.9-0.2-0.3-0.2
				c-0.6-0.6-1.6-0.4-2.3-0.1c-0.3,0.3-0.6,0-0.9,0c-0.1,0.3,0.3,0.4,0.5,0.6c-0.2,0-0.7,0-0.9,0c0-0.2,0.2-0.4,0-0.5
				c-0.3-0.3-0.8,0.2-1.1-0.1c-1.1-0.9-2.8,0.5-3.8-0.6c-0.5,0.5-1.3,0.2-1.6-0.1c-0.2,0-0.3,0.1-0.3,0.3c-0.3,0.1-0.3-0.4-0.6-0.4
				c-0.7-0.2-1.5,0.3-2.2,0c-0.3,0,0.3-0.6-0.2-0.5c-1.2,0.3-2.6,0-3.6-0.7c-0.6,0.3-1.2-0.5-1.6,0c-0.6-0.3-1.4-0.1-1.8-0.6
				c-0.5,0.2-0.8-0.1-1-0.5c0.3,0,0.5,0.1,0.8,0.2c0.1-0.7-1-0.1-1.2-0.6c0-0.4-0.4-0.6-0.7-0.6c-0.1-0.3,0.4,0,0.5,0
				c0.3,0.2,0.8-0.3,1,0.1c0,0.3,0.1,0.8,0.5,0.7c0-0.3-0.2-0.6,0-0.7c0.5-0.1,0.6,0.9,1.3,0.4c0.1,0,0.2,0,0.3,0.1
				c-0.2,0.3-0.4,0.7-0.3,1.1c0.4,0.1,0.3-0.8,1-0.4c0.2-0.4,0.6,0,0.9-0.2c1.2,0.5,2.6,0.7,3.9,0.9c0.7,0.1,1.4,0.4,2.1,0.4
				c0-0.1,0-0.2,0-0.3c-0.7-0.1-1.3-0.5-2-0.6c-1.9-0.3-3.6-0.9-5.5-1.4c-1.1-0.6-2.6-0.2-3.3-1.3c-0.6,0-1.2,0.3-1.8-0.1
				c-1.1-0.6-2.4-0.8-3.6-1.2c-0.2-0.1,0.1-0.3,0-0.5c-0.1-0.2-0.3-0.4-0.3-0.6c1.1,0.2,2.1,0.6,3.1,0.9c0-0.1,0-0.3,0-0.4
				c-1.1-0.2-2-1.1-3.2-1.2c-1.7-0.9-3.5-1.5-5.3-2.3c-1.9-1.1-4-2-5.7-3.5c-0.8-0.7-1.5-1.7-2.6-2c-0.1-0.4-0.2-0.8-0.2-1.2
				c0.6-0.6,0.6-1.4,0.9-2.1c0.5-0.3,0.6-0.9,0.8-1.3c0.1-0.4,0.3-0.7,0.4-1.1c-0.2,0.1-0.4,0.3-0.6,0.3c0.2-0.6,0.5-1.1,0.8-1.6
				c-0.4-0.9,0.4-0.5,0.6-0.9c0.3-0.2,0.4-0.6,0.6-0.9c-0.2,0-0.7,0-0.9,0c0.3-0.3,0.9-0.1,0.5-1c0.6-0.3,0.6-1,0.7-1.5
				c0-0.5,0.7-0.6,0.7-1.1c0-0.6,0.1-1.2,0.6-1.4c-0.4,0-0.4-0.4,0-0.5c0,0.8,0.7-0.4,0.4-0.5c0.8-0.8,0.6-2,0.8-3
				c0.5-0.8,0.4-1.9,0.8-2.8c0.2-1,0.9-1.9,1.1-3c0.2-1,0.5-2.1,0.9-3c0-0.7,0.4-1.3,0.7-1.8c0.1-0.6,0.3-1.2,0.4-1.9
				c0.5-0.5,0.5-1.2,0.7-1.8c0.7-1.6,0.9-3.4,1.4-5c-0.1-1.1,0.7-1.9,0.9-2.8c0.4-2,1.4-3.9,1.5-6c-0.6-1.5,0.4-0.2,0.6-0.8
				c0.4-1.8,0.6-3.7,1.2-5.4c0.3-0.7,0.1-1.6,0.4-2.3c0.1-0.3-0.1-0.6,0.1-0.9c0.5-0.4,0.5-1.1,0.4-1.7c0.6-0.2,0.5-1,0.7-1.5
				c0.2-0.4,0-0.9,0-1.3c0.4-0.8,0.3-1.8,0.5-2.7c0.3-0.7,0.5-1.5,0.8-2.2c0.1-0.4,0.5-0.7,0.3-1.1c-0.2-0.2-0.5-0.2-0.7-0.2
				c0.4-0.6,0.2-1.3,0-1.9c0.7-1.5,0.8-3.2,0.9-4.8c0.7-0.2,0.3-1.1,0.6-1.6c0.4-0.8,0.4-1.8,1-2.5c-0.3-0.8,0.1-1.6,0.6-2.1
				c0-1.4,0.9-2.6,1.3-4c0.5-0.8,0.8-1.7,1.3-2.5c0.6-1.1,0.8-2.4,1.8-3.2c0.3-1.4,1-2.5,1.8-3.6c0.3-0.7,0.9-1.3,1.4-1.9
				c0.6-0.5,1.2,0.3,1.5,0.7c0.4,0.1,1,0.5,1.4,0.1c0.6-0.2,0.9,0.3,1.4,0.4c0.3-0.2,0.6-0.5,0.6-0.9c0.4-0.1,1.1,0.2,1.1-0.3
				c-0.2-0.4-0.6-0.6-0.6-1.1c0.5,0.1,1,0.5,1.5,0.8c-0.2-0.7-0.3-1.4-0.3-2.1c0.5,0.1,0.9,0.2,1.3-0.2c-0.1-0.6-0.9-1.1-0.6-1.8
				c0.2-0.3-0.2-0.5-0.4-0.6c-0.3-1-0.1-2,0.1-3c0.1-0.8-0.2-1.5,0-2.2c-0.2-0.4-0.5-0.7-0.8-1c-0.5,0-0.6-0.5-0.9-0.8
				c-0.6-0.2-1.2-0.3-1.7-0.7c-0.1-0.8-0.9-0.9-1.4-1.3c-0.3,0.1-0.6,0-0.8-0.3c-0.6-0.1-1.1-0.1-1.7-0.2c-0.3,0.3-0.3,1-0.9,0.9
				c-0.6,0-0.8,0.6-1.3,0.7c-0.3,0.3-0.5,0.8-1,0.9c-0.5,0-0.8,0.3-1.1,0.8c-0.8,0.5-1,1.5-1.7,2.1c-3.3,3.9-6,8.3-8.1,13
				c-0.9,1.7-1.5,3.6-2.2,5.4c-0.7,2-1.4,4-2,6c-2,6.3-2.8,12.8-4.3,19.2c-1.1,4.9-2.4,9.7-3.8,14.5c-0.3,1.7-1.1,3.3-1.4,5.1
				c-1.9,6.3-3.8,12.6-5.7,18.9c-0.5,0.8-0.8,1.7-1,2.6c-1.3,3.1-2.3,6.3-3.9,9.3c-0.2,0.8-0.8,1.3-1.1,2.1
				c-0.6-0.3-1.4-0.3-1.7-0.9c-0.9-0.6-1.9-1.1-2.9-1.6c-0.3-0.3-0.7,0.1-1,0c0.2-0.8-0.7-0.9-1.2-1.1c-0.4,0-1-0.4-1.1,0.1
				c-0.4-0.1-0.7-0.2-0.6,0.3c-0.6,0-1.3-0.2-1.9,0c-0.4-0.3-0.9-0.6-1.4-0.6c-0.2-0.1-1.3-0.6-1-0.1c0.9,0.1,1.7,0.6,2.4,1
				c0.2,0.3,0.5,0.6,0.9,0.6c0.1,0.4-0.3,0.5-0.6,0.7c-0.2-0.1-0.3-0.3-0.6-0.3c0,0.3-0.4,0.4-0.4,0.1c0-0.4-0.8-1.3-0.4,0.2
				c-0.5-0.1-0.9-0.4-1.3-0.5c-2-0.4-3.9,0.4-5.7,1.2c-1.1,0.5-1.5,1.7-2.5,2.3c-1.3,1.8-2.9,3.5-4.1,5.4c0.5,0,0.7-0.8,1-1.1
				c0.1,0.6-0.6,1-0.7,1.5c-0.3,0.7-0.7,1.4-1.1,2.1c-1.3,3.1-2.4,6.3-3.2,9.6c-0.3,0.4,0.1,0.8,0.4,1.1c-0.3,1.9-0.3,3.8-0.2,5.7
				c0.1,0.9,0.4,1.8,0.2,2.7c0.2,0.5,0.3,1.2,1,1.1c0.3,0.7,0.9,1.1,1.7,1c-0.1-0.1-0.2-0.3-0.3-0.4c0.5-0.2,0.3-0.9,0.9-1.1
				c0,0.3-0.4,1.1,0.1,0.9c0.3-0.7,0.8,0.1,1.2,0.2c0.1,0.3-0.1,0.5-0.1,0.8c0.5,0.6,0.1-0.9,0.7-0.7c0.4,0.3,0.5,1,0.3,1.5
				c0.3,0.1,0.3-0.2,0.4-0.5c-0.1-0.2-0.3-0.4-0.3-0.6c0.6,0,0.8,0.8,1.3,0.9c0.9,0.1,1.8,0.6,2.7,0.9c0.1,0.3-0.1,0.5-0.4,0.6
				c0,0.5,0.3,0.9,0.8,0.7c-0.4-0.4,0.4-0.4,0.4,0c0.1-0.7,1.2-0.2,1.1-0.9c-0.2-0.3-0.8,0.2-0.9-0.3c0.6,0.2,1-0.5,1.5-0.3
				c-0.4,0.2-0.5,0.9-0.1,1.2c0.5-0.1,1-0.3,1.6-0.5c0.2-0.4,1.1-0.6,1.1,0.1c0,0.3,0.5,0.1,0.6-0.1c-0.5,0-0.3-0.5,0-0.7
				c0.3-0.2,0.2-0.9,0.6-0.7c0.4,0.1,0.5,0.5,0.7,0.8c0.3,0.1,0.2-0.4,0.5-0.2c0.5,0.2,0.9-0.3,1.4-0.1c0.2,0.1,0.2-0.3,0.3-0.4
				c0.4-0.2,0.4,0.7,0.8,0.6c0.4,0.1-0.1-0.9,0.3-0.5c0.8,0.6,1.5-0.4,2.2-0.6c0.4-0.5,0.9-0.9,1.3-1.4c0.5,0.1,0.7-0.4,1.1-0.6
				c0.2-0.3,0.4-0.7,0.8-0.8c1.1-1.1,1.8-2.6,2.7-3.9c1.3-0.7,1.6-2.4,2.6-3.4c0.6-0.9,1-1.9,1.5-2.8c0.2-0.3,0.5-1,1-0.5
				c2.8,1.8,5.8,3.3,8.9,4.6c1.2,0.3,2.3,1.1,3.5,1.5c0.5-0.2,0.9,0.3,1.4,0.4c0.8,0.4,1.6,0.5,2.5,0.7c0.5,0.3,1.1,0.6,1.7,0.6
				c0.7,0.3,1.4,0.5,2.1,0.6c1,0.7,2.4,0.4,3.4,1.2c0.7,0,1.3,0.1,1.9,0.4c0.4,0,0.7,0,1,0.2c0.5,0.4,1.3-0.3,1.8,0.2
				c0.7,0.3,1.4,0.9,2.3,0.8c0.6,0.1,1.3,0,1.8,0.3c1,0.5,2.4-0.3,3.3,0.5c1-0.3,2.1,0.6,2.9-0.1c0.2-0.2,0.5,0.1,0.7,0
				c0.2-0.1,0.3-0.3,0.5-0.4c0,0.2,0,0.4,0,0.6c0.1,0,0.3-0.1,0.4-0.1c0.9,0.4,0.6-0.3,0.9-0.6c0.7,0.3,1.4-0.3,2,0
				c0.3-0.1,0.3,0,0.2,0.2c0.4,0.3,0.7,0,0.9-0.4c0.6,0.3,1-0.3,1.5-0.5c0.3-0.3,0.6,0.3,0.9-0.1c1.6-0.6,3.3-0.9,4.7-1.8
				c0.6-0.3,1.3-0.4,1.9-0.8c0.5,0.2,0.9,0,1.4-0.1c0.1-0.3,0.4-0.4,0.8-0.4c0.1-0.2,0.2-0.3,0.3-0.3c0,0.2,0,0.4,0,0.6
				c0.2-0.2,0.3-0.4,0.5-0.6c0.2-0.1,0.4,0.4,0.6,0.2c0.6-0.8,2.1-1,2.1-2.3c0.4,0,0.7-0.2,0.7-0.6c-0.3,0-0.6-0.1-0.4-0.5
				c0.7-0.6,1.3-1.3,2.2-1.7c0.3-0.3,0.8-0.2,1.1-0.5c0.7-0.7,1.5-1.1,2.2-1.8c0.6-0.1,0.9-0.8,1.3-1.2c0.9,0,1.9-0.8,1.8-1.8
				c0.3-0.2,0.5-0.6,0.7-0.9c0.7,0.4,0.5-1,1.2-0.9c0.4,0.2,0.1-0.6,0.6-0.5c0.5-0.2,0.2,0.3,0.1,0.6c-0.3,0.6-1.3,0.7-1.5,1.4
				c0.3,0,0.6-0.1,0.9-0.3c0.7-0.7,1.6-1.1,2.3-1.7c0.9-0.6,1.5-1.5,2.5-2c0-0.1,0-0.3,0-0.4c-0.7,0-1.2,0.7-1.8,0.9
				C141.6,226,141.5,225.9,141.5,225.7z M84.4,185.7c0.4-0.1,0.5,0.4,0.1,0.5C84.2,186.3,84.5,185.8,84.4,185.7z M82.3,195.4
				c0.5-0.2,0.3,0.8-0.2,0.6C82.2,195.8,82.2,195.6,82.3,195.4z M81.6,196.3c0.5-0.2,0.1,0.4,0.2,0.7c0.2,0.4-0.3,0.5-0.5,0.6
				C81.3,197.2,81.5,196.8,81.6,196.3z M79,205.3c-0.5,0.3-0.2,1-0.7,1.3c-0.2-1.3,0.8-2.2,0.6-3.5c0.6,0,0.2,0.7,0.4,1.1
				C79.1,204.5,78.8,204.8,79,205.3z M79.2,200.4c0.1-0.1,0.3-0.2,0.4-0.3c0.4-0.2,0.3,0.3,0.2,0.5c-0.2,0.2-0.4,0.3-0.5,0.5
				c0,0.3,0.5,0.4,0.4,0.7c-0.1,0.2-0.5,0.2-0.5-0.1c-0.1,0.1-0.3,0.2-0.4,0.3C78.9,201.5,79.2,201,79.2,200.4z M78.5,198.5
				c0.4-0.2,0.2,0.3,0.3,0.6c-0.2,0-0.4,0-0.6-0.2C78.2,198.7,78.3,198.6,78.5,198.5z M78.5,202.8c0.4-0.2,0.2,0.5,0,0.6
				c-0.3,0.1-0.1,0.4-0.1,0.7c-0.4,0.1-0.1,0.6-0.6,0.5C77.8,203.9,78,203.3,78.5,202.8z M77.6,205c0.2-0.1,0.1,0.6,0.1,0.9
				C77.2,205.7,77.4,205.2,77.6,205z M76.2,213.5c0.1,0,0.2,0,0.3,0c-0.1,0.4-0.4,1-0.9,1.1C75.8,214.2,75.9,213.8,76.2,213.5z
				 M36.4,242.9c-0.6-0.5-0.2-1.5-0.4-2.1C36.6,241.2,36.7,242.1,36.4,242.9z M37.3,244.1c-0.3,0-0.6,0.1-0.7-0.2
				c0-0.2,0.1-0.4,0.2-0.6C37.2,243.3,37.4,243.7,37.3,244.1z M38.2,244.6c-0.5,0.2-0.3-0.7-0.1-0.9
				C38.5,243.8,38.3,244.4,38.2,244.6z M38.7,242.3c-0.3-0.5-0.5-1.1-0.5-1.7c-0.5-0.8-0.3-1.7-0.4-2.6c-0.2-0.9,0.3-1.8,0-2.7
				c0,0,0.1-0.1,0.2-0.1c0.1,0,0.2,0,0.2,0c0.1,0.6,0.1,1.2,0.1,1.8c-0.1,1.3,0.4,2.5,0.4,3.8C38.7,241.2,39.2,242,38.7,242.3z
				 M39,231.1c-0.1-0.9,0.7-1.6,0.3-2.4c0.8,0,0.4,1,0.2,1.4C39.2,230.4,39.6,231.2,39,231.1z M39.3,236.8c0-0.4,0-1.1,0-1.5
				c0,0,0.1-0.1,0.2-0.1l0.1-0.1c0,0.5-0.1,1.1,0,1.7C39.5,236.8,39.4,236.8,39.3,236.8z M39.4,232.3c0.2-0.7,0.2-1.4,0.6-1.9
				c0.1,0,0.2,0,0.3,0c0.3,0.9-0.6,1.5-0.7,2.3c0.1,0.2,0.1,0.5,0.1,0.8C39.1,233.5,39.5,232.7,39.4,232.3z M41.8,231.7
				c-0.1,0.4-0.6,0.4-0.9,0.6c-0.8,1.6,1.2-0.4,0.5,1.3c-0.2,0.7,0,1.5-0.6,2c-0.4,0.3,0,0.9,0,1.3c-0.2,0-0.5,0-0.6-0.2
				c0.1-0.9-0.1-1.9,0.4-2.7c-0.4-1.3,0.4-2.5,0.9-3.6C42.2,230.4,42,231.3,41.8,231.7z M43.5,246.6c-0.4,0-0.7-0.4-0.8-0.8
				C43,246,43.5,246.2,43.5,246.6z M45.9,247.5c0-0.1,0-0.3-0.1-0.5c-0.3,0-0.6,0.1-0.9,0c0-0.2,0-0.4,0-0.6c0.3,0.2,0.7-0.1,1,0.1
				c0.2,0.2,0.8,0.1,0.9,0.4C46.5,247.1,46.2,247.4,45.9,247.5z M46.8,223.8c-0.1-0.2-0.1-0.5,0.1-0.5
				C47.2,223.3,47.1,224,46.8,223.8z M53,246.4c-0.2-0.2-0.3-0.5-0.3-0.7c0.4-0.1,0.6,0.3,0.9,0.6C53.4,246.3,53.2,246.4,53,246.4z
				 M53.9,232.6c-0.7,1-1.2,2-2.1,2.8c-0.2,0-0.5,0.1-0.7-0.1c0.1-0.7,0.2-1.3,0-2c-0.1-1.7,0-3.4,0.5-5c-0.5-0.3-0.4-1-0.2-1.4
				c-0.2-0.6,0.4-0.9,0.4-1.4c0-0.4,1,0.1,0.6-0.8c0.2-0.6,0.1-1.3,0.1-1.9c0.1-0.4,0.4-0.7,0.7-0.9c0.6-0.1,1,0.4,1.5,0.7
				c1.3,0.8,2.6,1.7,3.8,2.6C57.1,227.7,55.4,230.1,53.9,232.6z M58.9,214c-0.3,0.1-0.7,0.1-1-0.1c0-0.3,0.2-0.5,0.3-0.7l0.1-0.1
				c0.4,0.5,1.1,0.8,1.4,1.3c0.3,0.2,0.7,0.2,0.8,0.5C59.9,215.1,59.2,214.6,58.9,214z M63.1,217.2c-0.6,0.2-0.8-0.7-1.2-1
				c-0.2-0.1-0.1-0.3,0-0.4c0.5,0.2,1,0.3,1.5,0.6C63.4,216.7,63.2,217,63.1,217.2z M74.3,216.4c0.2,0.1,0.4,0.7,0,0.6
				C74,216.9,74.2,216.5,74.3,216.4z M90.9,233.5c0.5-0.1,0.9,0.2,1.3,0.5c-0.3,0.3-0.9,0.4-1.3,0.4C91,234.1,91,233.8,90.9,233.5z
				 M81.7,228.1c0.8,0.5,1.8,0.7,2.6,1.3c0.2,0.2,0.4,0.1,0.6,0.1c0.2,0.3,0.5,1,0.9,0.6c0.4-0.4,0.9,0.1,1.3,0.3
				c0.3,0.4-0.6,0.1-0.4,0.4c0.4,0,0.7,0.3,0.9,0.6c-0.6,0-1-0.4-1.5-0.5c-0.5-0.1-1-0.3-1.3-0.7c-0.4-0.5-1-0.4-1.5-0.7
				c-1-0.6-2.3-1-3-2.1C80.7,227.6,81.2,227.8,81.7,228.1z M76.5,226.3c0.2-0.2,0.5,0.2,0.4,0.4C76.7,226.9,76.4,226.5,76.5,226.3z
				 M76.3,231.7c-0.3-0.2-0.7-0.3-0.9-0.6c0.6-0.1,1,0.5,1.5,0.7c0.3,0.1,0.5,0.2,0.6,0.5C77.1,232.4,76.7,231.9,76.3,231.7z
				 M85.7,232.2c-1-0.5-0.6,0.5-0.9,0.9c-0.3,0.1-0.3-0.2-0.3-0.4c-0.6-0.5-1.2-0.8-1.8-1.2c-0.2-0.2-0.4,0-0.6,0
				c-0.2-0.2-0.1-0.5-0.2-0.7c-1.2-0.5-2.3-1-3.3-1.7c-0.3-0.3-0.5-0.5-0.9-0.6c-0.2-0.1-0.6-0.2-0.5-0.5c1.4,0.4,2.7,1.2,4.1,1.7
				c0.6,0.3,1.3,0.6,1.8,1.1c1.2,0,2.2,0.7,3.3,1c0.1,0.5,0.8,0.5,0.8,1C86.6,232.7,85.9,232.7,85.7,232.2z M89.6,236.9
				c-0.4,0.4-0.8,0-1.1-0.4C88.7,236.4,89.7,236.4,89.6,236.9z M89.3,233.8c-0.1,0.2-0.3,0.1-0.5,0.1c-1,0.4-0.6-1-1.4-0.9
				c-0.1-0.3,0.3-0.4,0.5-0.5c0.4-0.1,0.7-0.1,1,0.1c0.5,0.4,1.2,0.3,1.8,0.6c0,0.1,0,0.3,0,0.4C90.2,233.2,89.7,233.5,89.3,233.8z
				 M90.3,237.1c0.6-0.1,1.2,0,1.7,0.3c0.8-0.2,1.5,0.6,2.3,0.5c1,0.4,2.2,0.3,3.1,0.9c1.2,0.2,2.5,0.4,3.6,0.9
				c1.3,0.2,2.5,0.6,3.8,0.7c-0.1,0.1-0.3,0.2-0.5,0.2c-1.1-0.1-2.3-0.2-3.4-0.5c-0.5,0.1-1-0.1-1.5-0.3c-0.5-0.2-1.2-0.1-1.6-0.5
				c-2.1-0.2-4.1-1.1-6.1-1.8C91.1,237.5,90.6,237.6,90.3,237.1z M104.7,241.2c-0.4,0.1-1,0.4-1-0.2
				C104,241.2,104.9,240.6,104.7,241.2z M102.4,243.4c-1.3-0.2-2.7-0.3-4-0.7c-1.1,0.2-1.9-0.6-3-0.6c-1.1-0.3-2.2-0.6-3.1-1.1
				c0.4,0,0.7,0.1,1.1,0.3c1.9,0.5,3.8,0.9,5.7,1.3c1.3,0.1,2.6,0.4,3.8,0.6c1.2-0.2,2.4,0.2,3.6,0.4c0,0.1,0,0.2,0,0.3
				C105.1,243.8,103.8,243.4,102.4,243.4z M108.2,244.2c-0.3-0.4-1-0.2-1.2-0.7c0.2-0.1,0.3-0.1,0.5-0.1c0.3-0.2,0.6,0.2,0.8,0.2
				c0.4,0,0.9-0.3,1,0.2C108.9,243.7,108.6,244,108.2,244.2z M108.5,241.4c-0.9,0.6-1.9-0.3-2.9,0c0,0.4-0.3,0.2-0.5,0.1
				c0.4-0.8,1.3-0.3,2-0.5c1,0.3,2,0.2,3.1,0.1C110.3,241.8,108.8,241.2,108.5,241.4z M110.7,241.4c-0.2-0.1-0.6-0.3-0.2-0.4
				c0.5,0,1-0.1,1.4-0.1C112.4,241.7,111.1,241.6,110.7,241.4z M118.1,239.8c-0.4,0.8-1.4,0.7-2.2,0.7c0.1-0.1,0.1-0.3,0.2-0.4
				c0.7,0,1.4-0.5,2.1-0.6C118.5,239.3,118.2,239.7,118.1,239.8z M125,239.2c0-0.4,0.4-0.5,0.7-0.7c0.1,0,0.3,0,0.4-0.1
				C126.1,239,125.3,239,125,239.2z M127.5,238c-0.3,0-0.6,0.3-0.8,0.5c-0.5-0.5,0.5-0.7,0.8-1C127.9,237.2,127.5,237.8,127.5,238z
				 M133.3,232.6c0-0.2,0-0.5,0.2-0.6C134.3,231.7,133.8,232.7,133.3,232.6z"/>
			<path class="st0" d="M78.7,210.3c0,0.5-0.5,1.4,0.3,1.2C78.8,211.3,79.1,210.4,78.7,210.3z"/>
			<path class="st0" d="M148.2,221c0.1-0.7,1.1-0.7,1.1-1.4c0.3,0.1,0.8-0.5,0.5-0.4c-0.2,0.4-0.7-0.1-0.8,0.4
				c0,0.3-0.7,1.1-0.8,0.4c-0.5,0.3-0.2,0.9-0.5,1.4C147.8,221.2,148.2,221.2,148.2,221z"/>
			<path class="st0" d="M144.5,223.7c0.4-0.6,0.5-1.4,1.3-1.6c0.3-0.1,0,0.3,0,0.4c0.3,0,0.3-0.4,0.5-0.6c0.2-0.2,0.1-0.5-0.2-0.5
				c-0.5,0.4-1.1,0.8-1.6,1.2c0,0.2,0.1,0.4,0.1,0.6c-0.4-0.2-0.8-0.1-0.9,0.3C143.7,224.1,144.2,223.8,144.5,223.7z"/>
			<path class="st0" d="M142.2,224.5c-0.1,0.1-0.5,0.2-0.3,0.4C142.1,225.1,142.7,224.4,142.2,224.5z"/>
			<path class="st0" d="M129.3,233.6c0.1-0.8,1.2-0.7,1.5-1.3c1.6-0.8,3.2-2,4.8-3c0.2-0.2,0.3-0.5,0.7-0.5c0.3,0,0.3-0.6,0-0.3
				c-2.9,2-5.9,3.7-8.8,5.5c-0.2,0.1-0.4,0.2-0.3,0.5C127.9,234.4,128.4,233.4,129.3,233.6z"/>
			<path class="st0" d="M137.6,229.8c-0.2,0.1-0.4,0.1-0.5,0.3C137.2,230.5,137.9,230,137.6,229.8z"/>
			<path class="st0" d="M143.1,230.4c-0.1,0.1-0.3,0.3-0.2,0.5C143.2,231,143.5,230.2,143.1,230.4z"/>
			<path class="st0" d="M141.7,231.4c-0.9,1.2-2.7,1.5-3.3,2.9c-0.3,0.3-0.7,0.5-1,0.6c0-0.2-0.1-0.6,0.2-0.7
				c0.3-0.1,0.2-0.3,0.2-0.5c-0.9,0.1-0.9,1.3-1.7,1.4c-0.3,0.7-1.5,0.4-1.6,1.1c0.9-0.1,1.6-0.8,2.4-1.2c0.1,0.4-0.2,0.7-0.3,1.1
				c0.8-0.6,1.9-1,2.2-2.1c1.4-0.4,2.2-1.7,3.3-2.5C142.3,231.3,141.9,231.4,141.7,231.4z"/>
			<path class="st0" d="M132.8,235.8c-0.1,0-0.2,0-0.3,0c-0.3,0.4-0.6,0.8-0.9,1.2C132,236.7,132.9,236.4,132.8,235.8z"/>
			<path class="st0" d="M100.2,236.8c0-0.3-0.3-0.6-0.6-0.6C99.7,236.5,99.8,236.9,100.2,236.8z"/>
			<path class="st0" d="M130.3,236.3c-0.3,0.2-0.6,0.4-0.9,0.6c-0.2,0.1-0.6,0.2-0.5,0.5c0.2,0,0.6,0.1,0.7-0.2c0.2-0.5,1-0.5,0.9-1
				C130.5,236.2,130.3,236.3,130.3,236.3z"/>
			<path class="st0" d="M116.7,236.5c-0.2,0-0.5,0-0.7,0c-0.2,0-0.3,0.1-0.4,0.2C116,236.8,116.5,237,116.7,236.5z"/>
			<path class="st0" d="M106.1,236.7c0.7,0.6,1.6,0.2,2.4,0.4c0-0.1,0-0.2,0-0.3C107.7,236.8,106.9,236.6,106.1,236.7z"/>
			<path class="st0" d="M133.1,236.9c-0.6,0.2-1.1,0.6-1.4,1.2c0.6,0,0.7-0.7,1.2-0.7C133.2,237.4,133.5,236.6,133.1,236.9z"/>
			<path class="st0" d="M130.3,237.1c-0.2,0.1-0.3,0.4,0,0.4C130.5,237.6,130.7,237,130.3,237.1z"/>
			<path class="st0" d="M131,237.4c-0.2,0.3-0.5,0.5-0.7,0.8c-0.6,0.2-1.3,0.1-1.6,0.8c-0.1,0.5-0.9,0.7-0.7,1.3
				c0.2,0.4,0.6-0.2,0.7-0.4c0-0.7,0.8-1.2,1.4-0.9c0.2,0,0.4-0.2,0.5-0.3c0.1-0.2-0.1-0.7,0.3-0.5c0,0.5,0.6,0.2,0.4-0.1
				C131.2,237.8,131.4,237.3,131,237.4z"/>
			<path class="st0" d="M132.3,238.8c-0.4,0.2,0.2,0.4,0.4,0.2C132.9,238.8,132.5,238.7,132.3,238.8z"/>
			<path class="st0" d="M124.1,240.6c0,0.2,0,0.5,0,0.8C124.5,241.3,124.6,240.4,124.1,240.6z"/>
			<path class="st0" d="M39.6,245.9c-0.4-0.1-0.2-0.8-0.7-0.6c-0.4,0.3,0.1,0.6,0.3,0.9C39.3,246.6,40,246.1,39.6,245.9z"/>
			<path class="st0" d="M43.1,247.9c0.1-0.2,0.7-0.7,0.2-0.5c-0.4,0.3-0.6,0.9-0.3,1.3c0.3,0,0.5-0.3,0.8-0.3
				C44,247.9,43.4,248,43.1,247.9z"/>
		</g>
		<g>
			<path class="st0" d="M128,162.9c0.6-0.3,1.1,0.1,1.7,0.3c0.7,0,1.4-0.3,2.1-0.2c0.3,0.2,1,0.6,1.4,0.8c2.3,0.5,4.5,1.6,6.9,2
				c0.3,0,0.4,0.3,0.6,0.5c0.2,0.9-0.9,1.6-0.6,2.6c-0.2,1.2,0.1,2.5-0.2,3.7c0.3,0,0.6-0.1,0.9-0.2c0,0.3,0.1,0.8,0.1,1.1
				c0.9,1.3-1.4,0.9-0.6,2.3c-0.2,0.2-0.5,0.3-0.7,0.5c0,1.6,0,3.2-0.3,4.8c-0.2-0.8-0.8-0.2-0.6,0.4c0.6-0.4,0.5,0.2,0.4,0.7
				c-0.2,0-0.4-0.1-0.6-0.1c-0.2,1.1-1,2-1.2,3.1c-0.3,1-0.2,2.2-0.9,3c-0.1,0.5,0.1,1.1,0.1,1.7c-0.7,1.4-0.4,3-0.7,4.5
				c-0.8,2.2-1.1,4.7-1.3,7c0.4,0.7,0.5,1.6,1.3,1.9c0.4,0.7-0.4,0.6-0.8,0.4c-0.1,0.7,0.2,1.3,0.7,1.7c1.2,0.2,2.3-0.4,3.5-0.8
				c0.9-0.4,1.9-0.6,2.6-1.3c1.1-0.4,2.1-1,3-1.8c4.1-2.5,7-6.6,10.5-9.9c0.6,0.6-0.1,1.5-0.4,2.1c-0.7,1.5-1.6,3-2.7,4.3
				c-0.5,0.3,0.1,0.8-0.2,1.1c-0.4,0.7-1,1.1-1.5,1.7c-0.8,1.8-1.9,3.3-2.5,5.1c-0.6,0.6-1.5,1.2-1.2,2.2c-0.4,1.2-1.9,1.2-2.4,2.3
				c-1.1,0.7-1.4,2.7-2.9,2.6c-0.9,1-2.3,1.4-3.3,2.3c-0.4,0.9-1.6,0.8-2.3,1.4c-1.3,0.7-2.9,0.5-4.3,1c-3.6,1-7.3-1-9.6-3.8
				c-1.6-0.6-2.1,1.6-3.6,1.6c-1.2,0.4-2.6,0.5-3.8,0.9c-1.3,1.2-3.2,0.6-4.6,1.5c-0.4,0.2-0.9-0.1-1.3,0c-3.2,0.1-6.2-1.9-8.4-4.1
				c-1.1-1.4-1.9-3-2.6-4.6c-1-2.9-0.9-6-1.2-9c0-3.8,1.7-7.2,2.9-10.6c1.1-2,1.7-4.2,2.8-6.1c0.8-1.3,1.5-2.7,2.3-4.1
				c1-0.9,1.3-2.4,2.6-3c2.1-3,4.8-5.5,7.7-7.7c0.5-0.3,0.7-1.2,1.6-0.8c0.7-1,1.6-1.9,2.5-2.7c0.1-0.6,0.8-0.6,1-1.2
				c0.7-0.1,1.3,0.4,1.9,0.8c0.5-0.2,0.3-1.2,0.8-1c0.1,0.7,0.8,0.3,0.6-0.2c1.1-1.1,2.7-0.5,4-0.9
				C127.3,163.2,127.7,163.3,128,162.9z M123.5,178.9c-0.5,0.4-1.1,0.5-1.6,0.8c-1.6,1-2.5,2.9-4.3,3.8c-0.3,1.6-1.9,2.4-2.4,3.9
				c-0.3,0.9-1,1.6-1.2,2.6c-0.5,1-0.7,2.1-1.4,3c-0.1,1.8-0.5,3.6-0.9,5.4c0.2,2.3-0.6,4.6,0.2,6.8c0,0.5,0.5,0.7,0.9,0.8
				c1.1-0.3,2.3-0.6,3.4-1.1c0.5-0.5,0.9-1.1,1.4-1.6c1-0.5,0.7-1.9,0.9-2.9c0.8-0.9,0-2.2,0.2-3.2c0.3-2.1,0.7-4.3,1.5-6.3
				c0.4-2.7,1.3-5.3,2.2-7.9c0-1.5,1-2.7,1.1-4.1L123.5,178.9z"/>
		</g>
		<g>
			<path class="st0" d="M230.4,145.4c0-0.2,0.1-0.4,0.3-0.4c0.4-0.2-0.2-0.8-0.5-0.5c0,0-0.1,0.1-0.1,0.1
				C230,145,229.9,145.6,230.4,145.4z"/>
			<path class="st0" d="M221,171.9c0,0.1,0,0.1-0.1,0.2C221,172.1,221,172,221,171.9z"/>
			<path class="st0" d="M230.8,149.6c0,0.2-0.2,0.2-0.3,0.3c0.1,0.5-0.4,0.8-0.4,1.2c-0.1,0.3-0.4,0.4-0.7,0.4
				c0-0.2-0.1-0.5,0.2-0.5c0.3-0.1,0.1-0.5-0.1-0.6c0.3-0.1,0.5-0.3,0.8-0.4c0-0.5,0.4-0.9,0.6-1.4c-0.1,0-0.3,0-0.3,0
				c-0.1-0.4,0.2-0.7,0.3-1c-0.4,0-0.6,0.5-1,0.5c-0.2,0.2-0.4,0.8-0.7,0.4c0.1-0.3,0.3-0.5,0.5-0.8c0-0.3-0.3-0.4-0.5-0.7
				c0.5-0.1-0.2-0.8,0.4-0.9c0-0.5-0.3-0.8-0.5-1.2c-0.3,0.2-0.5-0.3-0.7-0.1c-0.6,0.1-1.1,0.4-1.5,0.8c-0.7,0.5-1.5,0.8-1.9,1.5
				c-2,1.7-3.6,3.9-5,6.2c-1.6,3-3,6.1-4.1,9.4c-0.8,2-1.3,4.1-2,6.1c-0.6,2.2-1.3,4.5-1.7,6.7c-1.8,6.5-3.1,13.2-4.5,19.8
				c-0.8,4-1.4,8.1-2.2,12.1c-0.4,1.1-0.2,2.3-0.6,3.4c-0.4,1.3-0.3,2.7-0.8,4c-0.4-0.2-0.5-0.7-0.9-1c-0.1,0.1-0.1,0.4-0.4,0.3
				c-0.1-0.4-0.1-0.8,0-1.2c0-0.5-0.7,0.2-0.6-0.4c0-0.6-0.6-0.9-0.6-1.4c0.3-0.8-0.2-0.4-0.5-0.4c0-0.2,0.1-0.4,0.1-0.7
				c-0.1-0.3-0.4,0.1-0.5-0.2c0-0.5,0.4-1.3-0.2-1.5c0-0.3,0-0.5-0.4-0.4c0,0.3,0.2,0.6,0.1,0.8c-0.1,0.4,0.2,0.7,0.2,1.1
				c-0.1,0.2-0.3,0.1-0.4,0c-0.1-0.5-0.1-0.9,0-1.4c0.1-0.3-0.2-0.8,0.2-0.9c-0.2-0.4-0.2-0.8-0.5-1.1c-0.2,0.1-0.6,0.1-0.6-0.2
				c0.3,0,0.4-0.2,0.4-0.5c-0.2-0.3-0.5-0.5-0.6-0.8c-0.1,0.3,0.1,0.8-0.1,1c-0.4-0.1-0.1-0.5-0.1-0.8c-0.1-0.3,0-0.7-0.3-1
				c-0.2-0.2,0.2-0.4,0.2-0.6c-0.2,0-0.6,0-0.8,0c-0.3-0.6-0.5-1.1-0.4-1.7c0.1-0.4-0.5-0.5-0.4-0.9c0.1-0.6-0.7-0.8-0.4-1.5l-0.1,0
				c-0.2,0.5,0.3,1.2-0.1,1.7c0,0.3,0,0.6-0.1,0.9c-0.4-0.3-0.2-1,0-1.4c-0.1-0.7-0.1-1.4,0-2c-0.4-0.2,0-0.7,0.1-1
				c-0.3,0.1-0.5,0.6-0.9,0.5c-0.1-0.2-0.2-0.4-0.3-0.6c0-0.5,0.7-0.9,0.6-1.4c-0.1,0.1-0.2,0.4-0.4,0.4c-0.2-0.4-0.1-0.8,0.1-1.2
				c-0.2-0.2-0.1-0.7-0.4-0.7c0,0.4,0.3,1-0.2,1.2c-0.3-0.5-0.2-1.2-0.2-1.8c0.2,0,0.3,0,0.5,0c0-0.3-0.1-0.6-0.1-0.9
				c-0.5-0.1,0.1,0.4-0.2,0.6c-0.2,0.3-0.8-0.5-0.4,0.5c-0.1,0.2-0.1,0.7-0.4,0.6c0-0.6,0.4-1.2,0.4-1.8c0.2-0.6,0.2-1.2,0.2-1.8
				c-0.1,0-0.3-0.2-0.4,0c0.5,0.8-0.3,1.5-0.3,2.3c-0.3-0.1-0.2-0.4-0.1-0.6c-0.1-0.7,0.1-1.6-0.4-2.2c0-0.2,0.1-0.5-0.1-0.7
				c0.3-0.6,0-1.3,0.2-1.9c0.4-0.1,0.4,0.7,0.2,1c-0.3,0.3,0.4,0.3,0.4,0.6c-0.1,0.4-0.1,1,0.3,1.2c-0.2-0.6-0.1-1.2-0.2-1.8
				c0,0-0.1-0.1-0.2-0.1c0.2-0.4-0.3-0.8-0.2-1.2c-0.2,0-0.5,0.4-0.7,0.1c-0.1-0.2,0.2-0.3,0.3-0.4c0-0.2-0.2-0.4-0.2-0.7
				c0.1-0.6,0-1.2,0.1-1.9c0,0-0.2,0-0.2,0c0,0.8-0.5,1.6,0,2.3c-0.2,0.3-0.5-0.3-0.5-0.5c0.3-0.4-0.2-0.7-0.3-1
				c0.1-0.8,0.5-1.5,0.2-2.3c-0.2-0.3,0.4-0.2,0.3-0.5c-0.1-0.4-0.8-0.3-0.4-0.9c0-0.5,0.3-1,0-1.4c0-0.5,0.4-1.1-0.1-1.5
				c-0.4,0.1-0.4,0.6-0.2,0.9c0.2,0.3-0.4,0.6-0.6,0.4c-0.3-0.6,0.2-1.2,0.2-1.8c-0.2-0.7,0.3-1.4,0.2-2.1c-0.1-0.4-0.3-1,0.1-1.3
				c-0.1-0.8,0-1.7-0.3-2.4c0-0.2,0.3-0.7-0.1-0.7c-0.1-0.4,0.3-0.7,0.2-1.1c-0.1-0.4,0-0.8-0.1-1.2c-0.1-0.3-0.2-0.5-0.1-0.8
				c0.2-0.4-0.4-0.8-0.2-1.3c-0.2-1.7-0.5-3.4-1.3-4.9c-0.4-0.7-0.8-1.4-1.4-2c-0.3-0.4-0.9-0.9-0.5-1.5c0.3-1.1,1.2-2,1-3.2
				c0-1.6-1-2.8-1.9-4c-0.6-0.7-1.4-1.1-2.1-1.6c-0.4-0.1-0.8-0.4-1.2-0.6c-0.8-0.2-1.6-0.8-2.5-0.8c-2.3,2.2-3.9,5.1-5.3,8
				c-0.2,0.5-0.4,1.1-0.8,1.4c-1.6,1.6-2.9,3.4-4,5.3c-1.6,2.6-2.8,5.6-4.1,8.4c-1.5,3.5-3.1,7-4.2,10.7c-2.1,5.1-2.2,10.6-3,16
				c-0.4,2.9-0.9,5.8-0.9,8.6c-0.4,1.9,0,3.9-0.3,5.8c-0.1,2.3,0,4.6,0,6.9c0,0.7,0.3,1.4,0.1,2.1c-0.2,0.4,0.3,0.7,0.4,1
				c0.7,0.4,1.3,1.1,2.1,1c1.2,0.5,2.5,0.7,3.7,0.2c0.5,0.2,0.8-0.4,1.3-0.4c0.4-0.2,0.9-0.2,1.3,0.1c0.5-0.3,0.5-1.3,1.4-0.8
				c0.3-0.4,0.2-0.9,0.4-1.3c0.4-0.4,0.5-0.9,0.7-1.4c0.4-0.6,0.4-1.3,0.9-1.9c0.8-1,0.8-2.4,1.4-3.4c0.1-0.3,0-0.7,0.1-0.9
				c0.1-0.4,0.4-0.8,0.3-1.2c0.6-2.9,1.4-5.8,1.9-8.8c0.3-0.6,0.2-1.4,0.5-2.1c0.2-1.6,0.9-3,1.1-4.6c0.1-0.7,0.4-1.3,0.4-1.9
				c0.6-1.4,0.7-3,1.3-4.4c0.2-1.3,0.9-2.5,0.9-3.8c0.1-0.6,0.5-1.1,0.6-1.7c0.4-0.9,0.4-1.9,0.8-2.7c0-0.5,0.2-0.9,0.3-1.3
				c0.1-0.3-0.1-0.8,0.2-1c0.4-0.1,0.2,0.7,0.4,0.9c0.6,4.8,1.7,9.5,3.1,14c1,3.3,2.3,6.5,3.6,9.6c2.2,5.1,4.7,10.1,8.1,14.5
				c1.4,1.9,2.9,3.8,4.7,5.3c1.4,0.7,2.9,1.4,4.5,1.2c0.2-0.3,0.4-0.5,0.7-0.7c0.3-0.5-0.5-1.2,0-1.7c0.5,0.2,0.3,0.8,0.4,1.3
				c-0.4,0.7,0.2,0.6,0.5,0.6c0-0.3,0.2-0.6,0.1-1c-0.4-0.6,0.2-0.7,0.6-0.8c0.1-0.3,0.4-0.6,0.1-0.9c0.4,0.1,0.4-0.5,0.8-0.3
				c0.2,0.2,0.3,0.4,0.6,0.3c0.2-0.2,0.3-0.4,0.4-0.6c-0.1-0.6,0-1.3,0.4-1.8c-0.1-0.4-0.1-0.9-0.3-1.3c0.2-0.6,0-1.6,0.7-1.9
				c0.3-0.2,0-0.7,0.4-0.6c0,0.4,0,0.7-0.2,1c0.2,0.5,0,0.9,0,1.4c0.1-0.1,0.2-0.2,0.3-0.3c-0.1-0.4,0-0.9,0.1-1.3
				c0-0.2-0.1-0.5-0.1-0.7c0.3-1.1-0.1-0.5-0.3-0.3c0-0.5,0.2-0.9,0.3-1.4c-0.1-0.4-0.1-0.9,0.2-1.2c0,0.2,0,0.5,0.2,0.4
				c0.1-0.9,0-1.8,0.5-2.6c-0.3-0.5,0.2-0.6,0.5-0.8c0-0.5,0.3-1-0.1-1.4c0.4-0.3,0-0.7,0.2-1.1c0.2-0.6-0.1-1.2,0.3-1.7
				c0.6-1.1,0.8-2.4,0.6-3.7c-0.1-0.5,0-1.1,0.2-1.6c0.5,0.4,0,1.2,0.2,1.8c0.1,0,0.2,0,0.2,0c-0.2-1.5,0.1-2.9,0.3-4.4
				c0.5,0,0.3,0.5,0.2,0.8c0.2,0.3,0.2,0,0.3-0.3c0.2-0.5-0.4-1.1,0-1.6c0.7-0.3,0,1,0.4,1c0-0.3,0-1,0-1.3c-0.1,0-0.2,0.1-0.3,0.1
				c0.2-1,0-2,0-3.1c0.7-0.5,0.3-1.5,0.9-2c-0.1,0.5,0.3,0.8,0.2,1.3c-0.2-0.1-0.2-0.4-0.4-0.4c0.2,0.6-0.3,1-0.4,1.5
				c0.1,0,0.3-0.1,0.4-0.1c0.1-0.3,0-0.7,0.2-0.9c0.2,0.6-0.4,1.3,0.1,1.8c0-0.2,0-0.5,0.1-0.7c0.1,0,0.2-0.1,0.2-0.3
				c-0.1-0.6,0.3-1,0.4-1.5c-0.2-0.5,0.4-0.8,0.3-1.3c0-0.5,0.1-1.1,0-1.6c0.1,0,0.3,0,0.3,0c0,0.5-0.2,1.1-0.1,1.6
				c0.1,0,0.2,0,0.2,0c0.1-0.6,0.2-1.3,0.2-1.9c0.1-0.5,0.3-1.1,0.3-1.6c0.4-0.6,0.2-1.4,0.5-2c0.2-0.3-0.2-0.7,0-1
				c0.2-0.2,0.3-0.5,0.2-0.9c0.1-0.8,0-1.7,0.1-2.5c0.3-0.4,0.5-0.9,0.6-1.4c0.1-0.1,0.1-0.3,0.3-0.2c0.2,0.1,0.2,0.4-0.1,0.5
				c-0.3,0.6,0.1,1.1-0.1,1.7c-0.2,0.3,0.3,0.2,0.3,0c0-0.8,0.5-1.6,0.3-2.4c0.3-0.4,0.3-1,0.4-1.4c-0.7,0,0.1,1.3-0.7,1
				c0.2-0.5,0-1.1,0.3-1.5c0.2-0.4,0-0.9,0.1-1.3c0.3-0.8,0.5-1.5,0.7-2.3c0.1-0.1-0.1-0.9,0.3-0.8c0.1,1.4,0,0,0.4-0.3
				c0.1-0.3,0.5-0.9,0.1-1c-0.1-0.2,0.1-0.4,0.2-0.6c0.1-0.5,0.4-1,0.5-1.5c-0.2,0-0.3,0-0.5,0c-0.1-0.3,0.1-0.4,0.3-0.5
				c0.2-0.5,0.3-1,0.3-1.6c0.4-0.5,0.6-1.2,0.7-1.9c-0.2-1.1,0.3-2.2,0-3.2c-0.1-0.6,0.1-1.2,0.1-1.8l0.1,0c0,1-0.1,1.9,0.1,2.9
				c-0.1,0.6-0.3,1.2-0.2,1.8c0.1,0.3,0.4-0.1,0.5-0.3c-0.1,0-0.2,0.1-0.4,0.1c0.1-0.5,0.1-1,0.5-1.4c-0.4-1.1,0.6-2,0.4-3.1
				c0.3,0.4,0.3,1,0.4,1.5c0.5,0.8-0.7,0.5-0.4,1.2c0,0.2-0.2,0.5,0.2,0.4c0-0.4,0.3-0.6,0.4-1c0.1-0.4,0.5-0.7,0.4-1.2
				c0.3-0.5,0.6-1,0.8-1.5c-0.1,0-0.3,0.1-0.3-0.1c-0.1-0.4,0.3-0.5,0.4-0.8c-0.1-0.2-0.2-0.3-0.3-0.5c0,0.1,0,0.3,0,0.4
				c0,0.4-0.9,0.3-0.3-0.3c-0.2-0.3,0.1-0.8,0.4-0.8c0.1-0.2,0.2-0.4,0.5-0.4c0.1-0.3,0.2-0.6,0-0.9c0.1,0,0.2,0.1,0.3,0.1
				c0-0.5,0.2-1,0-1.5c-0.1-0.4,0.1-0.7,0-1.1c0.2-0.8,0.9-1.3,1.1-2c0.2-0.3,0.4-0.5,0.7-0.8c0.2,0,0.5-0.1,0.7,0.1
				c-0.3,0.3-0.7,1-0.2,1.3c0.2-0.6,0.3-1.3,0.7-1.8c0.2,0.3,0.7,0.1,0.7-0.2c-0.1,0-0.2,0.1-0.4,0.1c0-0.6,0.5-1.1,0.7-1.7
				c0.1-0.2,0.4-0.3,0.3-0.6C231,149.7,230.7,149.4,230.8,149.6z M229.9,148.8c0.2-0.1,0.4,0.1,0.3,0.3
				C230,149.3,229.7,149,229.9,148.8z M190.9,180.9c0.4,0,0.3,0.5,0.4,0.8C190.9,181.7,191,181.1,190.9,180.9z M191.9,181.4
				c-0.4-0.2-0.4-0.6-0.3-1C191.8,180.7,192,181,191.9,181.4z M192.5,188.3c0-0.2-0.2-0.5,0-0.7
				C192.8,187.6,192.8,188.2,192.5,188.3z M195.3,199.2c-0.1-0.4-0.1-0.8-0.1-1.2l0.1,0C195.2,198.4,195.8,199,195.3,199.2z
				 M197.8,205.4c-0.1-0.1,0-0.4,0.1-0.4C198.1,205,198.1,205.6,197.8,205.4z M198.8,207.8c-0.5-0.3,0.1-1.2-0.2-1.6
				c0.3,0,0.1,0.5,0.3,0.7C198.9,207.1,198.8,207.5,198.8,207.8z M209.8,214.4c0.1-0.4,0.2-0.8,0.4-1.1c0.3-0.2,0.1,0.6-0.1,0.7
				C210.1,214.2,210.1,214.8,209.8,214.4z M210,217.5c0-0.3,0-0.5,0-0.8C210.5,216.6,210.2,217.3,210,217.5z M210.4,214.5
				c0-0.2,0.1-0.4,0.1-0.6C210.9,214,210.6,214.4,210.4,214.5z M210.7,212.6c-0.1,0-0.3,0-0.4,0c0-0.2,0-0.3,0.1-0.4
				C210.8,212,210.8,212.3,210.7,212.6z M210.9,210.9c0,0.1-0.4,0.2-0.3,0.1c0.1-0.3-0.1-0.5-0.2-0.7c0-0.4,0.1-0.9,0.5-1.1
				c0,0,0.2,0,0.2,0C211.2,209.6,210.7,210.2,210.9,210.9z M211.9,190.8c0.5,0,0.3,0.6,0.2,0.9C211.6,191.9,211.9,191.1,211.9,190.8
				z M211.9,198.3c0,0.1-0.1,0.2-0.1,0.2c0-0.1,0-0.2,0-0.2L211.9,198.3z M211.4,208.7c-0.2-0.1,0-0.4,0-0.6
				C211.7,208.1,211.7,208.7,211.4,208.7z M211.8,198.8c0.1,0.2,0.4,0,0.5-0.3c0.1,0.6-0.2,1.1-0.3,1.6
				C211.6,199.9,211.7,199.3,211.8,198.8z M212.4,206.3c-0.4,0.1-0.2-0.7-0.3-0.8c0.4,0,0.4-0.4,0.6-0.6l0.1-0.1
				C212.7,205.4,212.7,205.9,212.4,206.3z M212.7,194.5c-0.1-0.1-0.1-0.3,0-0.4C213,194,213,194.6,212.7,194.5z M213.2,193.5
				c-0.5,0.1-0.3-0.3-0.2-0.6C213.4,192.8,213.2,193.3,213.2,193.5z M219.2,174.4c0.2-0.1,0,0.4,0.1,0.6
				C219,174.9,219,174.5,219.2,174.4z M216.7,184.9c0.1,0.6-0.1,1.2-0.2,1.7c-0.4,0.1-0.3-0.4-0.2-0.6c0.2-0.3,0.1-0.7,0.2-1.1
				C216.5,184.9,216.6,184.9,216.7,184.9z M216.5,189.7c-0.3-0.2-0.3-0.6-0.1-0.8C216.9,188.8,216.5,189.4,216.5,189.7z
				 M216.1,180.9c0,0,0.1,0,0.2,0c-0.1,0.4,0.3,1.4-0.2,1.6C215.7,182,216.4,181.4,216.1,180.9z M214.7,191.4
				c-0.1-0.1-0.1-0.3,0-0.4C215.1,190.8,215,191.5,214.7,191.4z M215.5,186.6c0-0.2-0.1-0.5,0.1-0.6
				C215.8,185.9,215.8,186.6,215.5,186.6z M216.1,193.1c-0.3,0.1-0.2-0.4-0.3-0.7c0.1,0,0.3,0,0.3,0c-0.2-0.4-0.1-0.8,0.2-1.1
				c0.1,0,0.2,0,0.2,0C216.4,191.9,216.3,192.6,216.1,193.1z M216.5,190.5c-0.4,0.1-0.2-0.5-0.1-0.7
				C216.9,189.7,216.5,190.3,216.5,190.5z M217.5,186.9c-0.1,0.6-0.5,1.1-0.5,1.7c0,0.3-1,0-0.3-0.5c-0.2-0.6,0.2-1.1,0.2-1.6
				c0.1-0.6,0-1.2,0-1.7c0.1,0,0.2,0,0.2,0c0.1,0.6,0.1,1.1,0.1,1.7C217.4,186.4,217.7,185.8,217.5,186.9z M217.8,184.5
				c0.4,0.9-1.1,0.5-0.5-0.1c0.3-0.8,0.1-1.7,0.1-2.5c0.3-0.5,0-1.1-0.1-1.7c0.1-0.1,0.2-0.2,0.2-0.2l0.1-0.1c0.1,0.6,0.1,1.2,0,1.7
				c0.2,0.5,0.4,1,0.1,1.5C217.6,183.6,217.9,184.1,217.8,184.5z M219.2,180.2c0.1,0.4-0.2,0.6-0.3,0.9c0,0-0.1,0-0.2,0
				c-0.1-0.3-0.1-0.7-0.3-0.9c0,0.5-0.1,1,0,1.5c-0.4,0.1-0.3-0.6-0.3-0.8c-0.1-0.7,0.1-1.5,0.2-2.2c0.2-0.2,0.2-0.5,0.4-0.7
				l0.1-0.1c0,0.5,0,1,0,1.5c0.1,0,0.2,0,0.3-0.1C219.5,179.5,219.2,179.9,219.2,180.2z M220.3,173.8c-0.2,0.4-0.2,0.8-0.1,1.2
				c0,0.7-0.6,1.3-0.4,1.9c-0.1,0.2-0.4,0.5-0.2,0.8c0.1,0.3,0.1,1.1-0.4,1.1c0.1-0.5,0-0.9-0.3-1.3c-0.1-0.8,0-1.5,0.1-2.3
				c0.2-0.3,0.4,0.1,0.4,0.3c0.3-0.6,0.6-1.2,0.3-1.8c0.1-0.5,0.2-1,0.2-1.5c0.3,0.2,0.1,0.6,0.1,0.9
				C220.2,173.3,220.7,173.1,220.3,173.8z M221.2,173.7c-0.2,0-0.2-0.1-0.3-0.3c0-0.4-0.1-0.9,0-1.3c-0.1,0.1-0.4,0.1-0.4-0.2
				c-0.3,0.1-0.1,0.6-0.4,0.5c-0.2-0.5,0.2-0.9,0.1-1.3c-0.2-0.3,0.8-0.7,0.2,0.3c0,0.2,0,0.4,0.2,0.3c0.2-0.6-0.3-1.4,0.1-1.9
				c0.3,0.1,0.1,0.6,0.5,0.7c0,0.4-0.3,0.8-0.4,1.2c0.1,0.1,0.1,0.2,0.1,0.3c0-0.1,0.1-0.2,0.2-0.3c0.3,0.1,0.3,0.5,0.3,0.8
				C221.6,172.9,221,173.3,221.2,173.7z M221.4,171.5c0-0.3,0.1-0.7,0.1-1C221.8,170.8,221.9,171.6,221.4,171.5z M222.2,168.4
				c-0.2,0.3-0.2-0.3-0.4-0.4c0,0.2,0,0.5-0.3,0.4c0.1-0.5,0.1-1.1,0.5-1.5l0.1-0.1C221.9,167.4,222.7,167.9,222.2,168.4z
				 M222.8,167c0,0.2,0,0.7-0.3,0.6c-0.2-0.5,0.1-1,0.2-1.4C223,166.3,222.6,166.7,222.8,167z M224.8,162.2c-0.1,0-0.2,0-0.2,0
				c0-0.8-0.2-1.6,0.1-2.3c0.1,0,0.2,0,0.2,0C224.8,160.7,225,161.5,224.8,162.2z M226.5,152.7c0.4,0.1,0,0.6,0.1,0.9
				C226.3,153.4,226.3,152.9,226.5,152.7z M226.1,157.7c0,0.2-0.2,0.4-0.4,0.6c0-0.2,0-0.5,0-0.7c-0.5,0.2,0.2,1-0.4,1.1
				c0-0.5-0.1-1.1,0.2-1.5c0.3-0.1,0.3,0.3,0.5,0.5c0.1-0.3,0-0.7,0.4-0.8c0.1,0,0.2,0,0.3,0C226.5,157,226.6,157.6,226.1,157.7z
				 M228.9,146c-0.3,0.2-0.3-0.3-0.1-0.4C228.9,145.5,229.1,146,228.9,146z M229.1,152.3c0-0.3,0.1-0.5,0.3-0.7
				C229.8,151.7,229.5,152.4,229.1,152.3z"/>
			<path class="st0" d="M229.7,146.6c-0.2,0.1-0.1,0.4-0.1,0.6C229.8,147.1,230.1,146.7,229.7,146.6z"/>
			<path class="st0" d="M230.9,147.9c-0.1,0.1,0,0.4,0.2,0.4C231.3,148.2,231.1,147.9,230.9,147.9z"/>
			<path class="st0" d="M228.1,154.4c-0.2,0.2-0.4,0.9,0.1,0.9C228.3,155,228.3,154.7,228.1,154.4L228.1,154.4z"/>
			<path class="st0" d="M227.8,155.4c-0.1,0.5-0.6,0.8-0.5,1.4c0.5,0.1,0-0.7,0.5-0.8C228.1,156,228.1,155.3,227.8,155.4z"/>
			<path class="st0" d="M192.2,176.9L192.2,176.9c-0.4,0.6-0.3,1.3-0.3,1.9C192.2,178.3,192.1,177.6,192.2,176.9z"/>
			<path class="st0" d="M218.5,179.7c0.4-0.1,0.2-0.7,0-0.8C218.5,179.2,218.5,179.5,218.5,179.7z"/>
			<path class="st0" d="M192.8,184.5c0.1,0,0.2-0.2,0.3-0.2c-0.1-0.7-0.1-1.3-0.1-2l-0.1,0.1c-0.4,0.3,0.3,0.9-0.1,1.3
				C192.8,183.9,192.5,184.2,192.8,184.5z"/>
			<path class="st0" d="M219.2,184.3c-0.2,0.1-0.5,0.3-0.2,0.5C219.2,185.3,219.6,184,219.2,184.3z"/>
			<path class="st0" d="M216.9,192.5c0,0.2,0,0.4-0.2,0.6c0,0.3,0,0.5,0,0.8c0.2-0.1,0.3-0.4,0.3-0.7
				C217.1,193,217.4,192.3,216.9,192.5z"/>
			<path class="st0" d="M215.1,195.6c0,0.2,0,0.4,0,0.6C215.4,196,215.5,195.5,215.1,195.6z"/>
			<path class="st0" d="M215.9,196.1L215.9,196.1c-0.2,0.3-0.3,0.6-0.5,0.8c-0.4,0.2,0-0.5-0.3-0.5c0,0.3,0,0.9,0,1.2
				c0.2-0.1,0.1-0.4,0.2-0.5c0.2,0,0.2,0.1,0.3,0.2C215.5,197,215.9,196.6,215.9,196.1z"/>
			<path class="st0" d="M210.2,218.9c0,0.2-0.1,0.6,0,0.7C210.3,219.4,210.4,219,210.2,218.9z"/>
			<path class="st0" d="M210.5,219.4c0,0.5,0,1-0.2,1.5c-0.3,0.1-0.1,0.3-0.1,0.5c0.1-0.2,0.2-0.2,0.4-0.2c0.2-0.4,0.2-0.9,0.2-1.4
				C210.7,219.7,210.6,219.6,210.5,219.4z"/>
			<path class="st0" d="M208.9,223.2c-0.1,0.1-0.2,0.3-0.3,0.4c0.1,0,0.3,0,0.3,0C209,223.5,209.1,223,208.9,223.2z"/>
		</g>
		<path class="st0" d="M257.3,167.4c0.3,0,0.8-0.1,1.1-0.1c1.8,0.8,3.6,1.8,5.2,3c1.1,0.5,1.3,1.7,2.2,2.4c0.8,0.5,0.7,1.6,1.2,2.3
			c0.1,1.2,0.6,2.4,0.1,3.6c-0.2,0.9-0.6,1.7-0.9,2.6c-0.3,0.3-0.5,0.6-0.6,1c-0.9,0.7-1.8,1.5-2.9,1.8c-1.2-0.2-2.5,0-3.8,0.1
			c-2,0.7-3.7,2-5.5,3.1c-1,1.4-2.9,1.6-4,2.8c-0.9,0.6-1.3,1.6-2.4,2c-1.4,1.6-2.9,3.1-4.4,4.6c-0.9,1.4-2,2.7-2.8,4.2
			c-0.2,1-0.6,1.9-0.7,2.9c-0.9,0.8-0.9,2.1-1.5,3.1c0.1,0.8,0.2,1.6,0.2,2.4c-0.3,1.3,0.6,2.4,1.2,3.4c3.8,3.8,9.6,4.1,14.5,3.4
			c3.6-0.9,7.3-1.5,10.8-2.8c1.8-0.7,3.6-1.4,5.4-1.8c-0.5,1.2-1.3,2.3-2.4,3.1c-0.6,0.4,0.1,1,0.2,1.5c-0.9-0.2-0.6,1-1.4,1.1
			c-0.7,0.1-0.9,0.9-1.5,1.1c-0.5,0.7-1.1,1.5-1.2,2.4c-0.5,0.9-1.5,1.3-2.1,2.1c-1.1,0.7-2.3,1.2-3.2,2.2c-0.6,0-1,0.3-1.3,0.7
			c-0.2,0.4,0.4,0.5,0.6,0.7c-0.9,0.2-2.3,0.7-2.7-0.4c-2.5,0.1-4.8,2-7.4,1.1c-5.4,0.4-11.2-0.7-15.5-4.2c-2.7-2-5.2-4.6-6.5-7.8
			c-1.7-3.4-2-7.3-1.9-11c0-1.8,0.6-3.6,0.9-5.3c0-1.6,1-2.9,1.4-4.4c1.5-3.6,3.7-6.8,6-9.9c2-2,3.6-4.5,6.1-6
			c1.9-2,4.2-3.6,6.4-5.3c1.6-0.9,2.9-2.2,4.6-2.8c0.8-0.3,1.5-1,2.3-1.3C253.1,168.7,255.1,167.7,257.3,167.4z"/>
		<g>
			<path class="st0" d="M338.8,200.2c-1.4,0.6-2.5,1.7-3.8,2.5c-1.9,1.2-3.7,2.6-5.6,3.7c-1.9,1.2-3.8,2.4-5.8,3.3
				c-0.8,0.6-1.9,0.7-2.8,1c-1.8,0.6-3.6,1.4-5.4,2c-1.7,0.7-3.5,1.3-5.3,1.5c-1.1,0.4-2.3-0.2-3.3,0.2c-0.7,0.3-1.5-0.1-2.3-0.1
				c-0.2-0.1-0.5-0.4-0.5,0c-0.9,0.1-1.8,0-2.7,0c0.2-0.6-0.1-0.7-0.3-1c-1.4-0.4-2.8-0.2-4.2-0.5c-2.3-0.2-4.6-0.6-6.8-1.6
				c-1.8-0.9-3.6-2-4.6-3.7c0.4-0.3,0.9,0,1.3-0.1c0.8-0.3,1.5-0.7,2.3-1c0.4-0.5,1.1-0.1,1.7-0.2c0.9-0.6,2.1-0.4,3-1
				c0.3-0.4,0.6,0,0.9-0.2c0.5-0.3,1.2-0.3,1.5-0.9c0.5-0.1,1.2,0,1.5-0.6c0.6,0.2,1.1-0.4,1.7-0.5c1.8-0.7,3.5-1.6,5.2-2.6
				c0.2-0.4,0.6-0.4,1-0.4c0-0.5,0.4,0,0.7-0.2c0.3-0.1,0.4-0.4,0.6-0.6c0.3-0.1,0.4-0.2,0.6-0.4c0.6-0.3,1.3-0.3,1.7-0.9
				c0.9,0.1,1.4-1.2,2.3-1.2c0.7,0.4,0.8-0.7,1.3-0.9c0.3-0.1,0.2,0.4,0.5,0.3c0-0.3,0.1-0.5,0.4-0.7c0.4,0.1,0.9,0,1.2-0.3
				c0.1-0.3,0.1-0.5,0.2-0.8c0.2-0.1,0.5-0.2,0.6-0.4c0.2-0.2,0.1-0.7,0.5-0.6c-0.1,0.4,0,0.7,0,1.1c0.4-0.4,0.9-0.8,1-1.3
				c-0.3,0.3-1.3,0.6-0.7-0.4c0.4-0.2,0.8-0.3,1.3-0.2c0-0.6,0.7-0.7,1-1.1c0.3-0.4,0.7-0.6,0.8-1.1c0.1,0.1,0.2,0.2,0.4,0.2
				c0.1-0.4,0.6-0.7,0.4-1.2c0.2,0,0.3,0.1,0.5,0.1c0.2-0.2,0.1-0.6,0.3-0.9c0.8,0.4,0.7-1.1,1.3-1.3c0.5-0.2,0.3-0.7,0.2-1.1
				c0.6-0.6,0.7-1.5,1.5-1.9c1-0.2,0-0.9,0.4-1.3c0.5-0.5,0.9-2.2-0.4-1.6c-0.1-0.5-0.2-1,0-1.4c0.3,0,0.9,0,0.7-0.4
				c-0.1-0.3,0.2-0.6,0.2-0.9c-0.2,0.1-0.3,0.2-0.5,0.3c0.1-0.6,0.1-1.2,0-1.7c-0.3-0.2-0.7-0.3-0.5-0.7c-0.4-0.3-0.2-1.1-0.8-0.9
				c0,0.3,0,0.6-0.3,0.3c0.1-0.3,0.2-1-0.3-1c0.4,0.6-1,0.4-0.2,1.2c0.1,0.3-0.3,0.2-0.5,0.2c0-0.4-0.3-0.7-0.5-1
				c-1.2,0.4-0.3-0.8-0.5-1.1c0.2,0.2,0.3,0.4,0.4,0.6c0.2-0.1,0.6-0.1,0.7-0.3c-0.2-0.1-0.7,0.1-0.6-0.2c0.3-0.5-0.4-0.5-0.7-0.6
				c-0.2,0.4-0.4,0.7-0.6,1.1c-0.1-0.5-0.1-1.1,0-1.6c-0.2-0.3-0.5,0.1-0.8,0.1c-0.6-0.9-1.8-0.8-2.8-0.9c-0.7-0.1-1.4,0.3-2-0.2
				c-1.2,0.1-2.4-0.1-3.6,0.1c-0.7,0.1-1.4,0-2.1,0.2c-0.6,0.1-1.3-0.3-1.9,0c-0.8,0.5-1.8,0.3-2.7,0.5c-0.8-0.3-0.9,0.8-1.5,0.8
				c-0.2-0.1-0.4-0.3-0.6-0.3c0.2,0.4-0.3,0.6-0.6,0.4c-0.1-0.3-0.6-0.3-0.9-0.4c-0.2,0.3-0.4,0.6-0.9,0.5c-0.4,0.5-1.1,0.4-1.6,0.5
				c-0.2,0.3,0.6,0,0.4,0.2c-0.1,0.2-0.3,0.2-0.4,0.3c-0.7,0-1.3,0.4-2,0.6c-0.6-0.3-1,0.5-1.7,0.2c-0.4,0.1-0.8,0.3-1.2,0.5
				c-0.4,0-1-0.4-1.2,0.1c-0.3,0.3-0.9,0-1,0.4c-0.2,0.3-0.3,0.6-0.5,0.8c-0.6,0.2-1,0.8-1.6,0.7c-0.6,0.6-1.5,0.7-2.1,1.3
				c-0.9,0.4-1.5,1.4-2.5,1.6c-1,0.2-1.5,1.3-2.4,1.8c-0.9,0.5-1.6,1.3-2.5,2c-1.5,1.1-2.6,2.6-3.9,3.9c-0.5,0.8-1.3,1.4-1.6,2.3
				c-0.5,0.2-0.2,0.9-0.7,1.2c-0.4,0.2-0.7,0.7-0.8,1.1c0,0.2,0.3,0.6-0.1,0.6c-0.5,0.1,0.3,0.9-0.3,0.6c-0.6,1-0.4,2.3-0.7,3.5
				c-0.3,2.4-0.2,4.9,0.3,7.3c0,1,0.6,1.7,0.8,2.6c0,0.5,0.3,0.8,0.7,1.1c0.2,0.9,0.7,1.7,1.3,2.3c0.1,0.7,0.6,1.1,0.8,1.7
				c0.8-0.1,0.8,1,1.3,1.4c0.6,0.3,1.2,0.8,1.4,1.4c0.4,0.2,0.9,0.3,0.9,0.8c0.3,0.1,0.8-0.3,0.8,0.2c0,0.5,0.7,0.4,0.8,0.8
				c0.1,0.4,0.6,0.5,0.9,0.4c0.2,0.5,0.8,0.7,1.2,1c1.1,0.1,1.9,1.1,3,1.3c0.3,0.2,0.3-0.3,0.5-0.4c0.1,0.2-0.1,0.6,0.2,0.7
				c1.4,0.3,2.8,0.7,4.2,0.8c0,0.3-0.4,0.9,0.1,0.7c0.5-0.4,1.2-0.6,1.8-0.2c0.8,0.1,1.6-0.1,2.4-0.1c0.1,0.6,0.6,0,0.9,0
				c0,0.2,0,0.4,0.2,0.6c0.3,0.1,0.3-0.2,0.5-0.4c0.3-0.2,0.7,0.1,1,0.2c0.6-0.4,1.3-0.4,2-0.6c0,0.1,0,0.3,0,0.5
				c0.4-0.1,0.8-0.2,1.3-0.4c0.5,0,1,0.1,1.5,0.2c0.3,0.4,0.5-0.4,0.8-0.2c0.3,0,0.2,0.3,0.3,0.5c0.3,0,0.3-0.3,0.4-0.4
				c0.5-0.2,0.9-0.1,1.4-0.1c0.5-0.1,1-0.2,1.6-0.3c0-0.2,0.1-0.3,0.3-0.2c0.4,0.1,0.7-0.2,0.8-0.5c0.5-0.1,1,0.3,1.5,0
				c0.2-0.3,0.9-0.5,1,0c0.6,0.1,1.5-0.8,1.8-0.1c0.5-0.1,1.1-0.1,1.6-0.4c0.5,0.2,0.7-0.1,0.9-0.4c0.3,0,0.5,0.1,0.8,0.1
				c0.2-0.2,0.3-0.6,0.6-0.6c0.4,0,0.5-0.5,0.9-0.4c0.4,0,0.7-0.5,1.1-0.5c0.7,0.3,1-0.5,1.6-0.6c0.5,0.2,0.3-0.6,0.7-0.7
				c-0.2,0.6-0.4,1.1-0.6,1.6c0.6-0.1,0.8-0.9,1.3-1.2c0.7-0.4,1.6-0.3,2.1-1c0.4,0.2,0.5-0.3,0.9-0.3c0.7,0.3,0.8-0.6,1.5-0.5
				c0.7,0.7,1.5-1.2,0.1-0.4c0.1-0.3,0.7-0.1,0.9-0.4c0.5-0.2,0.6-0.9,1.3-0.8c0.4-0.5,1-0.9,1.3-1.5c0.8-0.4,1.6-0.9,2.3-1.5
				c0.4-0.1,1.2-0.2,0.9-0.8c0.3-0.7,1.2-1,1.3-1.8c0.2-0.2,0.5-0.4,0.7-0.6c0.1-0.2,0.7-0.1,0.5-0.5c0-0.2-0.2-0.5,0-0.7
				c0.3-0.3,0.3,0.5,0.6,0.3c0.5-0.7,0.7-1.6,0.8-2.4c0.4-0.5,0.3,0.5,0.7,0.6c-0.3-1.1,0.8-1.5,1-2.3c0.4-0.4,0.5-1,0.8-1.4
				C338.4,201,338.9,200.7,338.8,200.2z M323,177c-0.4-0.1-0.1-0.8,0.1-1c0.2-0.2,0.1,0.3,0.2,0.4c0.1,0.5-0.2,1.1-0.4,1.6
				c-0.1,0-0.3-0.1-0.4-0.1C322.3,177.4,323.1,177.4,323,177z M321.9,182.8c0.2-0.1,0.1,0.9-0.4,0.7
				C321.6,183.2,321.8,183,321.9,182.8z M319.9,175.1c0.3-0.2,0.3,0.3,0.2,0.5C319.8,175.7,319.7,175.3,319.9,175.1z M319.7,173.7
				c-0.4-0.1-1.2,0-1.2-0.6C319,173.2,319.6,173.1,319.7,173.7z M282.7,200.1c0.1-0.5-0.5-1.3,0-1.7c0.4-0.3,0.3-0.9,0.4-1.4
				c0.5-1,0.8-2,1.2-3.1c0.1-0.3-0.1-0.5,0-0.8c0.3-0.2,0.7-0.4,0.7-0.8c0.2-1.1,1.2-1.6,1.8-2.5c0.4-0.3,0.7-0.6,0.7-1.2
				c0.8-0.5,1.2-1.4,2-1.8c0.3-0.5,0.7-1,1.2-1.2c0.2-0.5,0.9-0.4,0.9-1c0.5-0.1,0.7-0.6,1-0.9c1.4-0.9,2.7-1.9,4.1-2.8
				c1.4-0.8,2.9-1.4,4.3-2c1.1-0.3,2.2-0.5,3.1-1.1c0.7,0.2,1.2-0.5,2-0.2c0.3-0.4,0.8-0.6,1.3-0.7c-0.1,0.7,0.7,0.4,1.2,0.4
				c0.6-0.3,1.2-0.5,1.8-0.7c0.9-0.2,1.7,0.3,2.4,0.9c0.3,0.7,1,1.3,0.8,2.1c0.3,0.2,0.7,0.9,0.1,1c-0.2,0.9,0.5,1.9-0.2,2.6
				c-1.8,3.4-5.2,5.2-8.3,7.3c-0.9,0.5-1.8,1-2.7,1.4c-1.8,1.1-3.8,1.7-5.6,2.9C292.3,196.8,287.6,198.8,282.7,200.1z"/>
			<path class="st0" d="M299.2,172.9c-0.2,0.1-0.3,0.3-0.3,0.5c0.2-0.1,0.4-0.1,0.6-0.2C299.5,173.1,299.4,172.8,299.2,172.9z"/>
			<path class="st0" d="M321.7,174.5c0,0.2,0,0.4,0.2,0.6c0.2-0.1,0.4-0.2,0.4-0.4C322.2,174.4,321.9,174.5,321.7,174.5z"/>
			<path class="st0" d="M313.5,179.3c0.1-0.2-0.2-0.5-0.4-0.5C313,179,313.2,179.5,313.5,179.3z"/>
			<path class="st0" d="M317,193.4c0.3-0.1,0.5-0.3,0.9-0.4c0.1-0.4-0.5-0.3-0.7-0.4C317.2,192.9,317.1,193.2,317,193.4z"/>
			<path class="st0" d="M326.7,214.7c0,0.1,0,0.3,0,0.5c0.3,0,0.5-0.2,0.4-0.4C327,214.7,326.8,214.7,326.7,214.7z"/>
		</g>
	</g>
	<g>
		<path class="st0" d="M154.3,240.1h-2v6.6c0,0.4,0,0.7,0.1,0.9c0.1,0.2,0.2,0.4,0.4,0.5c0.2,0.1,0.4,0.2,0.6,0.2c0.2,0,0.5,0,0.9,0
			v0.6c-0.4,0-0.7,0-1,0c-0.3,0-0.6-0.1-0.9-0.3c-0.3-0.2-0.5-0.4-0.6-0.7c-0.2-0.3-0.2-0.7-0.2-1.3v-6.6h-1.7v-0.6h1.7v-2.9h0.7
			v2.9h2V240.1z"/>
		<path class="st0" d="M157.2,244.3v0.1c0,0.5,0.1,1.1,0.2,1.6c0.1,0.5,0.4,0.9,0.6,1.3c0.3,0.4,0.6,0.7,1.1,0.9
			c0.4,0.2,0.9,0.3,1.5,0.3c0.9,0,1.7-0.2,2.2-0.7c0.5-0.5,0.9-1.2,1.1-2.1h0.7c-0.2,1.1-0.7,1.9-1.3,2.5c-0.7,0.6-1.6,0.9-2.7,0.9
			c-0.7,0-1.3-0.1-1.8-0.4c-0.5-0.2-0.9-0.6-1.3-1c-0.3-0.4-0.6-0.9-0.8-1.5c-0.2-0.6-0.3-1.2-0.3-1.9c0-0.7,0.1-1.3,0.3-1.9
			c0.2-0.6,0.4-1.1,0.8-1.6c0.4-0.5,0.8-0.8,1.3-1.1c0.5-0.3,1.1-0.4,1.9-0.4c0.7,0,1.2,0.1,1.7,0.4c0.5,0.2,0.9,0.6,1.3,1
			c0.3,0.4,0.6,0.9,0.8,1.5c0.2,0.6,0.3,1.2,0.3,1.8c0,0.1,0,0.1,0,0.2c0,0.1,0,0.1,0,0.2H157.2z M164.1,243.7c0-0.5-0.1-1-0.3-1.5
			c-0.1-0.5-0.4-0.9-0.6-1.2c-0.3-0.3-0.6-0.6-1-0.8c-0.4-0.2-0.9-0.3-1.4-0.3c-0.6,0-1,0.1-1.5,0.3c-0.4,0.2-0.8,0.5-1.1,0.8
			c-0.3,0.4-0.5,0.8-0.7,1.2c-0.2,0.5-0.3,0.9-0.3,1.4H164.1z"/>
		<path class="st0" d="M168,239.5h0.7v2h0c0.1-0.4,0.3-0.7,0.5-0.9c0.2-0.3,0.5-0.5,0.8-0.7c0.3-0.2,0.6-0.3,1-0.4
			c0.4-0.1,0.7-0.1,1.1-0.1c0.5,0,1,0.1,1.4,0.2c0.4,0.1,0.7,0.3,0.9,0.5c0.2,0.2,0.4,0.5,0.6,0.7c0.1,0.3,0.2,0.6,0.3,0.8
			c0.1,0.3,0.1,0.6,0.1,0.8c0,0.3,0,0.5,0,0.7v5.8h-0.7v-6c0-0.2,0-0.5-0.1-0.9c0-0.4-0.1-0.7-0.3-1c-0.2-0.3-0.4-0.6-0.8-0.8
			c-0.4-0.2-0.9-0.3-1.5-0.3c-0.5,0-1,0.1-1.4,0.3c-0.4,0.2-0.8,0.5-1.1,0.8c-0.3,0.3-0.5,0.8-0.7,1.3c-0.2,0.5-0.2,1-0.2,1.6v5.1
			H168V239.5z"/>
		<path class="st0" d="M179.4,244.3v0.1c0,0.5,0.1,1.1,0.2,1.6c0.1,0.5,0.4,0.9,0.6,1.3c0.3,0.4,0.6,0.7,1.1,0.9
			c0.4,0.2,0.9,0.3,1.5,0.3c0.9,0,1.7-0.2,2.2-0.7c0.5-0.5,0.9-1.2,1.1-2.1h0.7c-0.2,1.1-0.7,1.9-1.3,2.5c-0.7,0.6-1.6,0.9-2.7,0.9
			c-0.7,0-1.3-0.1-1.8-0.4c-0.5-0.2-0.9-0.6-1.3-1c-0.3-0.4-0.6-0.9-0.8-1.5c-0.2-0.6-0.3-1.2-0.3-1.9c0-0.7,0.1-1.3,0.3-1.9
			c0.2-0.6,0.4-1.1,0.8-1.6c0.4-0.5,0.8-0.8,1.3-1.1c0.5-0.3,1.1-0.4,1.9-0.4c0.7,0,1.2,0.1,1.7,0.4c0.5,0.2,0.9,0.6,1.3,1
			c0.3,0.4,0.6,0.9,0.8,1.5c0.2,0.6,0.3,1.2,0.3,1.8c0,0.1,0,0.1,0,0.2c0,0.1,0,0.1,0,0.2H179.4z M186.2,243.7c0-0.5-0.1-1-0.3-1.5
			c-0.1-0.5-0.4-0.9-0.6-1.2c-0.3-0.3-0.6-0.6-1-0.8c-0.4-0.2-0.9-0.3-1.4-0.3c-0.6,0-1,0.1-1.5,0.3c-0.4,0.2-0.8,0.5-1.1,0.8
			c-0.3,0.4-0.5,0.8-0.7,1.2c-0.2,0.5-0.3,0.9-0.3,1.4H186.2z"/>
		<path class="st0" d="M190.2,239.5h0.7v1.9h0c0.1-0.3,0.2-0.6,0.4-0.8c0.2-0.3,0.4-0.5,0.7-0.7c0.3-0.2,0.5-0.3,0.9-0.5
			c0.3-0.1,0.7-0.2,1-0.2c0.4,0,0.8,0.1,1.2,0.2c0.3,0.1,0.6,0.3,0.8,0.5c0.2,0.2,0.4,0.4,0.5,0.6c0.1,0.2,0.2,0.5,0.3,0.7h0
			c0.3-0.7,0.7-1.2,1.1-1.5c0.5-0.3,1.1-0.5,1.8-0.5c0.4,0,0.8,0.1,1.2,0.2c0.4,0.1,0.7,0.3,0.9,0.6c0.3,0.3,0.5,0.6,0.6,1
			c0.1,0.4,0.2,0.9,0.2,1.4v6.5h-0.7v-6.5c0-0.6-0.1-1.1-0.3-1.4c-0.2-0.3-0.4-0.6-0.6-0.8c-0.2-0.2-0.5-0.3-0.7-0.3
			c-0.2,0-0.4-0.1-0.6-0.1c-0.4,0-0.8,0.1-1.2,0.2c-0.4,0.1-0.7,0.4-0.9,0.7c-0.3,0.3-0.5,0.7-0.6,1.1c-0.1,0.4-0.2,0.9-0.2,1.5v5.6
			H196v-6.5c0-0.6-0.1-1.1-0.3-1.4c-0.2-0.3-0.4-0.6-0.6-0.8c-0.2-0.2-0.5-0.3-0.7-0.3c-0.2,0-0.4-0.1-0.6-0.1c-0.3,0-0.7,0.1-1,0.2
			c-0.4,0.1-0.7,0.3-1,0.6c-0.3,0.3-0.5,0.6-0.7,1.1c-0.2,0.4-0.3,1-0.3,1.6v5.6h-0.7V239.5z"/>
		<path class="st0" d="M205.8,244.2c0-0.7,0.1-1.3,0.3-1.9c0.2-0.6,0.5-1.1,0.8-1.6c0.4-0.5,0.8-0.8,1.3-1.1
			c0.5-0.3,1.1-0.4,1.8-0.4c0.7,0,1.3,0.1,1.8,0.4c0.5,0.3,1,0.6,1.3,1.1c0.4,0.5,0.6,1,0.8,1.6c0.2,0.6,0.3,1.2,0.3,1.9
			c0,0.7-0.1,1.3-0.3,1.9c-0.2,0.6-0.5,1.1-0.8,1.6c-0.4,0.4-0.8,0.8-1.3,1.1c-0.5,0.3-1.1,0.4-1.8,0.4c-0.7,0-1.3-0.1-1.8-0.4
			c-0.5-0.3-1-0.6-1.3-1.1c-0.4-0.4-0.6-1-0.8-1.6C205.9,245.5,205.8,244.9,205.8,244.2z M206.5,244.2c0,0.6,0.1,1.1,0.2,1.6
			c0.2,0.5,0.4,1,0.7,1.4c0.3,0.4,0.7,0.7,1.1,1c0.4,0.2,1,0.4,1.5,0.4c0.6,0,1.1-0.1,1.5-0.4c0.4-0.2,0.8-0.6,1.1-1
			c0.3-0.4,0.5-0.9,0.7-1.4c0.2-0.5,0.2-1.1,0.2-1.6c0-0.6-0.1-1.1-0.2-1.6c-0.2-0.5-0.4-1-0.7-1.4c-0.3-0.4-0.7-0.7-1.1-1
			c-0.4-0.2-1-0.4-1.5-0.4c-0.6,0-1.1,0.1-1.5,0.4c-0.4,0.2-0.8,0.6-1.1,1c-0.3,0.4-0.5,0.9-0.7,1.4
			C206.6,243.1,206.5,243.6,206.5,244.2z"/>
		<path class="st0" d="M218,244.9c0,0.4,0.1,0.7,0.3,1c0.2,0.3,0.4,0.5,0.7,0.7c0.3,0.2,0.6,0.4,1,0.5c0.4,0.1,0.8,0.2,1.2,0.2
			c0.3,0,0.6,0,1-0.1c0.3,0,0.7-0.1,1-0.3c0.3-0.1,0.5-0.3,0.7-0.5c0.2-0.2,0.3-0.5,0.3-0.9c0-0.5-0.2-0.8-0.5-1
			c-0.3-0.2-0.7-0.4-1.2-0.5c-0.5-0.1-1-0.2-1.5-0.3c-0.5-0.1-1.1-0.2-1.5-0.4c-0.5-0.2-0.9-0.4-1.2-0.7c-0.3-0.3-0.5-0.7-0.5-1.3
			c0-0.4,0.1-0.7,0.3-1c0.2-0.3,0.5-0.5,0.8-0.6c0.3-0.2,0.7-0.3,1.1-0.3c0.4-0.1,0.8-0.1,1.2-0.1c0.5,0,0.9,0,1.4,0.1
			c0.4,0.1,0.8,0.3,1.1,0.5c0.3,0.2,0.5,0.5,0.7,0.8c0.2,0.3,0.3,0.7,0.3,1.2h-0.7c0-0.4-0.1-0.7-0.2-1c-0.1-0.3-0.3-0.5-0.6-0.6
			c-0.2-0.2-0.5-0.3-0.9-0.4c-0.3-0.1-0.7-0.1-1.1-0.1c-0.3,0-0.6,0-1,0.1c-0.3,0.1-0.6,0.1-0.9,0.3c-0.3,0.1-0.5,0.3-0.6,0.5
			c-0.2,0.2-0.2,0.4-0.2,0.7c0,0.3,0.1,0.6,0.3,0.8c0.2,0.2,0.4,0.4,0.7,0.5c0.3,0.1,0.6,0.2,1,0.3c0.4,0.1,0.7,0.1,1.1,0.2
			c0.5,0.1,0.9,0.2,1.3,0.3c0.4,0.1,0.8,0.2,1.1,0.4c0.3,0.2,0.5,0.4,0.7,0.7c0.2,0.3,0.3,0.6,0.3,1.1c0,0.4-0.1,0.8-0.3,1.1
			c-0.2,0.3-0.5,0.5-0.9,0.7c-0.4,0.2-0.7,0.3-1.2,0.4c-0.4,0.1-0.8,0.1-1.3,0.1c-0.5,0-1-0.1-1.5-0.2c-0.5-0.1-0.9-0.3-1.2-0.6
			c-0.3-0.2-0.6-0.6-0.8-0.9c-0.2-0.4-0.3-0.8-0.3-1.3H218z"/>
		<path class="st0" d="M238.1,240.1h-2v6.6c0,0.4,0,0.7,0.1,0.9c0.1,0.2,0.2,0.4,0.4,0.5c0.2,0.1,0.4,0.2,0.6,0.2c0.2,0,0.5,0,0.9,0
			v0.6c-0.4,0-0.7,0-1,0c-0.3,0-0.6-0.1-0.9-0.3c-0.3-0.2-0.5-0.4-0.6-0.7c-0.2-0.3-0.2-0.7-0.2-1.3v-6.6h-1.7v-0.6h1.7v-2.9h0.7
			v2.9h2V240.1z"/>
		<path class="st0" d="M248.4,248.9h-0.7v-2h0c-0.1,0.4-0.3,0.7-0.5,0.9c-0.2,0.3-0.5,0.5-0.8,0.7c-0.3,0.2-0.6,0.3-1,0.4
			c-0.4,0.1-0.7,0.1-1.1,0.1c-0.5,0-1-0.1-1.4-0.2c-0.4-0.1-0.7-0.3-0.9-0.5c-0.2-0.2-0.4-0.5-0.6-0.7c-0.1-0.3-0.2-0.6-0.3-0.8
			c-0.1-0.3-0.1-0.6-0.1-0.8c0-0.3,0-0.5,0-0.7v-5.8h0.7v6c0,0.2,0,0.5,0.1,0.9c0,0.3,0.1,0.7,0.3,1c0.2,0.3,0.4,0.6,0.8,0.8
			c0.4,0.2,0.8,0.3,1.5,0.3c0.5,0,1-0.1,1.4-0.3c0.4-0.2,0.8-0.5,1.1-0.8c0.3-0.3,0.5-0.8,0.7-1.3c0.2-0.5,0.2-1,0.2-1.6v-5.1h0.7
			V248.9z"/>
		<path class="st0" d="M257.8,240.1v-0.6h1.7v-1.9c0-0.3,0.1-0.6,0.2-0.9c0.1-0.2,0.3-0.4,0.4-0.6c0.2-0.1,0.4-0.3,0.7-0.3
			c0.2-0.1,0.5-0.1,0.8-0.1c0.2,0,0.5,0,0.8,0.1v0.6c-0.3-0.1-0.6-0.1-0.8-0.1c-0.4,0-0.7,0.1-1,0.3c-0.3,0.2-0.4,0.5-0.4,1.1v1.9
			h1.9v0.6h-1.9v8.8h-0.7v-8.8H257.8z"/>
		<path class="st0" d="M265.5,241.6L265.5,241.6c0.1-0.3,0.3-0.6,0.5-0.9c0.2-0.3,0.5-0.5,0.8-0.7c0.3-0.2,0.7-0.3,1.1-0.5
			c0.4-0.1,0.8-0.1,1.2-0.1v0.7c-0.4,0-0.8,0-1.2,0.1c-0.5,0.1-0.9,0.4-1.3,0.8c-0.2,0.2-0.3,0.4-0.4,0.5c-0.1,0.2-0.2,0.4-0.3,0.6
			c-0.1,0.2-0.2,0.4-0.2,0.7c0,0.3-0.1,0.6-0.1,0.9v5.2h-0.7v-9.4h0.7V241.6z"/>
		<path class="st0" d="M271.5,244.3v0.1c0,0.5,0.1,1.1,0.2,1.6c0.1,0.5,0.4,0.9,0.6,1.3c0.3,0.4,0.6,0.7,1.1,0.9
			c0.4,0.2,0.9,0.3,1.5,0.3c0.9,0,1.7-0.2,2.2-0.7c0.5-0.5,0.9-1.2,1.1-2.1h0.7c-0.2,1.1-0.7,1.9-1.3,2.5c-0.7,0.6-1.6,0.9-2.7,0.9
			c-0.7,0-1.3-0.1-1.8-0.4c-0.5-0.2-0.9-0.6-1.3-1c-0.3-0.4-0.6-0.9-0.8-1.5c-0.2-0.6-0.3-1.2-0.3-1.9c0-0.7,0.1-1.3,0.3-1.9
			c0.2-0.6,0.4-1.1,0.8-1.6c0.4-0.5,0.8-0.8,1.3-1.1c0.5-0.3,1.1-0.4,1.9-0.4c0.7,0,1.2,0.1,1.7,0.4c0.5,0.2,0.9,0.6,1.3,1
			c0.3,0.4,0.6,0.9,0.8,1.5c0.2,0.6,0.3,1.2,0.3,1.8c0,0.1,0,0.1,0,0.2c0,0.1,0,0.1,0,0.2H271.5z M278.4,243.7c0-0.5-0.1-1-0.3-1.5
			c-0.1-0.5-0.4-0.9-0.6-1.2c-0.3-0.3-0.6-0.6-1-0.8c-0.4-0.2-0.9-0.3-1.4-0.3c-0.6,0-1,0.1-1.5,0.3c-0.4,0.2-0.8,0.5-1.1,0.8
			c-0.3,0.4-0.5,0.8-0.7,1.2c-0.2,0.5-0.3,0.9-0.3,1.4H278.4z"/>
		<path class="st0" d="M282.6,244.3v0.1c0,0.5,0.1,1.1,0.2,1.6c0.1,0.5,0.4,0.9,0.6,1.3c0.3,0.4,0.6,0.7,1.1,0.9
			c0.4,0.2,0.9,0.3,1.5,0.3c0.9,0,1.7-0.2,2.2-0.7c0.5-0.5,0.9-1.2,1.1-2.1h0.7c-0.2,1.1-0.6,1.9-1.3,2.5c-0.7,0.6-1.6,0.9-2.7,0.9
			c-0.7,0-1.3-0.1-1.8-0.4c-0.5-0.2-0.9-0.6-1.3-1c-0.3-0.4-0.6-0.9-0.8-1.5c-0.2-0.6-0.3-1.2-0.3-1.9c0-0.7,0.1-1.3,0.3-1.9
			c0.2-0.6,0.4-1.1,0.8-1.6c0.4-0.5,0.8-0.8,1.3-1.1c0.5-0.3,1.1-0.4,1.9-0.4c0.7,0,1.2,0.1,1.7,0.4c0.5,0.2,0.9,0.6,1.3,1
			c0.3,0.4,0.6,0.9,0.8,1.5c0.2,0.6,0.3,1.2,0.3,1.8c0,0.1,0,0.1,0,0.2c0,0.1,0,0.1,0,0.2H282.6z M289.4,243.7c0-0.5-0.1-1-0.3-1.5
			c-0.1-0.5-0.4-0.9-0.6-1.2c-0.3-0.3-0.6-0.6-1-0.8c-0.4-0.2-0.9-0.3-1.4-0.3c-0.6,0-1.1,0.1-1.5,0.3c-0.4,0.2-0.8,0.5-1.1,0.8
			c-0.3,0.4-0.5,0.8-0.7,1.2c-0.2,0.5-0.3,0.9-0.3,1.4H289.4z"/>
		<path class="st0" d="M294.2,235.8v13.1h-0.7v-13.1H294.2z"/>
		<path class="st0" d="M304.3,247L304.3,247c-0.1,0.3-0.3,0.5-0.5,0.8c-0.2,0.3-0.5,0.5-0.8,0.7c-0.3,0.2-0.6,0.3-1,0.5
			c-0.4,0.1-0.8,0.2-1.2,0.2c-1,0-1.8-0.2-2.3-0.7c-0.5-0.4-0.8-1.1-0.8-2c0-0.5,0.1-1,0.3-1.3c0.2-0.3,0.5-0.6,0.8-0.8
			c0.3-0.2,0.7-0.3,1.1-0.4c0.4-0.1,0.8-0.1,1.2-0.2l1.1-0.1c0.5,0,0.9-0.1,1.2-0.2c0.3-0.1,0.5-0.2,0.6-0.3
			c0.1-0.1,0.2-0.3,0.3-0.5c0-0.2,0.1-0.5,0.1-0.8c0-0.3,0-0.5-0.1-0.7c-0.1-0.2-0.2-0.4-0.5-0.6c-0.2-0.2-0.5-0.3-0.8-0.4
			c-0.3-0.1-0.7-0.1-1.2-0.1c-0.8,0-1.5,0.2-2,0.6c-0.5,0.4-0.8,1-0.8,1.9h-0.7c0-1,0.4-1.8,1-2.3c0.6-0.5,1.5-0.8,2.6-0.8
			c1.1,0,1.9,0.2,2.5,0.7c0.5,0.4,0.8,1,0.8,1.8v5.5c0,0.1,0,0.3,0,0.4c0,0.1,0,0.3,0.1,0.4c0,0.1,0.1,0.2,0.2,0.3
			c0.1,0.1,0.2,0.1,0.4,0.1c0.1,0,0.3,0,0.5-0.1v0.6c-0.2,0-0.4,0.1-0.6,0.1c-0.3,0-0.5,0-0.7-0.1c-0.2-0.1-0.3-0.2-0.4-0.3
			c-0.1-0.1-0.1-0.3-0.2-0.4c0-0.2,0-0.3,0-0.5V247z M304.3,243.5c-0.2,0.2-0.4,0.3-0.8,0.4c-0.3,0.1-0.7,0.1-1.2,0.2l-1.2,0.1
			c-0.3,0-0.7,0.1-1,0.2c-0.3,0.1-0.6,0.2-0.9,0.3c-0.3,0.2-0.5,0.4-0.7,0.7c-0.2,0.3-0.3,0.6-0.3,1.1c0,0.7,0.2,1.2,0.7,1.6
			c0.4,0.3,1,0.5,1.8,0.5c0.8,0,1.4-0.1,1.9-0.4c0.5-0.3,0.8-0.6,1.1-1c0.2-0.4,0.4-0.7,0.5-1.1c0.1-0.3,0.1-0.6,0.1-0.7V243.5z"/>
		<path class="st0" d="M308.8,239.5h0.7v2h0c0.1-0.4,0.3-0.7,0.5-0.9c0.2-0.3,0.5-0.5,0.8-0.7c0.3-0.2,0.6-0.3,1-0.4
			c0.4-0.1,0.7-0.1,1.1-0.1c0.5,0,1,0.1,1.4,0.2c0.4,0.1,0.7,0.3,0.9,0.5c0.2,0.2,0.4,0.5,0.6,0.7c0.1,0.3,0.2,0.6,0.3,0.8
			c0.1,0.3,0.1,0.6,0.1,0.8c0,0.3,0,0.5,0,0.7v5.8h-0.7v-6c0-0.2,0-0.5-0.1-0.9c0-0.4-0.1-0.7-0.3-1c-0.2-0.3-0.4-0.6-0.8-0.8
			c-0.4-0.2-0.8-0.3-1.5-0.3c-0.5,0-1,0.1-1.4,0.3c-0.4,0.2-0.8,0.5-1.1,0.8c-0.3,0.3-0.5,0.8-0.7,1.3c-0.2,0.5-0.2,1-0.2,1.6v5.1
			h-0.7V239.5z"/>
		<path class="st0" d="M326.9,242.4c0-0.4-0.1-0.8-0.3-1.1c-0.2-0.3-0.4-0.6-0.7-0.8c-0.3-0.2-0.6-0.4-1-0.5
			c-0.4-0.1-0.8-0.2-1.2-0.2c-0.6,0-1.1,0.1-1.5,0.4c-0.5,0.2-0.8,0.6-1.1,1c-0.3,0.4-0.5,0.9-0.7,1.4c-0.2,0.5-0.2,1-0.2,1.6
			c0,0.6,0.1,1.2,0.2,1.8c0.1,0.5,0.4,1,0.7,1.4c0.3,0.4,0.7,0.7,1.1,0.9c0.5,0.2,1,0.3,1.6,0.3c0.4,0,0.8-0.1,1.2-0.2
			c0.4-0.1,0.7-0.3,1-0.6c0.3-0.3,0.5-0.6,0.7-0.9c0.2-0.4,0.3-0.8,0.4-1.2h0.7c-0.1,0.6-0.2,1.1-0.5,1.5c-0.2,0.4-0.5,0.8-0.9,1.1
			c-0.4,0.3-0.8,0.5-1.2,0.7c-0.5,0.2-0.9,0.2-1.4,0.2c-0.8,0-1.4-0.1-2-0.4c-0.5-0.3-1-0.6-1.3-1.1c-0.3-0.5-0.6-1-0.8-1.6
			c-0.2-0.6-0.2-1.2-0.2-1.9c0-0.7,0.1-1.3,0.3-1.9c0.2-0.6,0.5-1.1,0.8-1.5c0.4-0.4,0.8-0.8,1.3-1c0.5-0.3,1.1-0.4,1.8-0.4
			c0.5,0,1,0.1,1.4,0.2c0.4,0.1,0.8,0.3,1.2,0.6c0.3,0.3,0.6,0.6,0.8,1c0.2,0.4,0.3,0.9,0.4,1.4H326.9z"/>
		<path class="st0" d="M331.2,244.3v0.1c0,0.5,0.1,1.1,0.2,1.6c0.1,0.5,0.4,0.9,0.6,1.3c0.3,0.4,0.6,0.7,1.1,0.9
			c0.4,0.2,0.9,0.3,1.5,0.3c0.9,0,1.7-0.2,2.2-0.7c0.5-0.5,0.9-1.2,1.1-2.1h0.7c-0.2,1.1-0.7,1.9-1.3,2.5c-0.7,0.6-1.6,0.9-2.7,0.9
			c-0.7,0-1.3-0.1-1.8-0.4c-0.5-0.2-0.9-0.6-1.3-1c-0.3-0.4-0.6-0.9-0.8-1.5c-0.2-0.6-0.3-1.2-0.3-1.9c0-0.7,0.1-1.3,0.3-1.9
			c0.2-0.6,0.4-1.1,0.8-1.6c0.4-0.5,0.8-0.8,1.3-1.1c0.5-0.3,1.1-0.4,1.9-0.4c0.7,0,1.2,0.1,1.7,0.4c0.5,0.2,0.9,0.6,1.3,1
			c0.3,0.4,0.6,0.9,0.8,1.5c0.2,0.6,0.3,1.2,0.3,1.8c0,0.1,0,0.1,0,0.2c0,0.1,0,0.1,0,0.2H331.2z M338,243.7c0-0.5-0.1-1-0.3-1.5
			c-0.1-0.5-0.4-0.9-0.6-1.2c-0.3-0.3-0.6-0.6-1-0.8c-0.4-0.2-0.9-0.3-1.4-0.3c-0.6,0-1.1,0.1-1.5,0.3c-0.4,0.2-0.8,0.5-1.1,0.8
			c-0.3,0.4-0.5,0.8-0.7,1.2c-0.2,0.5-0.3,0.9-0.3,1.4H338z"/>
	</g>
	<g>
		<path class="st1" d="M351.9,233.7c-0.1,0-0.7,0.6-0.8,0.7c0,0,0,0,0,0c-0.2,0.1-0.4,0.2-0.5,0.3c-0.3,0.2-0.3,0.7,0,1
			c0.4,0.3,0.8-0.1,1-0.5C351.6,235.1,351.8,234,351.9,233.7z"/>
		<path class="st1" d="M368.7,220.7c0.7,0.1,1.3-0.1,1.6-0.5c-0.3-0.7-1.2,0.2-1.7-0.4c-0.1-0.2-0.3-0.3-0.2-0.6
			c-0.2-0.7,0.3-0.8,0.6-1c0-0.8-1.1-0.4-1.3-1.1c0.1-0.3-0.1-0.7,0.1-0.9c0.6-0.1,1.1-0.4,1.3-1c-0.1-0.1-0.1-0.4-0.3-0.4
			c-0.5,0-1.1,0-1.3,0.3c-0.8-0.3-0.6-1.5-1.2-2.1c-0.5-0.4,0.1-0.7,0.2-1.2c-0.1-0.1,0-0.4-0.3-0.4c-0.8,0.2-0.8-0.5-1.5-0.4
			c-0.3-0.4-1.1-0.3-1.6-0.5c-0.3-0.4,0.1-1,0.4-1.3c-0.1-0.3,0-0.5,0.3-0.6c0.7-0.3,0.2-1.5,0.7-1.9c0.1-0.5,0.7-0.7,0.4-1.2
			c-0.3-0.4-0.6,0-0.8,0.2c-0.2,0.6-0.4,1.2-0.5,1.9c-0.6,0.4-0.5,1.3-1.2,1.7c-0.6,0.1-0.8-0.3-1.3-0.4c-0.7-0.6,0-1.5,0-2.3
			c-1.3-1.3-1.1,1.1-2.1,1.3c-0.9,0.2-1.4-0.2-1.8-0.7c-0.5-0.5-0.9,0.2-1.5,0.1c-0.7,0.1-0.6-0.7-0.9-1.1c-0.2-0.3-0.6-0.2-1-0.2
			c-0.7,0-0.2-1-0.7-1.2c-0.2-0.5-0.6-1-0.7-1.6c-0.4-0.3-0.1-0.9-0.7-1.2c-0.6-0.2-0.3,0.2-0.2,0.5c0.4,0.7,0.7,1.5,1,2.2
			c-0.2,1.1,1.2,1.1,1,2.2c0,0.2-0.1,0.4-0.4,0.3c-0.4-0.4-0.8-0.1-1.3,0c-0.5-0.3-1.2-0.4-1.2-1.2c-0.4-0.4-0.3-1-0.7-1.4
			c0-0.5-0.2-1-0.3-1.5c-0.1-0.1-0.3-0.4-0.4-0.1c-0.4,0.5,0.1,1,0.2,1.6c0.3,0.2,0.3,0.7,0.4,1c0.2,0.2,0,0.5-0.1,0.6
			c-0.1,0.3,0.1,0.4,0.2,0.6c-0.1,0.7,0.6,1,0.4,1.7c-0.4,0.3-0.5-0.3-1-0.2c-0.4-0.1-0.5,0.1-0.6,0.4c-0.1,0.1-0.2,0.3-0.5,0.3
			c-0.7,0-0.7,0.9-1,1.3c-0.8,0.6-0.8-0.7-1.3-0.9c0.1-1.3-1.2-1.5-1.3-2.7c-0.2-0.1-0.3-0.4-0.6-0.2c0.1,0.6,0.5,1,0.7,1.5
			c-0.3,1.3,0.5,1.8,1,2.5c1.3,1.1-0.9,0.7-0.8,1.8c0,0.5-0.1,1.2,0.2,1.4c0,0.5,0,0.9,0.1,1.3c-0.4,0.4-0.9,0-1.3,0
			c-0.2-0.1-0.4-0.1-0.5-0.4c-0.2-0.1-0.4-0.3-0.7-0.2c-0.9-0.3-1.4-1.1-2.3-1.4c-0.8,0.2-1.3-0.5-2-0.8c0,0,0-0.1-0.1-0.1
			c-0.1-0.2-0.4-0.6-0.7-0.5c-0.5,0.2-0.1,0.6,0.2,0.8c0.1,0.1,0.2,0.1,0.3,0.1c0,0,0.1,0,0.1,0c0.3,0.1,0.6,0.3,0.8,0.4
			c0.4,0.3,1,0.4,0.9,1.2c0.7,0.3,1.3,0.9,2,1.2c0.3,0.2,0.9,0.9,1.3,1.2c0,0.1,0.1,0.2,0.1,0.3c0.1,0.2,0.3,0.2,0.5,0.3
			c0.2,0.1,0.3,0.3,0.5,0.5c0.1,0.1,0.3,0.2,0.4,0.3c0,0,0,0,0.1,0.1c-0.1,0.1-0.1,0.2-0.2,0.3c-0.6,0.2-1,0.7-1.9,0.5
			c-0.4-0.3-1-0.2-1.4-0.3c-0.3,0.3-1,0.1-1,0.7c0.2,0.3,0.3,0.6,0.6,0.7c0.4,0,0.8-0.2,1.2-0.3c0.5,0.2,1.4-0.1,1.8,0.3
			c0.3,0.4-0.3,0.6-0.3,1c0,0.3,0.3,0.4,0.4,0.6c0.2,0.3,0.4,0.7,0.1,1.1c-0.2,0.1-0.4,0.3-0.7,0.2c-0.1,0.1-0.4,0.3-0.4,0.5
			c0.2,0.4,0.7,0.4,1.1,0.4c0.3,0,0.2,0.3,0.2,0.5c0.2,0.4,0.6,0,0.8,0c0.3,0.1,0.7,0.3,0.8,0.6c0,0.3,0.1,0.7-0.2,0.8
			c-0.7-0.1-0.9,0.6-1.7,0.4c-0.3,0.3-0.9,0.2-1.1,0.6c-0.2,0.2-0.4-0.1-0.6-0.1c-0.1,0.3,0,0.7-0.4,0.7c0,0.2,0.1,0.3,0.2,0.3
			c0.8-0.1,1.1-0.9,2.1-0.7c0.3-0.1,0.5-0.1,0.7-0.4c0.4,0,0.7-0.3,1.2-0.2c0.4,0.1,0,0.8,0.3,1c0.3,0.1,0.3,0.3,0.7,0.3
			c0.3,0.1,0.5,0.3,0.5,0.5c0,0.1-0.1,0.2-0.1,0.2c0.1,1-1,0.7-1.1,1.5c0,0.3,0.3,0.5,0.5,0.6c0.8-0.2,1.2-1.4,2.3-1.1
			c0.4,0.7-0.5,1-0.7,1.6c0.3,0.1,0.3-0.1,0.4-0.2c0.4-0.6,0.7,0.3,1.1,0.2c0.5-0.6,1.1,0.5,1.5-0.3c0.3-0.1,0.5,0.1,0.5,0.3
			c0.1,0.3-0.1,0.6-0.2,0.8c0.1,0.6-0.7,0.7-0.3,1.3c1.3,0.5,0.8-1.2,1.5-1.6c0.4,0.2,0.3,0.8,0.7,1c1,0.3,0.5-0.8,1.1-1
			c0.6-0.2,0.8,0.3,1.1,0.6c0.1,0.3-0.1,0.4-0.2,0.6c-0.1,0.4,0.1,0.6,0.2,0.9c0.2,0.2,0.6,0.7,0.8,0.3c0-0.7-0.1-1.5,0.1-2.1
			c0.8-0.6,0.4,0.8,1,0.8c0.5-0.1,0.3-0.8,0.6-1.1c0.4-0.5,0.6,0.3,1,0.3c0.9-0.5,0.9,0.7,1.7,0.6c0.3-0.4-0.3-0.6-0.3-1
			c0.1-0.3,0.1-0.6,0.4-0.7c0.1,0,0.4-0.1,0.4,0.1c0.3,0,0.6,0,0.8-0.2c0-0.1,0.4-0.1,0.4,0c0.1,0,0.4,0.1,0.4-0.1
			c0.4-0.2,0.7,0.1,1,0.3c0.2,0.7,1,0.7,1.4,1.2c0.1,0.4,0.1,1,0.6,0.8c0.3-0.1,0.4-0.4,0.4-0.7c0-0.2-0.2-0.3-0.4-0.4
			c-0.2-0.1-0.3-0.1-0.5-0.2c-0.5-0.5-0.9-1-1.5-1.4c-0.2-0.3-0.5-0.4-0.5-0.9c0.3-0.1,0.4-0.3,0.8-0.3c0.2,0,0.4-0.3,0.4-0.5
			c-0.2-0.4,0.5-0.3,0.7-0.6c0.7-0.3-0.3-0.6,0.2-1c0.9,0.1,1.2-0.6,1.7-1c-0.1-0.5-0.7-0.6-0.9-1c0.1-0.3,0.3-0.7,0.7-1
			c0.1,0,0.4-0.1,0.4,0.1c0.3,0.1,0.8,0.1,1,0c0.1-0.2,0.3-0.4,0.2-0.8c-0.1-0.6-1-0.2-1.4-0.5c-0.3-0.3-0.6-0.6-0.4-1.1
			C367.7,221.1,368.2,220.9,368.7,220.7z M344.4,216.5c-0.2,0-0.3-0.2-0.5-0.3c-0.1,0-0.1,0-0.2-0.1l-0.2-0.1
			c-0.1-0.1-0.1-0.4,0-0.4c0.8,0.1,1.6,0.6,1.8,1.4C345,216.8,344.7,216.6,344.4,216.5z"/>
	</g>
	<g>
		<path class="st0" d="M347.2,216h2.5c0.4,0,0.7,0,0.9,0.1c0.2,0.1,0.5,0.2,0.6,0.4c0.1,0.2,0.3,0.3,0.3,0.5
			c0.1,0.2,0.1,0.4,0.1,0.6c0,0.2,0,0.3-0.1,0.5c-0.1,0.2-0.1,0.3-0.3,0.4c-0.1,0.1-0.2,0.2-0.4,0.3c-0.1,0.1-0.3,0.1-0.5,0.2l0,0
			c0,0,0.1,0,0.3,0.1c0.1,0,0.3,0.1,0.5,0.2c0.2,0.1,0.3,0.3,0.4,0.5c0.1,0.2,0.2,0.5,0.2,0.8c0,0.3-0.1,0.5-0.2,0.8
			c-0.1,0.2-0.3,0.4-0.4,0.6c-0.2,0.1-0.4,0.3-0.7,0.3c-0.3,0.1-0.6,0.1-0.9,0.1h-2.5V216z M349.7,218.8c0.5,0,0.9-0.1,1.2-0.4
			c0.3-0.2,0.4-0.6,0.4-0.9c0-0.2,0-0.4-0.1-0.6c-0.1-0.2-0.2-0.3-0.3-0.4c-0.1-0.1-0.3-0.2-0.5-0.2c-0.2,0-0.4-0.1-0.6-0.1h-2.1
			v2.5H349.7z M349.7,221.9c0.6,0,1-0.1,1.3-0.4c0.3-0.2,0.5-0.6,0.5-1.1c0-0.3-0.1-0.5-0.2-0.7c-0.1-0.2-0.2-0.3-0.4-0.4
			c-0.2-0.1-0.4-0.2-0.6-0.2c-0.2,0-0.4-0.1-0.6-0.1h-2.1v2.8H349.7z"/>
		<path class="st0" d="M352.7,216h4.2v0.3h-3.8v2.5h3.6v0.3h-3.6v2.8h3.8v0.3h-4.2V216z"/>
		<path class="st0" d="M357.3,216.3V216h4.8v0.3h-2.2v6h-0.4v-6H357.3z"/>
		<path class="st0" d="M363.6,216h0.4l2.5,6.3h-0.4l-0.8-2h-3l-0.8,2h-0.4L363.6,216z M365.2,219.9l-1.3-3.6h0l-1.4,3.6H365.2z"/>
	</g>
</g>
</svg>
