<?xml version="1.0" encoding="utf-8"?>
<!-- Generator: Adobe Illustrator 22.0.0, SVG Export Plug-In . SVG Version: 6.00 Build 0)  -->
<svg version="1.1" id="Capa_1" xmlns="http://www.w3.org/2000/svg" xmlns:xlink="http://www.w3.org/1999/xlink" x="0px" y="0px"
	 viewBox="0 0 87.4 55.3" style="enable-background:new 0 0 87.4 55.3;" xml:space="preserve">
<style type="text/css">
	.st0{fill:#002D73;}
</style>
<path class="st0" d="M6,9.5h75.5c2.7,0,5-1.9,5-4.3c0-2.4-2.2-4.3-5-4.3H6c-2.7,0-5,1.9-5,4.3C1,7.6,3.2,9.5,6,9.5z M81.5,23.3H6
	c-2.7,0-5,1.9-5,4.3C1,30.1,3.2,32,6,32h75.5c2.7,0,5-1.9,5-4.3C86.4,25.3,84.2,23.3,81.5,23.3z M81.5,45.8H6c-2.7,0-5,1.9-5,4.3
	c0,2.4,2.2,4.3,5,4.3h75.5c2.7,0,5-1.9,5-4.3C86.4,47.8,84.2,45.8,81.5,45.8z"/>
</svg>
