<?xml version="1.0" encoding="utf-8"?>
<!-- Generator: Adobe Illustrator 17.0.0, SVG Export Plug-In . SVG Version: 6.00 Build 0)  -->
<!DOCTYPE svg PUBLIC "-//W3C//DTD SVG 1.1//EN" "http://www.w3.org/Graphics/SVG/1.1/DTD/svg11.dtd">
<svg version="1.1" id="Capa_1" xmlns="http://www.w3.org/2000/svg" xmlns:xlink="http://www.w3.org/1999/xlink" x="0px" y="0px"
	 width="87.417px" height="55.333px" viewBox="0 6.417 87.417 55.333" enable-background="new 0 6.417 87.417 55.333"
	 xml:space="preserve">
<path fill="#FFFFFF" d="M5.952,15.924h75.513c2.736,0,4.952-1.933,4.952-4.324c0-2.385-2.216-4.325-4.952-4.325H5.952
	C3.216,7.275,1,9.215,1,11.6C1,13.992,3.216,15.924,5.952,15.924z M81.465,29.758H5.952C3.216,29.758,1,31.699,1,34.083
	c0,2.393,2.216,4.325,4.952,4.325h75.513c2.736,0,4.952-1.933,4.952-4.325C86.417,31.699,84.202,29.758,81.465,29.758z
	 M81.465,52.241H5.952C3.216,52.241,1,54.182,1,56.566c0,2.393,2.216,4.325,4.952,4.325h75.513c2.736,0,4.952-1.935,4.952-4.325
	C86.417,54.182,84.202,52.241,81.465,52.241z"/>
</svg>
