<?xml version="1.0" standalone="no"?>
<!DOCTYPE svg PUBLIC "-//W3C//DTD SVG 1.1//EN" "http://www.w3.org/Graphics/SVG/1.1/DTD/svg11.dtd" >
<svg xmlns="http://www.w3.org/2000/svg">
<metadata>Generated by IcoMoon</metadata>
<defs>
<font id="icomoon" horiz-adv-x="1024">
<font-face units-per-em="1024" ascent="960" descent="-64" />
<missing-glyph horiz-adv-x="1024" />
<glyph unicode="&#x20;" horiz-adv-x="512" d="" />
<glyph unicode="&#xe900;" glyph-name="icons-01" d="M984.747 741.137c-34.611-15.36-72.124-25.975-111.411-30.652 40.141 24.030 70.69 62.020 85.402 107.383-37.547-22.221-79.019-38.4-123.46-47.036-35.157 37.513-85.675 61.167-141.449 61.167-106.94 0-193.843-86.835-193.843-193.877 0-15.292 1.775-30.003 4.949-44.169-161.348 8.158-304.060 85.163-399.872 202.615-16.725-28.57-26.283-62.020-26.283-97.553 0-67.209 34.338-126.669 86.221-161.246-31.778 0.819-61.44 9.796-87.62 24.235v-2.355c0-94.003 66.901-172.476 155.477-190.396-16.213-4.267-33.451-6.588-51.063-6.588-12.39 0-24.508 1.126-36.591 3.413 24.815-77.005 96.256-132.949 181.146-134.69-66.389-51.917-150.050-82.807-240.947-82.807-15.531 0-30.822 0.853-46.148 2.594 85.982-55.091 187.836-87.108 297.404-87.108 356.625 0 551.697 295.458 551.697 551.595l-0.614 25.122c38.093 27.341 70.997 61.372 97.007 100.352z" />
<glyph unicode="&#xe901;" glyph-name="icons-02" d="M723.558 870.912l-109.773 0.171c-123.255 0-202.957-81.749-202.957-208.247v-96.051h-110.319c-9.455 0-17.237-7.68-17.237-17.203v-139.127c0-9.523 7.782-17.271 17.237-17.271h110.319v-351.027c0-9.523 7.782-17.271 17.271-17.271h143.94c9.523 0 17.306 7.748 17.306 17.271v351.061h128.956c9.557 0 17.237 7.748 17.237 17.271l0.102 139.127c0 4.54-1.877 8.943-5.052 12.186-3.243 3.209-7.646 5.018-12.22 5.018h-128.99v81.408c0 39.117 9.318 58.982 60.245 58.982l73.967 0.034c9.523 0 17.203 7.748 17.203 17.237v129.161c-0.068 9.557-7.714 17.237-17.237 17.271z" />
<glyph unicode="&#xe902;" glyph-name="icons-03" d="M950.067 353.314v-323.891h-187.802v302.182c0 75.947-27.136 127.727-95.13 127.727-51.883 0-82.773-34.85-96.358-68.676-4.949-12.117-6.246-28.877-6.246-45.807v-315.46h-187.836c0 0 2.492 511.898 0 564.873h187.836v-80.043c-0.341-0.649-0.853-1.195-1.195-1.809h1.195v1.809c24.986 38.4 69.53 93.321 169.335 93.321 123.563 0 216.201-80.691 216.201-254.225zM180.224 866.611c-64.307 0-106.291-42.155-106.291-97.587 0-54.238 40.823-97.621 103.868-97.621h1.161c65.536 0 106.223 43.383 106.223 97.621-1.229 55.398-40.687 97.587-104.96 97.587zM85.094 29.389h187.767v564.907h-187.767v-564.907z" />
<glyph unicode="&#xe903;" glyph-name="icons-04" d="M928.666 666.726c-11.708 11.742-30.822 11.742-42.496 0l-373.726-374.477-374.443 374.477c-11.776 11.742-30.822 11.742-42.53 0-11.742-11.708-11.742-30.754 0-42.53l394.957-394.923c5.871-5.871 13.21-8.841 21.231-8.841 7.373 0 15.394 2.97 21.265 8.841l394.957 394.923c12.459 11.776 12.459 30.822 0.785 42.53z" />
<glyph unicode="&#xe904;" glyph-name="icons-052" d="M95.334 229.274c11.708-11.742 30.822-11.742 42.496 0l373.726 374.477 374.443-374.477c11.776-11.742 30.822-11.742 42.53 0 11.742 11.708 11.742 30.754 0 42.53l-394.957 394.889c-5.871 5.871-13.21 8.841-21.231 8.841-7.373 0-15.394-2.97-21.265-8.841l-394.991-394.923c-12.425-11.742-12.425-30.788-0.751-42.496z" />
<glyph unicode="&#xe905;" glyph-name="icons-062" d="M293.274 864.666c-11.742-11.708-11.742-30.822 0-42.496l374.477-373.726-374.477-374.443c-11.742-11.776-11.742-30.822 0-42.53 11.708-11.742 30.754-11.742 42.53 0l394.889 394.957c5.871 5.871 8.841 13.21 8.841 21.231 0 7.373-2.97 15.394-8.841 21.265l-394.923 394.991c-11.742 12.425-30.788 12.425-42.496 0.751z" />
<glyph unicode="&#xe906;" glyph-name="icons-072" d="M730.726 31.403c11.742 11.708 11.742 30.822 0 42.496l-374.443 373.726 374.477 374.443c11.742 11.776 11.742 30.822 0 42.53-11.708 11.742-30.754 11.742-42.53 0l-394.923-394.991c-5.871-5.871-8.841-13.21-8.841-21.231 0-7.373 2.97-15.394 8.841-21.265l394.923-394.957c11.742-12.425 30.788-12.425 42.496-0.751z" />
<glyph unicode="&#xe907;" glyph-name="icons-082" d="M661.129 741.239c-11.742 12.083-31.198 12.083-43.383 0-11.674-11.776-11.674-31.198 0-42.974l219.785-219.716h-725.060c-16.93 0-30.413-13.517-30.413-30.413 0-16.794 13.483-30.788 30.413-30.788h725.060l-219.785-219.204c-11.674-12.117-11.674-31.744 0-43.349 12.186-12.117 31.676-12.117 43.383 0l271.735 271.701c12.117 11.776 12.117 31.198 0 42.803l-271.735 271.94z" />
<glyph unicode="&#xe908;" glyph-name="icons-092" d="M805.239 298.871c12.083 11.742 12.083 31.198 0 43.383-11.776 11.674-31.198 11.674-42.974 0l-219.716-219.785v725.060c0 16.93-13.517 30.413-30.413 30.413-16.794 0-30.788-13.483-30.788-30.413v-725.060l-219.204 219.785c-12.117 11.674-31.744 11.674-43.349 0-12.117-12.186-12.117-31.676 0-43.383l271.701-271.735c11.776-12.117 31.198-12.117 42.803 0l271.94 271.735z" />
<glyph unicode="&#xe909;" glyph-name="icons-102" d="M362.837 154.726c11.742-12.083 31.198-12.083 43.383 0 11.674 11.776 11.674 31.198 0 42.974l-219.785 219.716h725.060c16.93 0 30.413 13.517 30.413 30.413 0 16.794-13.483 30.788-30.413 30.788h-725.060l219.785 219.204c11.674 12.117 11.674 31.744 0 43.349-12.186 12.117-31.676 12.117-43.383 0l-271.735-271.701c-12.117-11.776-12.117-31.198 0-42.803l271.735-271.94z" />
<glyph unicode="&#xe90a;" glyph-name="icons-112" d="M218.726 597.163c-12.083-11.742-12.083-31.198 0-43.383 11.776-11.674 31.198-11.674 42.974 0l219.716 219.785v-725.060c0-16.93 13.517-30.413 30.413-30.413 16.794 0 30.788 13.483 30.788 30.413v725.060l219.204-219.785c12.117-11.674 31.744-11.674 43.349 0 12.117 12.186 12.117 31.676 0 43.383l-271.701 271.735c-11.776 12.117-31.198 12.117-42.803 0l-271.94-271.735z" />
<glyph unicode="&#xe90b;" glyph-name="icons-122" d="M901.564 155.273l-177.971 177.971c-0.956 0.922-2.048 1.604-3.038 2.492 34.987 53.111 55.467 116.668 55.467 185.071 0 185.993-150.801 336.794-336.794 336.794-186.061 0-336.828-150.801-336.828-336.794s150.767-336.794 336.794-336.794c68.369 0 131.925 20.446 185.071 55.467 0.853-0.99 1.536-2.116 2.458-3.072l178.005-177.937c26.726-26.726 70.076-26.726 96.802 0s26.761 70.076 0.034 96.802zM439.228 300.749c-121.549 0-220.058 98.543-220.058 220.058s98.509 220.058 220.058 220.058c121.515 0 220.023-98.509 220.023-220.058s-98.543-220.058-220.023-220.058z" />
<glyph unicode="&#xe90c;" glyph-name="icons-05" d="M938.667 516.267h-358.4v358.4c0 17.067-23.893 51.2-68.267 51.2s-68.267-34.133-68.267-51.2v-358.4h-358.4c-17.067 0-51.2-23.893-51.2-68.267s34.133-68.267 51.2-68.267h358.4v-358.4c0-17.067 23.893-51.2 68.267-51.2s68.267 34.133 68.267 51.2v358.4h358.4c17.067 0 51.2 23.893 51.2 68.267s-34.133 68.267-51.2 68.267z" />
<glyph unicode="&#xe90d;" glyph-name="close" d="M874.018 810.018c-96.768 96.768-225.178 149.982-362.018 149.982s-265.25-53.214-362.018-149.982-149.982-225.178-149.982-362.018 53.214-265.25 149.982-362.018 225.178-149.982 362.018-149.982 265.25 53.214 362.018 149.982 149.982 225.178 149.982 362.018-53.214 265.25-149.982 362.018zM832.853 127.147c-85.777-85.777-199.748-132.949-320.853-132.949s-235.11 47.172-320.853 132.949c-176.913 176.913-176.913 464.794 0 641.707 85.777 85.777 199.748 132.949 320.853 132.949s235.11-47.206 320.853-132.949c176.913-176.913 176.913-464.794 0-641.707zM737.621 673.621c-11.435 11.435-29.73 11.435-41.165 0l-184.457-184.457-184.457 184.457c-11.435 11.435-29.73 11.435-41.165 0s-11.435-29.73 0-41.165l184.457-184.457-184.457-184.457c-11.435-11.435-11.435-29.73 0-41.165 5.598-5.598 13.141-8.636 20.48-8.636s14.882 2.799 20.48 8.636l184.457 184.457 184.457-184.457c5.598-5.598 13.141-8.636 20.48-8.636 7.543 0 14.882 2.799 20.48 8.636 11.435 11.435 11.435 29.73 0 41.165l-184.047 184.457 184.457 184.457c11.401 11.435 11.401 29.73 0 41.165z" />
<glyph unicode="&#xe90e;" glyph-name="icons-06" d="M938.667 656.213c-10.24 47.787-47.787 81.92-95.573 85.333-109.227 13.653-221.867 13.653-331.093 13.653s-221.867 0-331.093-13.653c-44.373-3.413-85.333-37.547-95.573-85.333-17.067-68.267-17.067-139.947-17.067-208.213s0-143.36 17.067-208.213c10.24-47.787 47.787-81.92 95.573-85.333 109.227-13.653 221.867-13.653 331.093-13.653s221.867 0 331.093 13.653c47.787 6.827 85.333 40.96 95.573 85.333 17.067 68.267 17.067 139.947 17.067 208.213s-3.413 143.36-17.067 208.213zM399.36 311.467v290.133c92.16-47.787 187.733-95.573 279.893-146.773-95.573-47.787-187.733-95.573-279.893-143.36z" />
<glyph unicode="&#xe90f;" glyph-name="icons-07" d="M512 338.773l-95.573 81.92-273.067-232.107c10.24-10.24 23.893-13.653 40.96-13.653h658.773c13.653 0 27.307 6.827 37.547 13.653l-273.067 232.107-95.573-81.92zM877.227 707.413c-6.827 10.24-20.48 13.653-37.547 13.653h-655.36c-17.067 0-27.307-3.413-37.547-13.653l365.227-314.027 365.227 314.027zM126.293 673.28v-453.973l266.24 225.28zM631.467 444.587l266.24-225.28v453.973z" />
<glyph unicode="&#xe910;" glyph-name="icons-08" d="M880.64 820.053h-737.28c-64.853 0-119.467-54.613-119.467-119.467v-501.76c0-64.853 54.613-119.467 119.467-119.467h737.28c64.853 0 119.467 54.613 119.467 119.467v501.76c0 64.853-54.613 119.467-119.467 119.467zM945.493 195.413c0-34.133-30.72-64.853-64.853-64.853h-737.28c-34.133 0-64.853 30.72-64.853 64.853v505.173c0 34.133 30.72 64.853 64.853 64.853h737.28c34.133 0 64.853-30.72 64.853-64.853v-505.173zM638.293 454.827l238.933 215.040c10.24 10.24 13.653 27.307 3.413 37.547s-27.307 13.653-37.547 3.413l-331.093-296.96-64.853 58.027c0 0 0 0 0 0s-3.413 3.413-3.413 3.413l-259.413 232.107c-13.653 10.24-30.72 10.24-40.96 0-10.24-13.653-6.827-30.72 3.413-40.96l242.347-215.040-238.933-225.28c-10.24-10.24-10.24-27.307 0-37.547 6.827-6.827 13.653-10.24 20.48-10.24s13.653 3.413 17.067 6.827l242.347 228.693 64.853-58.027c6.827-3.413 10.24-6.827 17.067-6.827s13.653 3.413 17.067 6.827l68.267 61.44 242.347-228.693c6.827-3.413 13.653-6.827 17.067-6.827 6.827 0 13.653 3.413 20.48 6.827 10.24 10.24 10.24 27.307 0 37.547l-238.933 228.693z" />
<glyph unicode="&#xe911;" glyph-name="icons-09" d="M904.533 813.227h-785.067c-47.787 0-85.333-37.547-85.333-85.333v-559.787c0-47.787 37.547-85.333 85.333-85.333h788.48c47.787 0 85.333 37.547 85.333 85.333v559.787c-3.413 47.787-40.96 85.333-88.747 85.333zM931.84 168.107c0-17.067-13.653-27.307-27.307-27.307h-785.067c-17.067 0-27.307 13.653-27.307 27.307v559.787c0 13.653 10.24 27.307 27.307 27.307h788.48c17.067 0 27.307-13.653 27.307-27.307v-559.787zM314.027 475.307c-92.16 0-167.253-75.093-167.253-167.253v-27.307c0-47.787 37.547-85.333 85.333-85.333h167.253c47.787 0 85.333 37.547 85.333 85.333v27.307c-3.413 92.16-78.507 167.253-170.667 167.253zM426.667 280.747c0-17.067-13.653-27.307-27.307-27.307h-170.667c-17.067 0-27.307 13.653-27.307 27.307v27.307c0 61.44 51.2 112.64 112.64 112.64s112.64-51.2 112.64-112.64v-27.307zM426.667 587.947c0 61.44-51.2 112.64-112.64 112.64s-112.64-51.2-112.64-112.64c0-61.44 51.2-112.64 112.64-112.64s112.64 51.2 112.64 112.64zM314.027 533.333c-30.72 0-54.613 23.893-54.613 54.613s23.893 54.613 54.613 54.613 54.613-23.893 54.613-54.613c0-30.72-23.893-54.613-54.613-54.613zM849.92 308.053h-279.893c-17.067 0-27.307-13.653-27.307-27.307 0-17.067 13.653-27.307 27.307-27.307h279.893c17.067 0 27.307 13.653 27.307 27.307s-13.653 27.307-27.307 27.307zM849.92 420.693h-279.893c-17.067 0-27.307-13.653-27.307-27.307s13.653-27.307 27.307-27.307h279.893c17.067 0 27.307 13.653 27.307 27.307s-13.653 27.307-27.307 27.307zM849.92 533.333h-279.893c-17.067 0-27.307-13.653-27.307-27.307 0-17.067 13.653-27.307 27.307-27.307h279.893c17.067 0 27.307 13.653 27.307 27.307s-13.653 27.307-27.307 27.307zM624.64 587.947h167.253c17.067 0 27.307 13.653 27.307 27.307 0 17.067-13.653 27.307-27.307 27.307h-167.253c-17.067 0-27.307-13.653-27.307-27.307s13.653-27.307 27.307-27.307z" />
<glyph unicode="&#xe912;" glyph-name="icons-10" d="M757.76 355.84c0 0 0 0 0 0-27.307 27.307-75.093 27.307-102.4 0l-47.787-47.787c-20.48-20.48-54.613-20.48-78.507 0 0 0 0 0 0 0l-160.427 157.013c-20.48 20.48-20.48 54.613 0 78.507l47.787 47.787c27.307 27.307 27.307 75.093 0 102.4l-102.4 102.4c-27.307 27.307-75.093 27.307-102.4 0 0 0-34.133-34.133-34.133-34.133s-3.413-3.413-3.413-3.413c-102.4-102.4-102.4-266.24 0-365.227l276.48-273.067c102.4-102.4 266.24-102.4 365.227 0 0 0 37.547 34.133 37.547 34.133 27.307 27.307 27.307 75.093 0 102.4l-95.573 98.987zM723.627 321.707c0 0 102.4-105.813 102.4-105.813 10.24-10.24 10.24-23.893 0-34.133l-17.067-13.653-136.533 136.533 17.067 17.067c10.24 10.24 27.307 10.24 34.133 0zM283.307 758.613l102.4-102.4c10.24-10.24 10.24-23.893 0-34.133l-17.067-17.067-136.533 136.533 17.067 17.067c10.24 10.24 23.893 10.24 34.133 0zM491.52 147.627l-276.48 273.067c-78.507 78.507-81.92 201.387-13.653 283.307l136.533-136.533c-34.133-40.96-34.133-102.4 3.413-139.947l160.427-157.013c37.547-37.547 98.987-40.96 139.947-3.413l136.533-136.533c-85.333-64.853-208.213-61.44-286.72 17.067zM512 857.6c-13.653 0-23.893-10.24-23.893-23.893s10.24-23.893 23.893-23.893c197.973 0 358.4-160.427 358.4-358.4 0-13.653 10.24-23.893 23.893-23.893s23.893 10.24 23.893 23.893c3.413 221.867-180.907 406.187-406.187 406.187zM512 714.24c146.773 0 262.827-119.467 262.827-262.827 0-13.653 10.24-23.893 23.893-23.893s23.893 10.24 23.893 23.893c0 170.667-139.947 310.613-310.613 310.613-13.653 0-23.893-10.24-23.893-23.893s13.653-23.893 23.893-23.893zM512 618.667c92.16 0 167.253-75.093 167.253-167.253 0-13.653 10.24-23.893 23.893-23.893s23.893 10.24 23.893 23.893c0 119.467-95.573 215.040-215.040 215.040-13.653 0-23.893-10.24-23.893-23.893s13.653-23.893 23.893-23.893zM512 523.093c40.96 0 71.68-30.72 71.68-71.68 0-13.653 10.24-23.893 23.893-23.893s23.893 10.24 23.893 23.893c0 64.853-54.613 119.467-119.467 119.467-13.653 0-23.893-10.24-23.893-23.893s13.653-23.893 23.893-23.893z" />
<glyph unicode="&#xe913;" glyph-name="close2" d="M512 533.197l-362.035 362.035-72.397-72.397 362.035-362.035-362.035-362.035 72.397-72.397 362.035 362.035 362.035-362.035 72.397 72.397-362.035 362.035 362.035 362.035-72.397 72.397-362.035-362.035z" />
<glyph unicode="&#xe914;" glyph-name="icons-11" d="M512 915.627c-180.907 0-327.68-146.773-327.68-327.68 0-61.44 17.067-119.467 47.787-170.667l259.413-419.84c3.413-6.827 13.653-13.653 23.893-13.653v0c10.24 0 17.067 3.413 23.893 13.653l252.587 423.253c30.72 51.2 47.787 109.227 47.787 167.253 0 177.493-146.773 327.68-327.68 327.68zM747.52 448l-232.107-385.707-235.52 378.88c-27.307 44.373-40.96 95.573-40.96 146.773 0 150.187 122.88 273.067 273.067 273.067s273.067-122.88 273.067-273.067c0-51.2-13.653-98.987-37.547-139.947zM512 751.787c-88.747 0-163.84-75.093-163.84-163.84s71.68-163.84 163.84-163.84c92.16 0 163.84 75.093 163.84 163.84s-75.093 163.84-163.84 163.84zM512 475.307c-61.44 0-109.227 47.787-109.227 109.227s47.787 109.227 109.227 109.227 109.227-47.787 109.227-109.227c0-58.027-47.787-109.227-109.227-109.227z" />
<glyph unicode="&#xe915;" glyph-name="check" d="M62.669 412.604c-7.1 7.1-10.615 17.715-10.615 24.781s3.516 17.715 10.615 24.781l49.527 49.527c14.165 14.165 35.396 14.165 49.527 0l3.55-3.55 194.56-208.759c7.1-7.066 17.749-7.066 24.815 0l474.078 491.793h3.55c14.131 14.165 35.362 14.165 49.527 0l49.527-49.527c14.131-14.131 14.131-35.362 0-49.527v0l-566.101-587.332c-7.066-7.066-14.131-10.615-24.781-10.615s-17.715 3.55-24.781 10.615l-275.968 297.199-7.031 10.615z" />
<glyph unicode="&#xe916;" glyph-name="icons-12" d="M843.093 587.947c-37.547 88.747-102.4 153.6-191.147 191.147-44.373 20.48-92.16 27.307-139.947 27.307s-95.573-10.24-139.947-27.307c-88.747-37.547-153.6-102.4-191.147-191.147-20.48-44.373-27.307-92.16-27.307-139.947s10.24-95.573 27.307-139.947c37.547-88.747 102.4-153.6 191.147-191.147 44.373-20.48 92.16-27.307 139.947-27.307s95.573 10.24 139.947 27.307c88.747 37.547 153.6 102.4 191.147 191.147 20.48 44.373 27.307 92.16 27.307 139.947 3.413 47.787-6.827 95.573-27.307 139.947zM785.067 287.573c-27.307-47.787-68.267-88.747-116.053-116.053s-102.4-40.96-160.427-40.96c-44.373 0-85.333 6.827-122.88 23.893s-71.68 37.547-102.4 68.267c-27.307 27.307-51.2 61.44-68.267 102.4-10.24 37.547-20.48 81.92-20.48 122.88 0 58.027 13.653 109.227 40.96 157.013s68.267 88.747 116.053 116.053c47.787 27.307 102.4 40.96 157.013 40.96 58.027 0 109.227-13.653 160.427-40.96 47.787-27.307 88.747-68.267 116.053-116.053s40.96-102.4 40.96-157.013c3.413-58.027-10.24-109.227-40.96-160.427zM535.893 451.413v204.8c0 13.653-10.24 20.48-23.893 20.48-10.24 0-20.48-10.24-20.48-20.48v-208.213c0 0 0-3.413 0-3.413 0-6.827 0-13.653 6.827-17.067l119.467-119.467c6.827-6.827 23.893-6.827 30.72 0 10.24 10.24 6.827 23.893 0 30.72l-112.64 112.64z" />
<glyph unicode="&#xe917;" glyph-name="icons-13" d="M296.96 103.253l-259.413 259.413c-20.48 20.48-20.48 51.2 0 68.267 20.48 20.48 51.2 20.48 68.267 0l225.28-225.28 587.093 587.093c20.48 20.48 51.2 20.48 68.267 0 20.48-20.48 20.48-51.2 0-68.267l-621.227-621.227c-17.067-20.48-51.2-20.48-68.267 0z" />
<glyph unicode="&#xe918;" glyph-name="icons-14" d="M928.427 850.773h-109.227v44.373c0 10.24-6.827 17.067-17.067 17.067h-109.227c-6.827 0-17.067-6.827-17.067-17.067v-47.787h-334.507v47.787c0 10.24-6.827 17.067-17.067 17.067h-105.813c-6.827 0-17.067-6.827-17.067-17.067v-47.787h-105.813c-10.24 0-17.067-6.827-17.067-17.067v-836.267c0-10.24 6.827-17.067 17.067-17.067h836.267c6.827 0 17.067 6.827 17.067 17.067v839.68c-3.413 10.24-10.24 17.067-20.48 17.067zM713.387 881.493h78.507v-92.16h-78.507v92.16zM232.107 881.493h78.507v-92.16h-78.507v92.16zM109.227 820.053h92.16v-47.787c0-10.24 6.827-17.067 17.067-17.067h109.227c6.827 0 17.067 6.827 17.067 17.067v47.787h341.333v-47.787c0-10.24 6.827-17.067 17.067-17.067h109.227c6.827 0 17.067 6.827 17.067 17.067v47.787h92.16v-139.947h-812.373v139.947zM109.227 649.387h805.547v-634.88h-805.547v634.88zM634.88 557.227h-416.427v-450.56h587.093v450.56h-170.667zM529.067 526.507h109.227v-109.227h-109.227v109.227zM634.88 277.333h-109.227v109.227h109.227v-109.227zM389.12 386.56h109.227v-109.227h-109.227v109.227zM389.12 526.507h109.227v-109.227h-109.227v109.227zM249.173 526.507h109.227v-109.227h-109.227v109.227zM249.173 386.56h109.227v-109.227h-109.227v109.227zM358.4 137.387h-109.227v109.227h109.227v-109.227zM494.933 137.387h-109.227v109.227h109.227v-109.227zM634.88 137.387h-109.227v109.227h109.227v-109.227zM774.827 137.387h-109.227v109.227h109.227v-109.227zM774.827 277.333h-109.227v109.227h109.227v-109.227zM774.827 417.28h-109.227v109.227h109.227v-109.227z" />
<glyph unicode="&#xe919;" glyph-name="icons-21" d="M948.907 458.24c-13.653 0-27.307-10.24-27.307-27.307v-242.347c0-64.853-54.613-119.467-119.467-119.467h-580.267c-68.267 3.413-119.467 54.613-119.467 122.88v245.76c0 13.653-10.24 27.307-27.307 27.307s-27.307-10.24-27.307-27.307v-245.76c0-95.573 78.507-174.080 174.080-174.080h583.68c95.573 0 174.080 78.507 174.080 174.080v242.347c-3.413 13.653-13.653 23.893-30.72 23.893v0zM361.813 663.040l122.88 126.293v-539.307c0-13.653 10.24-27.307 27.307-27.307 13.653 0 27.307 10.24 27.307 27.307v539.307l122.88-122.88c6.827-6.827 13.653-6.827 17.067-6.827 6.827 0 13.653 3.413 17.067 6.827 10.24 10.24 10.24 27.307 0 37.547l-170.667 170.667c-3.413 3.413-10.24 6.827-17.067 6.827s-13.653-3.413-17.067-6.827l-170.667-170.667c-10.24-10.24-10.24-27.307 0-37.547 13.653-13.653 30.72-13.653 40.96-3.413v0z" />
<glyph unicode="&#xe91a;" glyph-name="buscador" d="M911.36 82.773l-197.973 197.973c54.613 61.44 85.333 139.947 85.333 225.28 0 191.147-157.013 344.747-344.747 344.747-191.147 3.413-348.16-153.6-348.16-341.333s157.013-344.747 344.747-344.747c85.333 0 167.253 30.72 225.28 85.333l197.973-197.973c3.413-3.413 10.24-6.827 17.067-6.827s13.653 3.413 17.067 6.827c13.653 6.827 13.653 20.48 3.413 30.72v0zM153.6 509.44c0 163.84 133.12 296.96 296.96 296.96s296.96-133.12 296.96-296.96-129.707-300.373-296.96-300.373c-163.84 0-296.96 133.12-296.96 300.373v0z" />
<glyph unicode="&#xe91b;" glyph-name="pesos" d="M511.232 935.424c-268.8 0-487.509-218.709-487.509-487.509s218.709-487.509 487.509-487.509c268.8 0 487.509 218.709 487.509 487.509s-218.709 487.509-487.509 487.509v0zM511.232 24.491c-233.472 0-423.424 189.952-423.424 423.424s189.952 423.424 423.424 423.424 423.424-189.952 423.424-423.424-189.952-423.424-423.424-423.424v0zM543.317 476.672v182.187c18.176-6.741 33.963-19.115 44.971-35.84 9.728-14.763 29.611-18.859 44.459-9.131s18.944 29.611 9.131 44.459c-23.040 34.987-58.539 58.795-98.56 67.157v50.944c0 17.749-14.336 32.085-32.085 32.085s-32.085-14.336-32.085-32.085v-50.859c-70.997-14.763-124.501-77.824-124.501-153.173s53.504-138.411 124.501-153.173v-182.101c-18.176 6.741-33.963 19.115-44.971 35.84-9.728 14.848-29.611 18.944-44.459 9.131-14.848-9.728-18.944-29.611-9.131-44.459 23.040-34.987 58.539-58.795 98.56-67.157v-51.029c0-17.749 14.336-32.085 32.085-32.085s32.085 14.336 32.085 32.085v50.859c70.997 14.763 124.501 77.824 124.501 153.173s-53.504 138.411-124.501 153.173v0zM418.816 572.331c0 39.68 25.173 73.472 60.331 86.528v-172.971c-35.157 12.971-60.331 46.763-60.331 86.443v0zM543.317 236.971v173.056c35.157-13.056 60.331-46.848 60.331-86.528s-25.173-73.472-60.331-86.528v0z" />
<glyph unicode="&#xe91c;" glyph-name="Vector-Smart-Object2" d="M934 840h-30v30c0 49.6-40.4 90-90 90s-90-40.4-90-90v-30h-120v30c0 49.6-40.4 90-90 90s-90-40.4-90-90v-30h-124v30c0 49.6-40.4 90-90 90s-90-40.4-90-90v-30h-30c-49.6 0-90-40.4-90-90 0-4.4 0-712.4 0-724 0-49.6 40.4-90 90-90h844c49.6 0 90 40.4 90 90 0 5.6 0 714.2 0 724 0 49.6-40.4 90-90 90zM784 870c0 16.6 13.4 30 30 30s30-13.4 30-30v-120c0-16.6-13.4-30-30-30s-30 13.4-30 30v120zM484 870c0 16.6 13.4 30 30 30s30-13.4 30-30v-120c0-16.6-13.4-30-30-30s-30 13.4-30 30v120zM180 870c0 16.6 13.4 30 30 30s30-13.4 30-30v-120c0-16.6-13.4-30-30-30s-30 13.4-30 30v120zM90 780h30v-30c0-49.6 40.4-90 90-90s90 40.4 90 90v30h124v-30c0-49.6 40.4-90 90-90s90 40.4 90 90v30h120v-30c0-49.6 40.4-90 90-90s90 40.4 90 90v30h30c16.6 0 30-13.4 30-30v-154h-904v154c0 16.6 13.4 30 30 30zM964 26c0-16.6-13.4-30-30-30h-844c-16.6 0-30 13.4-30 30v510h904v-510zM150 56h724c16.6 0 30 13.4 30 30v360c0 16.6-13.4 30-30 30h-724c-16.6 0-30-13.4-30-30v-360c0-16.6 13.4-30 30-30zM360 236h124v-120h-124v120zM300 116h-120v120h120v-120zM544 236h120v-120h-120v120zM724 236h120v-120h-120v120zM844 296h-120v120h120v-120zM664 296h-120v120h120v-120zM484 296h-124v120h124v-120zM300 296h-120v120h120v-120z" />
<glyph unicode="&#xe91d;" glyph-name="letter" horiz-adv-x="1267" d="M1210.458-58.427h-1144.083c-27.983 0-50.668 22.685-50.668 50.668v0 912.024c0 27.983 22.685 50.668 50.668 50.668v0h1144.083c27.983 0 50.668-22.685 50.668-50.668v0-912.024c0-27.983-22.685-50.668-50.668-50.668v0zM117.043 42.909h1042.747v810.688h-1042.747zM638.417 296.249c-0.090-0.001-0.197-0.001-0.304-0.001-13.664 0-26.065 5.409-35.178 14.202l0.015-0.014-572.042 557.348c-9.258 9.184-14.989 21.91-14.989 35.976 0 13.813 5.527 26.334 14.49 35.474l-0.008-0.008c9.184 9.263 21.915 14.998 35.984 14.998 13.561 0 25.877-5.327 34.971-14.003l-0.020 0.019 537.081-522.894 536.574 522.894c9.158 9.106 21.782 14.734 35.721 14.734s26.563-5.628 35.723-14.736l-0.002 0.002c9.106-9.158 14.734-21.782 14.734-35.721s-5.628-26.563-14.736-35.723l0.002 0.002-571.535-557.348c-9.203-9.384-22.015-15.201-36.185-15.201-0.104 0-0.208 0-0.312 0.001h0.016zM706.401 412.333l71.655 71.655 461.819-461.819-71.655-71.655-461.819 461.819zM30.348 21.669l461.819 461.819 71.655-71.655-461.819-461.819-71.655 71.655z" />
<glyph unicode="&#xe91e;" glyph-name="whatsapp" d="M851.58 788.988c-89.812 89.918-209.256 139.459-336.504 139.512-262.207 0-475.605-213.393-475.711-475.67-0.035-83.842 21.867-165.686 63.498-237.826l-67.488-246.504 252.182 66.152c69.486-37.904 147.715-57.879 227.326-57.902h0.199c262.178 0 475.6 213.41 475.699 475.699 0.053 127.113-49.383 246.627-139.201 336.539zM515.076 57.088h-0.164c-70.945 0.029-140.525 19.096-201.24 55.113l-14.432 8.572-149.648-39.258 39.943 145.904-9.404 14.959c-39.58 62.953-60.48 135.715-60.445 210.422 0.082 217.998 177.457 395.355 395.549 395.355 105.609-0.035 204.885-41.215 279.533-115.951s115.734-174.076 115.699-279.727c-0.094-218.016-177.457-395.391-395.391-395.391zM731.955 353.215c-11.883 5.953-70.324 34.699-81.223 38.672-10.887 3.967-18.82 5.941-26.736-5.953-7.928-11.895-30.703-38.672-37.641-46.6-6.937-7.934-13.863-8.93-25.752-2.977-11.889 5.947-50.186 18.504-95.59 58.998-35.332 31.518-59.186 70.441-66.123 82.336-6.926 11.906-0.059 17.719 5.215 24.258 12.867 15.979 25.752 32.73 29.713 40.658 3.967 7.934 1.98 14.877-0.996 20.824-2.965 5.947-26.736 64.453-36.639 88.26-9.656 23.168-19.447 20.039-26.748 20.402-6.926 0.346-14.854 0.416-22.781 0.416-7.922 0-20.801-2.971-31.699-14.877-10.893-11.9-41.596-40.652-41.596-99.158s42.592-115.025 48.533-122.959c5.941-7.934 83.818-127.992 203.051-179.473 28.359-12.258 50.496-19.564 67.764-25.043 28.477-9.047 54.381-7.77 74.865-4.711 22.84 3.416 70.318 28.758 80.232 56.52 9.902 27.768 9.902 51.562 6.926 56.525-2.965 4.957-10.893 7.928-22.775 13.881z" />
<glyph unicode="&#xe91f;" glyph-name="ticket" horiz-adv-x="956" d="M399.551-64l-131.589 102.28 17.944 23.925c10.848 14.322 17.377 32.438 17.377 52.079 0 27.225-12.544 51.52-32.168 67.42l-0.162 0.127c-14.412 10.588-32.506 16.944-52.085 16.944-27.013 0-51.2-12.099-67.437-31.174l-0.104-0.125-17.944-23.327-133.383 104.075 556.262 711.776 131.589-102.879-18.542-23.327c-11.535-14.803-18.494-33.664-18.494-54.15 0-3.47 0.2-6.894 0.588-10.261l-0.039 0.411c2.475-24.39 14.723-45.514 32.711-59.672l0.186-0.141c14.296-11.129 32.507-17.842 52.286-17.842 27.259 0 51.539 12.751 67.202 32.614l0.138 0.182 18.542 23.327 134.579-100.486zM349.308 50.841l40.075-31.103 482.692 617.869-40.075 31.103c-25.259-21.496-58.261-34.571-94.317-34.571-34.057 0-65.389 11.665-90.219 31.219l0.312-0.237c-34.522 27.067-56.498 68.775-56.498 115.615 0 23.218 5.4 45.176 15.012 64.684l-0.383-0.86-39.477 31.701-482.692-617.869 40.075-31.701c25.087 20.721 57.574 33.288 92.995 33.288 80.933 0 146.542-65.609 146.542-146.542 0-22.74-5.179-44.27-14.423-63.475l0.381 0.878zM156.601 400.828l36.816 47.14 352.606-275.387-36.816-47.14-352.606 275.387zM402.068 714.047l36.816 47.14 352.606-275.387-36.816-47.14-352.606 275.387z" />
<glyph unicode="&#xe920;" glyph-name="location-events" horiz-adv-x="702" d="M350.208 698.88c49.202 0 89.088-39.886 89.088-89.088s-39.886-89.088-89.088-89.088c-49.202 0-89.088 39.886-89.088 89.088v0c0 49.202 39.886 89.088 89.088 89.088v0zM350.208 750.080c-77.479 0-140.288-62.809-140.288-140.288s62.809-140.288 140.288-140.288c77.479 0 140.288 62.809 140.288 140.288v0c0 77.479-62.809 140.288-140.288 140.288v0zM350.208 908.8c0.668 0.005 1.457 0.008 2.247 0.008 164.855 0 298.496-133.641 298.496-298.496 0-58.207-16.66-112.522-45.472-158.438l0.729 1.245c-1.107-1.458-1.982-3.162-2.531-5.008l-0.029-0.112-253.44-413.696-256 419.84v4.096c-26.203 43.553-41.702 96.123-41.702 152.313 0 108.934 58.253 204.262 145.308 256.533l1.354 0.754c42.935 25.74 94.73 40.962 150.081 40.962 0.337 0 0.674-0.001 1.011-0.002h-0.052zM350.208 960c-193.415 0-350.208-156.793-350.208-350.208v0c0.681-65.662 19.65-126.755 52.043-178.599l-0.843 1.447 299.008-496.64 299.008 489.984c32.965 52.371 52.523 116.064 52.523 184.325 0 193.132-156.564 349.696-349.696 349.696-0.645 0-1.29-0.002-1.935-0.005h0.099z" />
<glyph unicode="&#xe921;" glyph-name="hour-events" d="M510.865-61.729c-282.143 0-510.865 228.722-510.865 510.865s228.722 510.865 510.865 510.865c282.143 0 510.865-228.722 510.865-510.865v0c0-282.143-228.722-510.865-510.865-510.865v0zM510.865 903.237c-250.794 0-454.102-203.308-454.102-454.102s203.308-454.102 454.102-454.102c250.794 0 454.102 203.308 454.102 454.102v0c0 250.794-203.308 454.102-454.102 454.102v0zM665.827 264.089c-0.097-0.001-0.211-0.002-0.325-0.002-7.71 0-14.656 3.271-19.527 8.5l-0.015 0.016-155.53 155.53c-5.267 4.888-8.553 11.848-8.553 19.575 0 0.502 0.014 1.001 0.041 1.496l-0.003-0.069v313.33c0 15.675 12.707 28.381 28.381 28.381s28.381-12.707 28.381-28.381v0-302.545l147.016-147.583c5.3-4.983 8.601-12.039 8.601-19.867s-3.301-14.884-8.586-19.854l-0.014-0.013c-4.885-5.246-11.832-8.516-19.542-8.516-0.114 0-0.229 0.001-0.343 0.002h0.017z" />
<glyph unicode="&#xe922;" glyph-name="cam-events" horiz-adv-x="1553" d="M1046.452-64h-997.643c-0.003 0-0.006 0-0.010 0-26.613 0-48.251 21.299-48.798 47.781l-0.001 0.051v927.359c0 26.956 21.852 48.808 48.808 48.808v0h997.643c26.956 0 48.808-21.852 48.808-48.808v0-927.359c-0.548-26.533-22.186-47.832-48.799-47.832-0.003 0-0.007 0-0.010 0h0.001zM97.617 33.617h900.027v828.766h-900.027zM1504.275-59.119c-0.166-0.002-0.363-0.003-0.559-0.003-13.259 0-25.205 5.625-33.581 14.618l-0.025 0.028-457.823 457.823c-9.114 8.569-14.791 20.705-14.791 34.166s5.677 25.597 14.766 34.143l0.024 0.023 457.823 458.799c8.413 9.129 20.429 14.829 33.775 14.829 6.864 0 13.375-1.507 19.222-4.209l-0.284 0.118c17.835-7.467 30.157-24.733 30.261-44.891v-916.635c0.001-0.123 0.002-0.269 0.002-0.415 0-20.092-12.388-37.29-29.942-44.374l-0.321-0.114c-5.188-2.47-11.274-3.913-17.698-3.913-0.299 0-0.597 0.003-0.894 0.009l0.044-0.001zM1113.807 447.512l339.706-339.706v683.317z" />
<glyph unicode="&#xe923;" glyph-name="calendar-events" horiz-adv-x="1134" d="M1099.335-64h-1064.458c-19.262 0-34.877 15.615-34.877 34.877v0 872.632c0 19.262 15.615 34.877 34.877 34.877v0h1064.458c19.262 0 34.877-15.615 34.877-34.877v0-872.632c0-19.262-15.615-34.877-34.877-34.877v0zM69.755 5.755h994.703v802.877h-994.703zM1099.335 570.071h-1064.458c-19.262 0-34.877 15.615-34.877 34.877s15.615 34.877 34.877 34.877v0h1064.458c19.262 0 34.877-15.615 34.877-34.877s-15.615-34.877-34.877-34.877v0zM567.106-64c-19.262 0-34.877 15.615-34.877 34.877v0 634.071c0 19.262 15.615 34.877 34.877 34.877s34.877-15.615 34.877-34.877v0-634.071c0-19.262-15.615-34.877-34.877-34.877v0zM1099.335 253.384h-1064.458c-19.262 0-34.877 15.615-34.877 34.877s15.615 34.877 34.877 34.877v0h1064.458c19.262 0 34.877-15.615 34.877-34.877s-15.615-34.877-34.877-34.877v0zM294.365 715.161c-19.262 0-34.877 15.615-34.877 34.877v0 175.084c0 19.262 15.615 34.877 34.877 34.877s34.877-15.615 34.877-34.877v0-174.387c0.004-0.208 0.007-0.452 0.007-0.698 0-19.262-15.615-34.877-34.877-34.877-0.002 0-0.005 0-0.007 0v0zM852.403 715.161c-19.262 0-34.877 15.615-34.877 34.877v0 175.084c0 19.262 15.615 34.877 34.877 34.877s34.877-15.615 34.877-34.877v0-174.387c0.004-0.208 0.007-0.452 0.007-0.698 0-19.262-15.615-34.877-34.877-34.877-0.002 0-0.005 0-0.007 0v0z" />
<glyph unicode="&#xe924;" glyph-name="virtual-events" d="M309.173 369.61l-32.343-189.67c-0.352-2.114-0.553-4.549-0.553-7.031 0-24.826 20.125-44.951 44.951-44.951 7.401 0 14.383 1.788 20.54 4.957l-0.252-0.118 170.484 89.901 169.936-89.901c6.068-3.105 13.236-4.928 20.829-4.934h0.002c24.598 0.298 44.423 20.307 44.423 44.948 0 2.517-0.207 4.986-0.605 7.391l0.036-0.261-33.987 189.67 137.593 134.304c8.436 8.181 13.672 19.621 13.672 32.283 0 22.493-16.521 41.127-38.090 44.43l-0.25 0.032-190.218 27.409-83.323 172.677c-7.422 14.944-22.52 25.067-39.997 25.216h-0.020c-17.673-0.065-32.965-10.197-40.446-24.957l-0.119-0.259-84.968-172.677-190.218-27.409c-21.819-3.335-38.34-21.969-38.34-44.462 0-12.662 5.236-24.102 13.66-32.272l0.012-0.011zM422.647 521.456c15.017 1.786 27.533 11.029 33.874 23.866l0.113 0.253 54.818 109.636 54.818-112.377c7.48-12.786 21.101-21.265 36.712-21.379h0.016l123.889-18.090-90.998-86.064c-8.432-8.349-13.653-19.927-13.653-32.725 0-2.38 0.181-4.717 0.529-6.999l-0.032 0.256 21.379-123.34-109.636 58.107c-5.988 3.458-13.171 5.498-20.831 5.498s-14.843-2.040-21.035-5.607l0.205 0.109-109.636-58.107 21.379 123.34c0.316 2.027 0.496 4.364 0.496 6.744 0 12.798-5.221 24.376-13.649 32.722l-0.004 0.004-92.094 87.709zM512-64c282.77 0 512 229.23 512 512s-229.23 512-512 512c-282.77 0-512-229.23-512-512v0c0.312-282.644 229.355-511.688 511.97-512h0.030zM512 894.218c0.162 0 0.355 0 0.548 0 246.742 0 446.767-200.024 446.767-446.767s-200.024-446.767-446.767-446.767c-246.742 0-446.767 200.024-446.767 446.767 0 0.192 0 0.385 0 0.577v-0.029c0.312 246.314 199.905 445.907 446.189 446.218h0.029z" />
<glyph unicode="&#xe926;" glyph-name="info" d="M512 896c-260.267 0-469.333-209.067-469.333-469.333s209.067-469.333 469.333-469.333 469.333 209.067 469.333 469.333-209.067 469.333-469.333 469.333zM512 42.667c-213.333 0-384 170.667-384 384s170.667 384 384 384c213.333 0 384-170.667 384-384s-170.667-384-384-384zM512 469.334c-25.6 0-42.667-17.067-42.667-42.667v-170.667c0-25.6 17.067-42.667 42.667-42.667s42.667 17.067 42.667 42.667v170.667c0 25.6-17.067 42.667-42.667 42.667zM482.133 627.2c-8.533-8.533-12.8-17.067-12.8-29.867s4.267-21.333 12.8-29.867c8.533-8.533 17.067-12.8 29.867-12.8s21.333 4.267 29.867 12.8c8.533 8.533 12.8 17.067 12.8 29.867s-4.267 21.333-12.8 29.867c-17.067 17.067-42.667 17.067-59.733 0z" />
</font>
</defs>
</svg>
