<svg width="20" height="20" xmlns="http://www.w3.org/2000/svg">

 <g>
  <path id="svg_1" d="m2.5625,7.54802a6.5,6.5 0 0 1 6.056,-6.408l0.038,0.67c-2.646,0.738 -3.74,2.978 -3.874,5.315l3.78,0c0.552,0 0.5,0.432 0.5,0.986l0,4.511c0,0.554 -0.448,0.503 -1,0.503l-5,0c-0.552,0 -0.5,-0.449 -0.5,-1.003l0,-4.574zm8,0a6.5,6.5 0 0 1 6.056,-6.408l0.038,0.67c-2.646,0.739 -3.74,2.979 -3.873,5.315l3.779,0c0.552,0 0.5,0.432 0.5,0.986l0,4.511c0,0.554 -0.448,0.503 -1,0.503l-5,0c-0.552,0 -0.5,-0.449 -0.5,-1.003l0,-4.574z"/>
  <rect transform="rotate(89.8424 9.90694 16.3126)" stroke="black" id="svg_4" height="1.18749" width="5.31179" y="15.71889" x="7.25104"/>
  <rect transform="rotate(179.711 9.90694 16.3751)" stroke="black" id="svg_6" height="1.18749" width="5.31179" y="15.78139" x="7.25104"/>
 </g>
</svg>